<svg xmlns="http://www.w3.org/2000/svg" width="442" height="442" viewBox="0 0 442 442">
<g>
<path d="M 197.58 290.32 C189.93,298.40 182.95,304.99 182.08,304.98 C179.96,304.96 164.00,296.42 155.97,291.02 C147.89,285.58 136.05,275.75 129.53,269.08 L 124.56 263.99 L 131.52 256.74 C142.27,245.55 151.73,236.51 160.70,228.86 C170.07,220.87 171.04,220.84 175.05,228.39 C176.36,230.86 178.12,233.13 178.97,233.43 C183.27,234.98 189.69,239.97 191.18,242.90 C192.75,246.01 197.37,249.88 201.19,251.27 C202.28,251.67 203.03,251.30 203.32,250.19 C203.73,248.63 203.78,248.64 203.88,250.23 C203.95,251.18 205.08,252.23 206.41,252.57 C207.73,252.90 209.05,254.06 209.33,255.16 C209.75,256.77 210.22,256.96 211.75,256.13 C213.19,255.36 214.43,255.59 216.83,257.04 C220.74,259.42 220.77,261.50 216.96,265.96 C215.33,267.87 214.00,269.91 214.00,270.51 C214.00,271.11 213.44,272.16 212.75,272.85 C212.06,273.54 211.50,274.45 211.50,274.87 C211.50,275.30 205.24,282.25 197.58,290.32 ZM 283.42 315.98 C270.71,318.79 270.63,318.78 271.48,314.25 C271.87,312.19 272.48,292.95 272.84,271.50 C273.22,249.14 273.86,233.23 274.34,234.21 C274.81,235.16 277.51,237.48 280.34,239.38 C283.84,241.72 286.79,244.90 289.50,249.26 C292.90,254.73 294.24,255.99 298.50,257.70 C301.25,258.81 303.92,260.61 304.42,261.71 C305.00,262.97 306.38,263.73 308.13,263.78 C314.56,263.97 336.00,276.41 336.00,279.96 C336.00,280.96 336.85,282.82 337.88,284.10 C339.75,286.41 339.74,286.44 336.77,289.21 C333.44,292.33 333.79,292.84 337.57,290.36 L 340.06 288.73 L 338.28 291.94 C336.86,294.50 333.78,296.50 323.00,301.86 C308.74,308.94 298.07,312.75 283.42,315.98 ZM 217.11 354.00 C209.66,355.38 207.03,355.25 206.35,353.48 C206.03,352.64 205.98,338.57 206.24,322.23 C206.68,294.14 206.84,292.12 209.09,285.63 C210.40,281.85 212.07,278.53 212.79,278.25 C213.51,277.97 215.09,278.63 216.30,279.70 C218.32,281.50 221.40,283.43 229.50,287.95 C231.15,288.87 235.03,290.64 238.13,291.88 C241.22,293.12 245.02,295.45 246.56,297.07 C248.11,298.68 249.85,300.00 250.44,300.01 C251.02,300.01 252.80,300.69 254.38,301.52 C256.59,302.67 257.60,302.75 258.66,301.87 C261.12,299.83 261.38,301.85 259.69,309.76 C257.13,321.69 251.30,332.56 243.56,339.79 C236.27,346.62 225.37,352.47 217.11,354.00 Z" fill="rgb(245,130,30)"/>
<path d="M 333.55 296.23 C336.25,294.55 337.51,293.33 338.28,291.94 L 340.06 288.73 L 337.57 290.36 C333.79,292.84 333.44,292.33 336.77,289.21 C339.74,286.44 339.75,286.41 337.88,284.10 C336.85,282.82 336.00,280.96 336.00,279.96 C336.00,276.41 314.56,263.97 308.13,263.78 C306.38,263.73 305.00,262.97 304.42,261.71 C303.92,260.61 301.25,258.81 298.50,257.70 C294.24,255.99 292.90,254.73 289.50,249.26 C286.79,244.90 283.84,241.72 280.34,239.38 C277.51,237.48 274.81,235.16 274.34,234.21 C273.86,233.23 273.22,249.14 272.84,271.50 C272.54,289.44 272.06,305.83 271.69,311.92 C272.05,305.66 272.45,288.43 272.67,269.50 L 273.13 228.50 L 291.31 209.89 C311.11,189.63 318.62,183.83 331.00,179.30 L 338.50 176.55 L 376.32 176.20 L 414.14 175.85 L 413.52 180.68 C408.87,216.43 388.77,252.44 359.29,277.83 C351.25,284.74 342.63,290.90 333.55,296.23 ZM 260.52 301.39 C260.20,300.91 259.58,301.10 258.66,301.87 C257.60,302.75 256.59,302.67 254.38,301.52 C252.80,300.69 251.02,300.01 250.44,300.01 C249.85,300.00 248.11,298.68 246.56,297.07 C245.02,295.45 241.22,293.12 238.13,291.88 C235.03,290.64 231.15,288.87 229.50,287.95 C221.40,283.43 218.32,281.50 216.30,279.70 C215.09,278.63 213.51,277.97 212.79,278.25 C212.07,278.53 210.40,281.85 209.09,285.63 C208.72,286.68 208.41,287.62 208.15,288.57 C208.45,287.44 208.82,286.32 209.27,285.00 C210.67,280.88 211.59,277.27 211.30,277.00 C211.03,276.74 205.48,282.11 198.66,289.19 C205.81,281.61 211.50,275.28 211.50,274.87 C211.50,274.45 212.06,273.54 212.75,272.85 C213.44,272.16 214.00,271.11 214.00,270.51 C214.00,269.91 215.33,267.87 216.96,265.96 C220.77,261.50 220.74,259.42 216.83,257.04 C214.43,255.59 213.19,255.36 211.75,256.13 C210.22,256.96 209.75,256.77 209.33,255.16 C209.05,254.06 207.73,252.90 206.41,252.57 C205.08,252.23 203.95,251.18 203.88,250.23 C203.78,248.64 203.73,248.63 203.32,250.19 C203.03,251.30 202.28,251.67 201.19,251.27 C197.37,249.88 192.75,246.01 191.18,242.90 C189.69,239.97 183.27,234.98 178.97,233.43 C178.12,233.13 176.36,230.86 175.05,228.39 C171.04,220.84 170.07,220.87 160.70,228.86 C151.73,236.51 142.27,245.55 131.52,256.74 L 124.99 263.54 C124.35,262.65 124.00,261.98 124.00,261.60 C124.00,260.41 128.37,255.55 135.25,249.09 C141.44,243.29 159.74,225.40 175.92,209.33 L 205.33 180.13 L 214.59 187.31 C257.26,220.46 262.58,225.29 258.92,227.55 C256.87,228.82 249.01,240.21 249.56,241.10 C249.87,241.60 251.55,242.01 253.31,242.02 C257.91,242.04 258.47,242.82 258.72,249.50 C258.84,252.80 259.45,266.21 260.06,279.30 C260.51,288.92 260.72,295.86 260.52,301.39 ZM 115.00 241.43 C115.00,243.60 112.29,243.41 111.08,241.15 C109.72,238.62 111.70,236.56 113.64,238.49 C114.39,239.24 115.00,240.56 115.00,241.43 ZM 217.11 354.00 C223.89,352.74 232.45,348.57 239.33,343.35 C232.60,348.69 224.74,352.59 217.11,354.00 ZM 250.21 332.03 C254.62,325.67 257.93,317.96 259.69,309.76 C259.74,309.50 259.80,309.25 259.85,309.01 C258.93,315.00 257.09,319.58 253.91,325.93 C252.87,328.02 251.62,330.06 250.21,332.03 ZM 167.31 297.87 C174.09,301.66 180.76,304.96 182.08,304.98 C182.56,304.99 184.88,303.00 188.15,299.86 C184.90,303.01 182.62,305.02 182.23,305.02 C180.38,304.99 174.31,301.96 167.31,297.87 ZM 136.94 276.05 C141.28,279.87 146.19,283.88 150.65,287.22 C148.12,285.44 145.83,283.73 144.00,282.21 C141.62,280.24 139.21,278.14 136.94,276.05 ZM 311.68 307.10 C315.28,305.57 319.00,303.84 323.00,301.86 C325.70,300.51 327.92,299.38 329.74,298.40 C323.88,301.65 317.85,304.56 311.68,307.10 ZM 283.42 315.98 C284.17,315.82 284.91,315.65 285.64,315.48 C284.93,315.65 284.22,315.81 283.50,315.97 C280.37,316.66 278.00,317.18 276.22,317.51 C277.99,317.18 280.33,316.67 283.42,315.98 Z" fill="rgb(248,160,30)"/>
<path d="M 260.58 298.63 C260.65,293.58 260.44,287.38 260.06,279.30 C259.45,266.21 258.84,252.80 258.72,249.50 C258.47,242.82 257.91,242.04 253.31,242.02 C251.55,242.01 249.87,241.60 249.56,241.10 C249.01,240.21 256.87,228.82 258.92,227.55 C262.58,225.29 257.26,220.46 214.59,187.31 L 205.33 180.13 L 175.92 209.33 C159.74,225.40 141.44,243.29 135.25,249.09 C128.37,255.55 124.00,260.41 124.00,261.60 C124.00,261.98 124.35,262.65 124.99,263.54 L 124.57 263.98 C121.21,260.47 118.07,256.93 115.25,253.45 C105.55,241.50 95.01,221.91 89.98,206.50 C85.83,193.79 83.84,189.87 78.74,184.33 C72.63,177.71 67.61,175.21 55.90,172.98 C41.83,170.30 32.65,165.83 24.54,157.73 C17.37,150.56 12.71,142.17 10.43,132.37 C10.22,131.47 10.02,130.64 9.83,129.88 C9.10,126.99 8.63,125.12 9.32,123.92 C10.58,121.70 15.75,121.72 30.40,121.78 C32.49,121.79 34.77,121.80 37.27,121.80 L 65.04 121.84 L 71.27 125.25 C76.97,128.38 79.09,130.51 85.35,139.47 C86.67,141.36 86.82,141.27 88.78,137.47 C91.51,132.19 97.46,126.58 103.00,124.08 C107.17,122.19 109.52,122.04 135.25,122.02 L 163.00 122.00 L 163.00 124.45 C163.00,135.35 156.42,149.34 147.01,158.42 C138.75,166.39 130.20,170.69 119.26,172.39 C109.92,173.83 109.62,174.45 113.89,183.58 C117.95,192.25 126.35,200.61 135.50,205.08 C142.29,208.40 142.86,208.50 154.59,208.50 L 166.69 208.50 L 176.10 203.83 C184.95,199.43 186.43,198.21 200.93,183.33 C209.41,174.62 222.13,161.59 229.20,154.37 C247.28,135.88 258.57,128.82 277.71,123.99 C284.92,122.18 289.15,122.03 334.53,122.02 L 383.56 122.00 L 390.75 125.45 C399.80,129.78 406.31,136.20 410.07,144.49 C412.80,150.52 415.28,161.38 414.18,162.49 C413.90,162.77 399.68,163.00 382.58,163.01 C346.88,163.02 338.65,163.73 326.59,167.86 C311.03,173.19 306.42,176.68 282.60,201.24 L 261.01 223.50 L 261.00 264.09 C261.00,279.94 260.95,290.73 260.58,298.63 ZM 115.00 241.43 C115.00,240.56 114.39,239.24 113.64,238.49 C111.70,236.56 109.72,238.62 111.08,241.15 C112.29,243.41 115.00,243.60 115.00,241.43 ZM 250.21 332.03 C251.62,330.06 252.87,328.02 253.91,325.93 C256.03,321.71 257.55,318.27 258.60,314.69 C257.47,319.00 255.82,322.45 253.40,327.05 C252.05,329.63 250.32,332.17 248.32,334.59 C248.97,333.76 249.60,332.91 250.21,332.03 ZM 125.51 264.95 L 126.61 266.09 C126.24,265.71 125.87,265.33 125.51,264.95 Z" fill="rgb(249,204,37)"/>
<path d="M 0.00 221.00 L 0.00 0.00 L 221.00 0.00 L 442.00 0.00 L 442.00 221.00 L 442.00 442.00 L 221.00 442.00 L 0.00 442.00 L 0.00 221.00 ZM 217.11 354.00 C231.04,351.42 246.71,339.78 253.40,327.05 C260.57,313.42 261.00,309.85 261.00,264.09 L 261.01 223.50 L 282.60 201.24 C306.42,176.68 311.03,173.19 326.59,167.86 C338.65,163.73 346.88,163.02 382.58,163.01 C399.68,163.00 413.90,162.77 414.18,162.49 C415.28,161.38 412.80,150.52 410.07,144.49 C406.31,136.20 399.80,129.78 390.75,125.45 L 383.56 122.00 L 334.53 122.02 C289.15,122.03 284.92,122.18 277.71,123.99 C258.57,128.82 247.28,135.88 229.20,154.37 C222.13,161.59 209.41,174.62 200.93,183.33 C186.43,198.21 184.95,199.43 176.10,203.83 L 166.69 208.50 L 154.59 208.50 C142.86,208.50 142.29,208.40 135.50,205.08 C126.35,200.61 117.95,192.25 113.89,183.58 C109.62,174.45 109.92,173.83 119.26,172.39 C130.20,170.69 138.75,166.39 147.01,158.42 C156.42,149.34 163.00,135.35 163.00,124.45 L 163.00 122.00 L 135.25 122.02 C109.52,122.04 107.17,122.19 103.00,124.08 C97.46,126.58 91.51,132.19 88.78,137.47 C86.82,141.27 86.67,141.36 85.35,139.47 C79.09,130.51 76.97,128.38 71.27,125.25 L 65.04 121.84 L 37.27 121.80 C5.29,121.76 7.75,120.79 10.43,132.37 C12.71,142.17 17.37,150.56 24.54,157.73 C32.65,165.83 41.83,170.30 55.90,172.98 C67.61,175.21 72.63,177.71 78.74,184.33 C83.84,189.87 85.83,193.79 89.98,206.50 C95.01,221.91 105.55,241.50 115.25,253.45 C126.72,267.59 143.62,282.92 158.00,292.25 C167.01,298.09 180.09,304.99 182.23,305.02 C182.93,305.03 189.64,298.62 197.14,290.77 C204.64,282.92 211.01,276.73 211.30,277.00 C211.59,277.27 210.67,280.88 209.27,285.00 C206.82,292.21 206.70,293.64 206.24,322.23 C205.98,338.57 206.03,352.64 206.35,353.48 C207.03,355.25 209.66,355.38 217.11,354.00 ZM 283.50 315.97 C311.17,309.86 337.43,296.64 359.29,277.83 C388.77,252.44 408.87,216.43 413.52,180.68 L 414.14 175.85 L 376.32 176.20 L 338.50 176.55 L 331.00 179.30 C318.62,183.83 311.11,189.63 291.31,209.89 L 273.13 228.50 L 272.67 269.50 C272.41,292.05 271.88,312.19 271.49,314.25 C270.63,318.79 270.70,318.80 283.50,315.97 Z" fill="rgb(254,254,253)"/>
</g>
</svg>