<svg xmlns="http://www.w3.org/2000/svg" direction="ltr" width="1024" height="1024" viewBox="1931 2616 1024 1024" stroke-linecap="round" stroke-linejoin="round" data-color-mode="light" class="tl-container tl-theme__force-sRGB tl-theme__light" style="background-color: transparent;"><defs/><g transform="matrix(1, 0, 0, 1, 1931, 2616)" opacity="1"><g transform="scale(1, 1)"><g>
<path xmlns="http://www.w3.org/2000/svg" fill="#0a0e0f" d="   M 745.92 350.18   C 749.14 322.97 765.06 300.05 789.92 289.04   Q 805.01 282.36 821.02 282.17   Q 841.15 281.93 864.48 282.62   C 873.37 282.89 878.35 289.78 878.70 298.27   Q 878.89 302.87 878.87 316.34   Q 878.85 326.88 877.39 334.25   Q 870.39 369.32 838.24 386.88   Q 830.61 391.05 820.26 392.99   Q 808.60 395.19 807.19 395.68   Q 792.24 400.84 783.35 410.34   Q 774.56 419.73 771.14 430.35   C 767.12 442.86 767.51 458.03 766.55 468.37   Q 763.31 503.28 750.80 533.80   C 746.23 544.95 740.61 557.09 734.08 567.77   Q 704.63 615.90 659.31 645.82   Q 617.27 673.59 567.33 681.42   A 1.13 1.13 0.0 0 0 566.48 683.00   Q 575.34 702.61 581.52 718.25   C 586.09 729.83 582.11 741.05 568.17 741.11   Q 567.58 741.11 565.33 741.16   Q 540.14 741.74 521.46 737.76   Q 512.54 735.86 500.45 731.15   C 480.85 723.51 463.56 710.42 450.62 693.89   C 444.66 686.28 440.45 679.71 434.83 669.87   C 420.94 645.53 397.27 628.10 368.51 626.48   Q 359.30 625.96 345.50 625.94   Q 234.73 625.79 216.44 625.98   Q 202.20 626.12 196.16 624.78   Q 184.49 622.19 176.94 617.94   C 155.99 606.16 146.27 586.05 145.45 562.24   Q 144.86 545.17 146.64 526.98   Q 148.40 509.08 152.88 492.29   C 166.82 440.12 198.96 392.72 244.15 362.65   C 252.69 356.96 263.71 350.56 273.57 346.05   Q 297.18 335.24 322.03 330.16   Q 326.06 329.34 329.77 328.84   C 336.09 328.01 339.90 327.18 345.02 326.95   Q 346.83 326.87 352.50 326.28   Q 359.71 325.53 375.30 326.21   Q 384.39 326.60 403.29 329.54   Q 413.95 331.20 432.39 336.91   Q 446.53 341.28 460.15 348.32   Q 479.77 358.45 491.37 366.64   C 511.22 380.65 529.06 396.53 545.33 412.90   C 553.26 420.87 559.00 426.52 565.77 433.48   Q 584.40 452.63 606.63 473.87   C 619.19 485.87 635.44 496.56 652.22 501.08   Q 654.93 501.82 656.96 501.95   C 659.12 502.10 661.00 502.82 663.38 502.99   Q 688.19 504.69 705.15 488.32   Q 718.86 475.09 721.81 456.68   C 724.23 441.66 720.21 426.32 710.75 414.22   Q 700.06 400.55 682.83 395.54   C 678.34 394.23 672.18 393.57 667.73 392.51   Q 653.95 389.21 641.09 379.77   C 635.16 375.42 631.27 371.07 626.72 365.08   Q 613.86 348.19 612.20 326.57   Q 611.75 320.73 611.76 302.91   Q 611.77 293.51 613.36 290.67   Q 616.10 285.81 621.31 283.59   Q 624.09 282.41 631.87 282.39   C 645.56 282.35 662.65 282.00 678.74 282.89   Q 681.84 283.07 684.70 283.86   C 686.55 284.37 690.12 284.89 692.61 285.73   Q 716.11 293.56 730.62 313.18   C 738.03 323.20 742.23 334.77 744.66 346.82   Q 745.05 348.71 745.66 350.21   A 0.14 0.13 37.7 0 0 745.92 350.18   Z   M 377.6254 547.5608   A 14.76 14.25 -90.6 0 0 363.5308 562.4692   A 14.76 14.25 -90.6 0 0 377.9346 577.0792   A 14.76 14.25 -90.6 0 0 392.0292 562.1708   A 14.76 14.25 -90.6 0 0 377.6254 547.5608   Z"/>
<path xmlns="http://www.w3.org/2000/svg" fill="#0a0e0f" d="   M 192.65 642.71   L 196.47 643.86   A 2.52 2.30 -31.7 0 0 197.05 643.97   Q 205.61 644.45 206.94 644.33   C 211.16 643.95 217.13 644.31 222.66 644.34   Q 289.49 644.75 358.00 644.50   Q 360.27 644.49 366.13 644.83   C 390.58 646.22 410.17 661.00 420.83 682.62   A 0.31 0.31 0.0 0 1 420.61 683.06   Q 418.69 683.45 416.76 683.39   Q 409.05 683.12 401.31 683.21   C 385.97 683.37 366.55 683.33 327.10 683.30   Q 296.61 683.28 284.49 681.56   Q 249.25 676.56 219.89 661.83   Q 218.24 661.00 207.39 654.83   C 203.13 652.41 199.78 649.29 196.06 647.04   C 194.76 646.25 193.01 644.34 192.18 643.48   A 0.47 0.46 -13.7 0 1 192.65 642.71   Z"/>
</g></g></g></svg>