<svg xmlns="http://www.w3.org/2000/svg" direction="ltr" width="3381.6169405815417" height="1009" viewBox="12376.383139513884 7924.2844781771255 3381.6169405815417 1009" stroke-linecap="round" stroke-linejoin="round" data-color-mode="light" class="tl-container tl-theme__force-sRGB tl-theme__light" style="background-color: transparent;"><defs/><g transform="matrix(1, 0, 0, 1, 12376.3831, 7924.2845)" opacity="1"><g transform="scale(1.2756005056890012, 1.2756005056890012)"><g>
<g xmlns="http://www.w3.org/2000/svg" stroke-width="2.00" fill="none" stroke-linecap="butt">
<path stroke="#808080" vector-effect="non-scaling-stroke" d="   M 2148.38 354.22   Q 2148.38 354.83 2148.16 355.53   A 1.96 1.92 -37.3 0 0 2148.08 356.08   Q 2148.27 371.01 2148.08 385.43   C 2147.85 403.31 2148.09 418.62 2148.15 432.75   Q 2148.17 436.82 2147.97 443.24   Q 2147.69 452.18 2147.76 453.74   Q 2147.85 455.87 2149.03 456.08"/>
<path stroke="#808080" vector-effect="non-scaling-stroke" d="   M 2148.79 400.28   Q 2148.92 400.69 2148.88 401.22"/>
<path stroke="#808080" vector-effect="non-scaling-stroke" d="   M 2148.85 418.54   L 2148.88 419.50"/>
<path stroke="#808080" vector-effect="non-scaling-stroke" d="   M 2148.91 440.03   Q 2148.68 441.20 2149.36 440.41"/>
<path stroke="#808080" vector-effect="non-scaling-stroke" d="   M 956.11 307.54   L 956.17 308.52   A 0.25 0.25 0.0 0 0 956.63 308.65   Q 956.95 308.17 956.85 307.68   Q 955.50 301.16 954.72 295.12   A 3.18 2.95 29.6 0 0 954.41 294.14   Q 953.79 292.95 952.61 285.47   Q 952.33 283.66 950.21 278.41"/>
<path stroke="#808080" vector-effect="non-scaling-stroke" d="   M 955.81 173.88   Q 955.90 173.79 955.99 173.69   A 0.15 0.13 72.7 0 0 956.04 173.58   L 955.67 142.45"/>
<path stroke="#808080" vector-effect="non-scaling-stroke" d="   M 1111.50 507.08   Q 1112.60 478.61 1111.72 450.25"/>
<path stroke="#808080" vector-effect="non-scaling-stroke" d="   M 1111.18 405.80   C 1111.10 406.72 1111.22 407.46 1111.38 408.38   C 1111.45 405.81 1111.97 403.36 1112.02 400.75   Q 1112.37 383.62 1111.37 366.88   L 1111.37 366.87   Q 1111.37 366.97 1111.37 367.06   Q 1111.32 368.11 1110.75 368.85"/>
<path stroke="#808080" vector-effect="non-scaling-stroke" d="   M 1110.98 496.77   L 1110.88 494.78"/>
<path stroke="#808080" vector-effect="non-scaling-stroke" d="   M 1110.86 494.46   L 1110.86 492.54"/>
<path stroke="#808080" vector-effect="non-scaling-stroke" d="   M 1110.88 472.96   Q 1110.79 472.01 1111.04 471.29"/>
<path stroke="#808080" vector-effect="non-scaling-stroke" d="   M 1210.40 606.99   Q 1210.81 596.44 1209.77 585.86   A 0.21 0.21 0.0 0 0 1209.35 585.85   Q 1209.02 588.13 1209.18 590.76"/>
<path stroke="#808080" vector-effect="non-scaling-stroke" d="   M 1209.11 579.96   L 1209.19 585.34   A 0.07 0.07 0.0 0 0 1209.26 585.41   L 1209.63 585.41   A 0.38 0.38 0.0 0 0 1210.01 585.03   L 1210.01 558.18   A 0.35 0.35 0.0 0 0 1209.66 557.83   L 1209.39 557.83   A 0.15 0.15 0.0 0 0 1209.24 557.98   L 1209.09 565.96"/>
<path stroke="#808080" vector-effect="non-scaling-stroke" d="   M 1209.11 551.85   Q 1210.59 552.69 1209.76 549.27"/>
<path stroke="#808080" vector-effect="non-scaling-stroke" d="   M 1268.92 614.86   Q 1271.04 611.95 1271.42 608.92   C 1272.03 604.00 1272.48 598.22 1272.33 592.34   Q 1271.90 575.39 1271.92 571.12   Q 1271.96 563.18 1272.87 548.86"/>
<path stroke="#808080" vector-effect="non-scaling-stroke" d="   M 1271.07 582.71   L 1271.11 579.54"/>
<path stroke="#808080" vector-effect="non-scaling-stroke" d="   M 1271.12 579.21   L 1271.16 576.54"/>
<path stroke="#808080" vector-effect="non-scaling-stroke" d="   M 1209.14 574.96   L 1209.09 572.22"/>
<path stroke="#808080" vector-effect="non-scaling-stroke" d="   M 1209.45 596.76   L 1209.33 595.54"/>
<path stroke="#808080" vector-effect="non-scaling-stroke" d="   M 1209.47 549.32   L 1209.14 550.04"/>
<path stroke="#808080" vector-effect="non-scaling-stroke" d="   M 1166.36 548.07   Q 1164.66 548.80 1163.80 549.61   A 1.26 1.24 -20.2 0 0 1163.41 550.44   Q 1163.00 555.86 1162.97 561.50   Q 1162.85 583.27 1163.07 602.23   C 1163.11 605.23 1162.78 608.65 1162.59 611.28   Q 1162.03 619.13 1153.97 621.21"/>
<path stroke="#808080" vector-effect="non-scaling-stroke" d="   M 1123.49 632.21   Q 1122.55 630.10 1120.71 628.26"/>
<path stroke="#808080" vector-effect="non-scaling-stroke" d="   M 1121.33 626.33   L 1133.62 613.67"/>
<path stroke="#808080" vector-effect="non-scaling-stroke" d="   M 1138.74 615.90   Q 1138.33 616.51 1139.25 616.95"/>
<path stroke="#808080" vector-effect="non-scaling-stroke" d="   M 1362.48 640.22   Q 1363.65 640.36 1363.68 639.50   Q 1364.15 628.47 1363.74 621.75   Q 1363.21 613.03 1363.41 610.24   C 1364.18 599.60 1364.08 591.16 1363.42 581.42   Q 1362.89 573.56 1363.12 571.27   Q 1364.20 560.11 1363.78 548.70"/>
<path stroke="#808080" vector-effect="non-scaling-stroke" d="   M 98.52 656.58   Q 95.96 652.44 92.20 649.20   A 4.11 3.85 5.3 0 1 91.57 648.49   Q 89.33 645.24 88.05 643.66   Q 66.43 616.94 48.70 584.83   Q 45.56 579.14 42.24 572.89   C 41.07 570.70 40.48 568.28 39.53 566.45   Q 34.68 557.12 34.02 555.49   Q 31.77 549.90 31.41 549.44   A 2.80 2.77 -68.3 0 1 30.82 548.05   Q 30.68 546.97 30.06 545.41   Q 27.00 537.73 24.13 530.58   Q 20.35 521.15 17.43 511.68   A 5.43 4.97 36.2 0 1 17.24 510.73   Q 16.92 507.53 15.47 503.87   A 7.48 7.41 30.7 0 1 15.03 502.18   Q 14.66 499.49 14.03 497.87   C 12.35 493.51 11.78 488.47 10.15 484.81   A 4.51 4.51 0.0 0 1 9.79 483.37   Q 9.58 480.18 8.70 476.79   C 7.52 472.22 7.04 465.98 6.03 462.00   Q 5.12 458.44 4.85 454.46   C 4.41 447.81 2.33 440.22 2.34 433.15   Q 2.36 425.23 1.78 409.89   Q 1.35 398.07 1.58 386.62   Q 2.10 362.00 2.14 360.81   Q 2.46 351.76 3.27 347.84   Q 4.00 344.38 4.52 337.11   Q 4.84 332.59 6.63 326.06   Q 7.31 323.56 7.96 318.19   A 7.02 6.91 59.8 0 1 8.40 316.47   Q 9.96 312.51 9.94 308.80   A 5.26 5.25 -33.6 0 1 10.37 306.67   Q 11.57 303.90 12.66 299.22   Q 12.68 299.11 14.47 292.22   Q 16.22 285.43 18.00 278.92   Q 20.36 270.25 22.58 264.88   A 3.14 2.96 -32.0 0 0 22.78 264.12   C 23.04 262.06 24.09 260.54 24.80 258.64   Q 25.32 257.25 31.54 241.37   Q 32.87 237.98 36.60 230.49   Q 40.82 222.01 41.71 219.63   Q 43.24 215.56 53.89 196.38   Q 58.07 188.85 73.08 166.81   Q 81.27 154.79 98.46 134.68   Q 104.43 127.69 113.22 118.96   Q 127.23 105.04 128.58 103.83   Q 157.99 77.42 191.52 56.81   Q 200.48 51.30 212.36 45.22   Q 227.00 37.73 233.80 34.77   Q 243.78 30.42 246.69 29.01"/>
<path stroke="#808080" vector-effect="non-scaling-stroke" d="   M 395.56 588.47   Q 431.32 588.47 471.25 584.69   Q 498.74 582.08 521.83 577.55   C 528.34 576.27 535.16 574.24 540.06 572.28   C 559.39 564.55 571.07 548.51 582.12 531.12   C 617.62 475.28 644.51 414.70 669.03 353.26   Q 676.28 335.11 680.85 321.43   C 685.99 306.05 686.00 290.09 675.89 276.99   C 669.22 268.36 658.62 261.75 648.44 258.36   C 622.84 249.84 596.03 249.35 567.24 250.69   Q 541.23 251.91 513.38 256.69   A 2.01 2.01 0.0 0 1 511.53 256.03   C 482.14 222.57 440.40 202.29 395.56 202.29   C 350.73 202.29 308.98 222.56 279.59 256.03   A 2.01 2.01 0.0 0 1 277.74 256.69   Q 249.89 251.91 223.88 250.69   C 195.09 249.35 168.28 249.84 142.68 258.36   C 132.50 261.75 121.90 268.36 115.23 276.99   C 105.12 290.09 105.13 306.05 110.27 321.43   Q 114.84 335.11 122.09 353.26   C 146.61 414.70 173.50 475.28 209.00 531.12   C 220.05 548.51 231.72 564.55 251.05 572.28   C 255.95 574.24 262.77 576.27 269.28 577.55   Q 292.37 582.08 319.86 584.69   Q 359.79 588.47 395.56 588.47"/>
<path stroke="#808080" vector-effect="non-scaling-stroke" d="   M 1080.10 256.08   Q 1080.61 258.90 1080.13 261.80   A 0.22 0.21 -85.4 0 0 1080.34 262.05   L 1080.66 262.05   A 0.10 0.10 0.0 0 0 1080.76 261.96   L 1081.49 254.75"/>
<path stroke="#808080" vector-effect="non-scaling-stroke" d="   M 395.56 390.12   C 431.44 390.14 468.34 386.52 503.89 378.38   A 1.62 1.62 0.0 0 0 505.11 377.20   Q 507.66 367.78 508.73 357.50   C 514.24 304.56 477.45 258.52 428.39 243.36   Q 413.03 238.62 395.64 238.61   Q 378.25 238.60 362.89 243.33   C 313.81 258.43 276.97 304.43 282.42 357.37   Q 283.48 367.66 286.02 377.08   A 1.62 1.62 0.0 0 0 287.24 378.26   C 322.78 386.44 359.68 390.10 395.56 390.12"/>
<path stroke="#808080" vector-effect="non-scaling-stroke" d="   M 256.45 289.92   C 228.58 286.67 199.95 284.85 173.20 288.31   C 164.53 289.43 140.34 293.59 144.15 306.80   Q 145.21 310.47 146.73 312.43   Q 154.64 322.64 165.17 330.28   C 189.25 347.75 216.90 359.09 245.79 368.05   A 0.55 0.55 0.0 0 0 246.50 367.45   Q 240.72 327.40 256.83 290.59   A 0.48 0.48 0.0 0 0 256.45 289.92"/>
<path stroke="#808080" vector-effect="non-scaling-stroke" d="   M 534.81 290.05   A 0.48 0.48 0.0 0 0 534.43 290.72   Q 550.58 327.45 544.88 367.46   A 0.55 0.55 0.0 0 0 545.59 368.05   C 574.42 359.06 602.01 347.69 626.03 330.20   Q 636.54 322.55 644.42 312.34   Q 645.93 310.38 646.98 306.72   C 650.77 293.52 626.60 289.41 617.94 288.30   C 591.22 284.89 562.64 286.76 534.81 290.05"/>
<path stroke="#808080" vector-effect="non-scaling-stroke" d="   M 395.55 551.97   Q 432.97 551.98 469.50 548.19   Q 492.49 545.81 510.42 542.58   Q 522.18 540.47 527.32 537.91   Q 535.29 533.94 540.60 526.60   Q 554.32 507.63 566.43 486.17   Q 595.71 434.30 619.12 377.38   A 0.28 0.28 0.0 0 0 618.96 377.02   Q 618.79 376.96 618.54 377.09   Q 593.71 390.36 568.72 398.70   Q 535.49 409.79 504.52 415.80   C 467.88 422.91 432.00 426.34 395.58 426.33   C 359.16 426.32 323.28 422.89 286.64 415.76   Q 255.67 409.74 222.45 398.63   Q 197.46 390.28 172.63 377.00   Q 172.39 376.87 172.21 376.93   A 0.28 0.28 0.0 0 0 172.05 377.29   Q 195.44 434.22 224.70 486.10   Q 236.80 507.57 250.52 526.54   Q 255.82 533.89 263.79 537.86   Q 268.93 540.42 280.69 542.54   Q 298.62 545.77 321.61 548.16   Q 358.14 551.96 395.55 551.97"/>
<path stroke="#808080" vector-effect="non-scaling-stroke" d="   M 1209.3772 553.9600   A 0.79 0.27 -90.2 0 0 1209.1100 554.7509   A 0.79 0.27 -90.2 0 0 1209.3828 555.5400   A 0.79 0.27 -90.2 0 0 1209.6500 554.7491   A 0.79 0.27 -90.2 0 0 1209.3772 553.9600"/>
<path stroke="#808080" vector-effect="non-scaling-stroke" d="   M 1209.21 556.07   Q 1208.99 556.45 1209.05 556.69   A 0.30 0.30 0.0 0 0 1209.63 556.72   Q 1209.77 556.30 1209.72 556.14   A 0.28 0.28 0.0 0 0 1209.21 556.07"/>
</g>
<path xmlns="http://www.w3.org/2000/svg" fill="#000000" d="   M 401.78 0.00   Q 411.57 0.70 422.28 1.25   Q 431.03 1.69 435.66 2.33   C 441.60 3.16 446.83 3.57 453.44 4.66   Q 522.56 16.08 584.30 49.20   C 597.89 56.49 609.51 64.52 623.05 73.72   Q 633.44 80.80 651.25 95.77   Q 673.51 114.48 694.25 138.81   Q 697.34 142.44 700.93 147.00   Q 706.81 154.46 707.44 155.29   Q 721.26 173.26 731.39 190.78   C 734.29 195.79 737.80 199.72 739.80 204.67   C 742.04 210.24 746.34 215.93 748.49 221.03   Q 752.17 229.78 757.41 239.58   Q 758.10 240.88 760.00 246.88   C 762.07 253.39 763.63 257.35 766.76 265.62   C 769.29 272.26 770.63 278.96 772.74 285.23   Q 774.92 291.70 776.19 297.31   Q 781.07 318.90 782.53 330.95   Q 783.90 342.30 785.92 356.77   Q 786.40 360.22 786.42 364.76   Q 786.59 401.44 785.54 415.26   Q 784.50 428.81 783.56 446.02   Q 783.20 452.63 782.54 458.91   C 781.74 466.48 781.56 470.63 780.14 475.98   C 778.49 482.20 777.64 488.86 775.54 495.83   Q 772.08 507.34 770.37 513.86   C 767.83 523.49 763.22 533.09 760.45 541.99   Q 758.68 547.67 756.08 552.80   C 752.69 559.49 748.84 568.95 744.90 575.76   Q 742.69 579.59 740.74 584.01   Q 739.55 586.70 736.25 592.09   Q 724.06 612.00 712.43 628.31   Q 708.11 634.37 704.25 638.91   C 700.23 643.63 697.19 648.00 692.97 652.76   Q 676.14 671.78 658.38 688.23   Q 652.14 694.01 644.96 699.52   C 638.52 704.47 633.05 709.34 626.44 713.86   Q 599.72 732.14 593.51 735.74   Q 569.09 749.90 546.48 758.71   C 535.48 763.00 529.37 765.52 520.24 768.69   Q 474.54 784.58 425.47 788.85   Q 402.24 790.88 378.49 789.88   C 347.58 788.60 316.34 784.50 285.72 775.26   Q 232.68 759.25 191.38 734.06   C 156.47 712.78 125.28 687.35 98.52 656.58   Q 95.96 652.44 92.20 649.20   A 4.11 3.85 5.3 0 1 91.57 648.49   Q 89.33 645.24 88.05 643.66   Q 66.43 616.94 48.70 584.83   Q 45.56 579.14 42.24 572.89   C 41.07 570.70 40.48 568.28 39.53 566.45   Q 34.68 557.12 34.02 555.49   Q 31.77 549.90 31.41 549.44   A 2.80 2.77 -68.3 0 1 30.82 548.05   Q 30.68 546.97 30.06 545.41   Q 27.00 537.73 24.13 530.58   Q 20.35 521.15 17.43 511.68   A 5.43 4.97 36.2 0 1 17.24 510.73   Q 16.92 507.53 15.47 503.87   A 7.48 7.41 30.7 0 1 15.03 502.18   Q 14.66 499.49 14.03 497.87   C 12.35 493.51 11.78 488.47 10.15 484.81   A 4.51 4.51 0.0 0 1 9.79 483.37   Q 9.58 480.18 8.70 476.79   C 7.52 472.22 7.04 465.98 6.03 462.00   Q 5.12 458.44 4.85 454.46   C 4.41 447.81 2.33 440.22 2.34 433.15   Q 2.36 425.23 1.78 409.89   Q 1.35 398.07 1.58 386.62   Q 2.10 362.00 2.14 360.81   Q 2.46 351.76 3.27 347.84   Q 4.00 344.38 4.52 337.11   Q 4.84 332.59 6.63 326.06   Q 7.31 323.56 7.96 318.19   A 7.02 6.91 59.8 0 1 8.40 316.47   Q 9.96 312.51 9.94 308.80   A 5.26 5.25 -33.6 0 1 10.37 306.67   Q 11.57 303.90 12.66 299.22   Q 12.68 299.11 14.47 292.22   Q 16.22 285.43 18.00 278.92   Q 20.36 270.25 22.58 264.88   A 3.14 2.96 -32.0 0 0 22.78 264.12   C 23.04 262.06 24.09 260.54 24.80 258.64   Q 25.32 257.25 31.54 241.37   Q 32.87 237.98 36.60 230.49   Q 40.82 222.01 41.71 219.63   Q 43.24 215.56 53.89 196.38   Q 58.07 188.85 73.08 166.81   Q 81.27 154.79 98.46 134.68   Q 104.43 127.69 113.22 118.96   Q 127.23 105.04 128.58 103.83   Q 157.99 77.42 191.52 56.81   Q 200.48 51.30 212.36 45.22   Q 227.00 37.73 233.80 34.77   Q 243.78 30.42 246.69 29.01   C 277.60 16.13 311.75 7.35 343.59 3.15   Q 350.74 2.21 363.00 1.58   Q 375.95 0.92 388.89 0.00   L 401.78 0.00   Z   M 395.56 588.47   Q 431.32 588.47 471.25 584.69   Q 498.74 582.08 521.83 577.55   C 528.34 576.27 535.16 574.24 540.06 572.28   C 559.39 564.55 571.07 548.51 582.12 531.12   C 617.62 475.28 644.51 414.70 669.03 353.26   Q 676.28 335.11 680.85 321.43   C 685.99 306.05 686.00 290.09 675.89 276.99   C 669.22 268.36 658.62 261.75 648.44 258.36   C 622.84 249.84 596.03 249.35 567.24 250.69   Q 541.23 251.91 513.38 256.69   A 2.01 2.01 0.0 0 1 511.53 256.03   C 482.14 222.57 440.40 202.29 395.56 202.29   C 350.73 202.29 308.98 222.56 279.59 256.03   A 2.01 2.01 0.0 0 1 277.74 256.69   Q 249.89 251.91 223.88 250.69   C 195.09 249.35 168.28 249.84 142.68 258.36   C 132.50 261.75 121.90 268.36 115.23 276.99   C 105.12 290.09 105.13 306.05 110.27 321.43   Q 114.84 335.11 122.09 353.26   C 146.61 414.70 173.50 475.28 209.00 531.12   C 220.05 548.51 231.72 564.55 251.05 572.28   C 255.95 574.24 262.77 576.27 269.28 577.55   Q 292.37 582.08 319.86 584.69   Q 359.79 588.47 395.56 588.47   Z"/>
<path xmlns="http://www.w3.org/2000/svg" fill="#ffffff" d="   M 246.69 29.01   Q 243.78 30.42 233.80 34.77   Q 227.00 37.73 212.36 45.22   Q 200.48 51.30 191.52 56.81   Q 157.99 77.42 128.58 103.83   Q 127.23 105.04 113.22 118.96   Q 104.43 127.69 98.46 134.68   Q 81.27 154.79 73.08 166.81   Q 58.07 188.85 53.89 196.38   Q 43.24 215.56 41.71 219.63   Q 40.82 222.01 36.60 230.49   Q 32.87 237.98 31.54 241.37   Q 25.32 257.25 24.80 258.64   C 24.09 260.54 23.04 262.06 22.78 264.12   A 3.14 2.96 -32.0 0 1 22.58 264.88   Q 20.36 270.25 18.00 278.92   Q 16.22 285.43 14.47 292.22   Q 12.68 299.11 12.66 299.22   Q 11.57 303.90 10.37 306.67   A 5.26 5.25 -33.6 0 0 9.94 308.80   Q 9.96 312.51 8.40 316.47   A 7.02 6.91 59.8 0 0 7.96 318.19   Q 7.31 323.56 6.63 326.06   Q 4.84 332.59 4.52 337.11   Q 4.00 344.38 3.27 347.84   Q 2.46 351.76 2.14 360.81   Q 2.10 362.00 1.58 386.62   Q 1.35 398.07 1.78 409.89   Q 2.36 425.23 2.34 433.15   C 2.33 440.22 4.41 447.81 4.85 454.46   Q 5.12 458.44 6.03 462.00   C 7.04 465.98 7.52 472.22 8.70 476.79   Q 9.58 480.18 9.79 483.37   A 4.51 4.51 0.0 0 0 10.15 484.81   C 11.78 488.47 12.35 493.51 14.03 497.87   Q 14.66 499.49 15.03 502.18   A 7.48 7.41 30.7 0 0 15.47 503.87   Q 16.92 507.53 17.24 510.73   A 5.43 4.97 36.2 0 0 17.43 511.68   Q 20.35 521.15 24.13 530.58   Q 27.00 537.73 30.06 545.41   Q 30.68 546.97 30.82 548.05   A 2.80 2.77 -68.3 0 0 31.41 549.44   Q 31.77 549.90 34.02 555.49   Q 34.68 557.12 39.53 566.45   C 40.48 568.28 41.07 570.70 42.24 572.89   Q 45.56 579.14 48.70 584.83   Q 66.43 616.94 88.05 643.66   Q 89.33 645.24 91.57 648.49   A 4.11 3.85 5.3 0 0 92.20 649.20   Q 95.96 652.44 98.52 656.58   Q 94.54 652.48 90.93 648.07   Q 73.56 626.84 58.59 603.26   C 52.71 594.00 49.24 587.17 43.65 577.21   C 40.75 572.06 39.70 567.83 36.80 562.88   C 32.95 556.32 30.38 549.86 28.40 543.44   Q 27.35 540.03 25.58 536.33   Q 23.06 531.05 19.00 519.16   Q 16.38 511.46 16.42 510.79   A 2.57 2.52 -57.5 0 0 16.13 509.42   Q 15.09 507.45 14.09 501.64   Q 13.93 500.69 12.65 497.49   A 10.76 10.65 -60.3 0 1 12.04 495.22   Q 11.54 491.98 10.76 489.98   C 9.20 485.98 9.03 482.33 7.71 478.06   C 6.83 475.21 6.70 472.41 6.49 469.75   A 8.06 7.28 37.7 0 0 6.24 468.36   Q 4.07 460.47 3.99 452.40   A 7.11 6.93 39.5 0 0 3.85 451.11   Q 1.50 439.63 1.44 434.50   C 1.32 422.48 0.52 409.99 0.58 398.14   Q 0.68 376.76 1.67 350.75   Q 1.89 345.15 3.40 340.22   A 7.39 7.37 56.2 0 0 3.69 338.75   C 4.11 333.79 4.05 330.53 5.05 326.83   C 6.40 321.81 6.72 317.05 8.21 312.31   Q 9.05 309.65 9.65 305.31   A 2.86 2.28 65.2 0 1 9.79 304.74   L 11.40 300.20   A 2.37 2.16 60.7 0 0 11.52 299.68   Q 12.05 294.97 13.80 290.59   A 9.42 8.99 -30.3 0 0 14.35 288.68   Q 15.01 285.00 15.37 284.10   Q 17.52 278.84 17.52 276.87   A 3.38 3.29 -33.3 0 1 17.83 275.47   C 19.19 272.50 19.61 269.22 20.85 265.97   Q 24.98 255.11 25.50 253.96   Q 27.91 248.58 29.73 243.09   C 31.60 237.44 33.83 233.69 37.27 227.28   C 39.04 223.97 40.71 218.48 42.82 214.71   Q 47.81 205.80 51.19 199.05   C 53.84 193.75 57.20 189.49 60.24 184.34   Q 63.12 179.45 66.36 175.16   C 69.27 171.30 71.36 166.99 74.62 162.95   C 78.72 157.90 81.86 153.16 85.79 148.31   Q 117.32 109.38 157.30 79.32   Q 163.86 74.39 177.54 65.35   Q 210.26 43.71 246.69 29.01   Z"/>
<path xmlns="http://www.w3.org/2000/svg" fill="#000000" d="   M 2148.38 354.22   Q 2148.38 354.83 2148.16 355.53   A 1.96 1.92 -37.3 0 0 2148.08 356.08   Q 2148.27 371.01 2148.08 385.43   C 2147.85 403.31 2148.09 418.62 2148.15 432.75   Q 2148.17 436.82 2147.97 443.24   Q 2147.69 452.18 2147.76 453.74   Q 2147.85 455.87 2149.03 456.08   Q 2151.57 456.47 2154.50 456.46   Q 2163.81 456.42 2183.24 456.14   Q 2185.37 456.11 2190.30 457.47   A 0.70 0.70 0.0 0 1 2190.82 458.15   L 2190.82 497.33   A 1.02 1.01 -8.5 0 1 2190.10 498.30   Q 2186.88 499.27 2183.00 499.24   Q 2164.78 499.05 2146.50 499.10   Q 1995.32 499.52 1820.02 499.18   C 1815.81 499.17 1810.60 500.12 1807.74 499.71   A 0.90 0.89 14.9 0 1 1807.03 498.50   Q 1807.38 497.61 1807.38 496.22   C 1807.32 479.34 1807.69 469.41 1806.81 458.99   Q 1806.59 456.36 1809.50 456.40   Q 1831.54 456.65 1849.47 456.16   A 1.02 1.01 -18.1 0 0 1850.28 454.57   Q 1849.57 453.54 1849.52 451.75   Q 1848.56 414.67 1849.79 381.17   C 1850.04 374.52 1849.71 367.72 1850.03 362.59   A 2.03 2.02 -83.9 0 0 1848.32 360.46   C 1844.86 359.93 1842.86 358.54 1841.15 355.22   C 1839.06 351.15 1837.64 347.78 1835.61 345.01   C 1833.81 342.57 1832.09 340.36 1830.50 337.67   C 1826.93 331.60 1824.39 329.34 1818.30 323.65   A 0.48 0.48 0.0 0 1 1818.50 322.84   Q 1822.04 321.86 1845.27 316.04   Q 1867.73 310.41 1887.87 299.96   C 1900.30 293.51 1911.00 285.29 1919.60 275.12   C 1925.78 267.80 1928.04 262.23 1932.73 251.70   A 0.73 0.63 -14.2 0 1 1932.87 251.50   L 1933.31 251.04   A 0.98 0.97 -66.7 0 0 1932.66 249.39   Q 1914.62 248.49 1893.26 249.16   Q 1890.45 249.25 1888.44 247.44   A 1.66 1.63 24.1 0 1 1887.90 246.06   L 1888.76 236.77   A 0.51 0.51 0.0 0 0 1888.44 236.24   Q 1885.10 234.88 1881.32 236.52   A 1.18 1.16 -83.7 0 0 1880.83 236.92   L 1879.08 239.39   A 2.75 2.59 -3.5 0 1 1878.64 239.86   C 1873.91 243.75 1871.08 246.73 1866.90 249.26   Q 1862.78 251.75 1854.12 257.46   C 1849.13 260.75 1844.39 262.97 1839.30 266.05   Q 1838.70 266.41 1835.00 267.01   C 1830.02 267.83 1829.74 264.61 1827.59 261.62   Q 1819.35 250.21 1808.51 239.01   Q 1804.68 235.06 1801.53 233.19   A 0.37 0.37 0.0 0 1 1801.54 232.54   C 1808.04 228.97 1814.63 225.92 1820.39 222.67   Q 1878.19 190.09 1920.01 138.10   C 1922.56 134.93 1922.13 131.36 1928.07 132.86   C 1932.68 134.03 1936.83 135.97 1941.06 137.50   Q 1955.98 142.89 1965.13 146.42   Q 1968.14 147.58 1970.89 149.38   A 0.56 0.55 34.7 0 1 1971.04 150.16   Q 1956.13 170.73 1944.89 182.39   Q 1932.89 194.86 1920.14 207.41   A 0.68 0.68 0.0 0 0 1920.62 208.58   Q 2003.12 208.47 2068.75 208.64   Q 2071.13 208.65 2073.79 208.11   A 0.23 0.22 -34.2 0 0 2073.87 207.70   C 2070.39 205.53 2065.73 201.78 2062.77 198.59   C 2055.95 191.27 2047.03 182.68 2040.23 174.65   Q 2029.28 161.71 2019.32 148.05   A 0.80 0.80 0.0 0 1 2019.62 146.86   Q 2029.75 141.97 2041.73 137.73   Q 2049.47 135.00 2057.18 130.97   Q 2059.48 129.77 2062.06 130.80   A 1.58 1.55 80.8 0 1 2062.70 131.27   Q 2077.80 149.57 2084.08 155.69   Q 2119.66 190.36 2164.57 210.90   Q 2177.26 216.70 2190.99 222.01   Q 2192.38 222.54 2193.46 223.57   A 0.52 0.51 46.1 0 1 2193.45 224.33   Q 2183.77 232.99 2175.38 243.87   C 2172.99 246.97 2171.12 250.59 2168.70 254.08   C 2167.07 256.43 2165.64 259.59 2164.56 262.05   A 1.70 1.70 0.0 0 1 2162.49 262.98   Q 2148.25 258.37 2136.66 251.20   C 2129.77 246.93 2124.62 244.48 2117.42 240.31   Q 2114.84 238.82 2114.23 238.03   C 2112.53 235.84 2108.51 232.28 2106.09 235.53   A 1.27 1.27 0.0 0 0 2105.87 236.59   C 2106.49 239.24 2105.14 243.36 2105.09 246.47   Q 2104.79 263.69 2102.52 289.61   C 2102.04 295.11 2100.80 297.99 2100.10 302.91   Q 2099.81 304.94 2098.68 308.09   C 2093.71 321.96 2082.37 329.67 2068.29 332.78   C 2047.95 337.29 2028.81 335.58 2009.02 335.57   Q 2006.35 335.57 2005.09 334.89   A 0.45 0.44 8.6 0 1 2004.86 334.58   L 2001.92 319.04   A 5.16 5.14 28.2 0 0 2001.62 318.05   Q 2000.24 314.76 1996.09 304.15   Q 1994.43 299.89 1991.64 296.70   A 0.68 0.67 -33.8 0 1 1991.85 295.66   C 1994.77 294.20 1997.64 294.89 2001.75 295.46   Q 2004.74 295.87 2007.26 295.97   Q 2027.37 296.71 2028.00 296.71   C 2037.37 296.76 2053.35 297.13 2053.82 283.40   C 2053.94 279.83 2053.86 274.65 2054.62 271.39   C 2055.25 268.64 2055.88 265.93 2055.98 263.18   Q 2056.30 253.92 2056.38 253.07   A 3.77 3.76 -32.8 0 1 2056.60 252.06   L 2056.77 251.62   A 1.39 1.39 0.0 0 0 2055.69 249.76   Q 2050.89 248.98 2048.25 248.99   Q 2022.91 249.10 1993.25 248.86   Q 1991.91 248.85 1987.32 249.32   C 1985.60 249.50 1984.39 251.35 1983.84 253.07   Q 1981.30 260.92 1979.72 265.01   Q 1972.51 283.68 1959.67 299.21   Q 1954.28 305.73 1949.38 310.87   Q 1946.83 313.55 1936.72 321.77   Q 1930.46 326.87 1922.99 331.23   C 1913.82 336.58 1905.37 341.11 1896.16 344.50   C 1891.76 346.12 1887.95 348.56 1883.76 349.59   A 0.34 0.34 0.0 0 0 1883.70 350.23   Q 1885.19 350.93 1886.51 350.95   C 1901.98 351.09 1916.74 351.41 1929.51 351.33   C 1976.88 351.01 2029.18 351.52 2082.33 351.22   Q 2111.60 351.06 2140.50 351.04   Q 2145.26 351.04 2147.98 352.24   Q 2149.35 352.84 2148.38 354.22   Z   M 1898.54 456.31   L 1932.82 456.43   A 1.92 1.92 0.0 0 0 1934.74 454.52   L 1934.95 395.08   A 3.86 2.56 -89.8 0 0 1932.40 391.21   L 1899.40 391.09   A 3.86 2.56 -89.8 0 0 1896.83 394.94   L 1896.62 454.38   A 1.92 1.92 0.0 0 0 1898.54 456.31   Z   M 2016.75 391.68   Q 2013.94 391.16 2008.28 391.15   Q 1997.00 391.12 1985.26 391.01   Q 1983.13 390.99 1980.93 391.82   A 2.17 2.16 76.6 0 0 1979.54 394.08   C 1979.82 396.75 1979.18 398.90 1979.12 401.69   C 1978.72 419.81 1978.97 431.85 1979.08 447.52   C 1979.10 449.64 1977.82 452.51 1978.96 454.52   A 1.66 1.66 0.0 0 0 1979.67 455.20   Q 1982.39 456.53 1984.25 456.50   Q 2000.15 456.23 2016.81 456.57   A 1.26 1.26 0.0 0 0 2018.09 455.28   Q 2017.35 426.96 2017.82 398.01   Q 2017.88 394.38 2017.39 392.29   A 0.80 0.79 88.3 0 0 2016.75 391.68   Z   M 2100.30 393.12   A 0.81 0.80 8.0 0 0 2099.67 392.29   Q 2096.86 391.69 2094.98 391.58   Q 2092.21 391.43 2067.26 391.27   Q 2064.00 391.25 2062.34 393.16   A 1.67 1.65 -24.6 0 0 2061.93 394.25   Q 2062.10 423.27 2061.92 446.14   C 2061.89 448.95 2061.19 451.56 2061.28 453.59   A 1.47 1.45 20.0 0 0 2061.78 454.64   Q 2063.70 456.31 2067.98 456.33   Q 2094.10 456.45 2098.95 456.28   A 1.88 1.88 0.0 0 0 2100.75 454.18   Q 2100.09 448.69 2099.94 443.62   Q 2099.16 417.44 2100.30 393.12   Z"/>
<path xmlns="http://www.w3.org/2000/svg" fill="#000000" d="   M 1354.47 285.63   Q 1364.83 274.13 1369.36 268.36   Q 1384.19 249.47 1392.49 237.25   Q 1397.87 229.33 1397.95 229.22   C 1402.32 223.13 1404.94 218.18 1408.77 212.26   Q 1412.59 206.35 1415.70 200.32   C 1418.58 194.74 1421.74 190.31 1424.68 184.20   Q 1426.35 180.74 1430.82 172.09   C 1433.01 167.86 1434.30 163.44 1436.32 159.17   Q 1442.04 147.12 1446.22 135.13   A 1.62 1.61 -81.7 0 1 1447.67 134.04   Q 1451.39 133.85 1454.37 134.90   Q 1463.57 138.16 1488.03 145.85   C 1489.72 146.38 1491.62 147.30 1493.37 148.15   A 0.81 0.80 -61.0 0 1 1493.70 149.31   C 1491.63 152.56 1490.77 156.56 1488.96 159.50   Q 1485.61 164.92 1482.80 171.81   Q 1480.26 178.04 1477.11 184.35   Q 1464.16 210.33 1459.93 219.15   Q 1457.05 225.13 1457.08 233.61   Q 1457.18 264.06 1457.05 295.86   Q 1457.01 305.61 1456.83 307.62   C 1456.35 313.07 1456.95 318.57 1456.94 323.30   Q 1456.87 361.57 1456.89 392.50   Q 1456.92 429.38 1457.31 439.00   Q 1457.37 440.42 1457.38 442.43   A 8.82 8.23 40.1 0 0 1457.60 444.26   Q 1458.76 449.30 1458.54 454.81   A 5.16 5.03 -37.9 0 1 1458.41 455.76   Q 1457.16 460.75 1457.23 464.26   Q 1457.51 477.27 1457.13 494.00   Q 1457.09 495.69 1457.75 502.28   A 0.84 0.83 73.4 0 1 1457.31 503.11   Q 1456.12 503.73 1454.27 503.78   Q 1438.08 504.27 1426.00 503.80   Q 1421.76 503.64 1414.76 504.06   Q 1413.01 504.17 1410.98 503.39   A 0.66 0.65 20.1 0 1 1410.59 502.56   Q 1410.93 501.60 1410.94 499.33   Q 1411.19 455.38 1410.90 312.99   C 1410.89 308.49 1411.46 304.34 1412.51 300.72   A 1.24 1.24 0.0 0 0 1411.35 299.14   Q 1407.48 299.06 1404.96 300.69   A 2.37 2.35 -1.4 0 0 1404.22 301.46   Q 1397.47 313.15 1388.24 321.99   Q 1385.81 324.31 1384.76 327.44   Q 1384.55 328.06 1384.01 328.66   Q 1381.43 331.54 1378.95 328.88   A 2.35 2.21 -81.9 0 1 1378.64 328.44   Q 1375.82 323.40 1373.57 317.93   C 1369.96 309.17 1365.72 303.63 1359.66 293.96   C 1358.29 291.79 1356.37 289.35 1354.42 286.74   A 0.88 0.87 -42.8 0 1 1354.47 285.63   Z"/>
<path xmlns="http://www.w3.org/2000/svg" fill="#000000" d="   M 956.11 307.54   L 956.17 308.52   A 0.25 0.25 0.0 0 0 956.63 308.65   Q 956.95 308.17 956.85 307.68   Q 955.50 301.16 954.72 295.12   A 3.18 2.95 29.6 0 0 954.41 294.14   Q 953.79 292.95 952.61 285.47   Q 952.33 283.66 950.21 278.41   Q 951.89 277.83 953.40 277.42   Q 955.03 276.97 956.68 276.86   Q 965.17 276.32 973.75 275.81   Q 978.16 275.55 980.55 274.30   A 0.46 0.45 -14.4 0 0 980.79 273.90   L 980.79 175.30   A 0.71 0.70 -80.9 0 0 980.31 174.63   Q 977.61 173.70 976.50 173.72   Q 966.36 173.89 956.57 174.11   Q 956.08 174.12 955.81 173.88   Q 955.90 173.79 955.99 173.69   A 0.15 0.13 72.7 0 0 956.04 173.58   L 955.67 142.45   L 1143.48 142.39   A 0.85 0.85 0.0 0 1 1144.32 143.40   Q 1143.80 146.24 1143.81 148.82   A 8.35 8.34 -40.2 0 1 1143.69 150.23   Q 1141.88 160.73 1142.09 171.11   A 2.24 2.23 86.9 0 1 1140.05 173.39   L 1124.30 174.76   A 1.30 1.29 1.4 0 0 1123.13 175.87   L 1122.18 182.94   A 16.24 15.93 -44.4 0 0 1122.11 186.56   Q 1122.92 195.39 1122.44 201.79   Q 1122.29 203.77 1122.56 208.20   C 1122.82 212.40 1121.59 216.88 1121.85 220.81   C 1122.04 223.52 1122.36 225.92 1122.46 229.15   Q 1122.95 245.59 1122.31 259.00   A 1.70 1.69 12.3 0 0 1123.38 260.66   Q 1124.64 261.16 1126.88 261.11   Q 1133.74 260.96 1140.75 260.49   Q 1141.44 260.45 1143.30 260.87   A 0.48 0.48 0.0 0 1 1143.64 261.53   Q 1141.62 266.12 1141.84 270.93   A 2.74 2.68 -38.3 0 1 1141.71 271.93   Q 1141.12 273.72 1141.34 276.01   Q 1142.00 282.82 1141.90 288.21   A 1.60 1.59 -11.3 0 1 1140.94 289.64   C 1137.33 291.22 1133.99 291.49 1127.33 292.56   Q 1125.16 292.91 1123.57 294.16   A 1.00 0.99 -18.9 0 0 1123.18 294.95   L 1123.18 313.07   A 0.55 0.54 -2.3 0 1 1122.67 313.61   Q 1116.59 314.02 1110.76 313.94   Q 1097.81 313.75 1081.40 313.45   A 0.99 0.99 0.0 0 1 1080.66 311.82   L 1081.18 311.25   A 0.76 0.75 65.7 0 0 1081.36 310.76   L 1081.36 302.59   A 1.00 0.90 60.4 0 1 1081.45 302.18   L 1082.04 300.75   A 1.05 1.05 0.0 0 0 1081.10 299.29   Q 1075.66 299.16 1069.29 299.89   Q 1017.81 305.78 972.00 309.82   Q 965.56 310.39 959.75 310.46   Q 958.28 310.48 956.47 310.11   A 0.63 0.63 0.0 0 1 955.97 309.45   L 956.11 307.54   Z   M 1081.1492 176.7603   A 2.70 2.70 0.0 0 0 1078.4540 174.0556   L 1026.2340 173.9644   A 2.70 2.70 0.0 0 0 1023.5293 176.6597   L 1023.5108 187.2997   A 2.70 2.70 0.0 0 0 1026.2060 190.0044   L 1078.4260 190.0956   A 2.70 2.70 0.0 0 0 1081.1307 187.4003   L 1081.1492 176.7603   Z   M 1080.77 228.31   L 1080.81 214.79   A 0.99 0.99 0.0 0 0 1079.83 213.80   L 1027.97 213.62   A 4.65 3.94 0.2 0 0 1023.30 217.54   L 1023.28 225.16   A 4.65 3.94 0.2 0 0 1027.91 229.12   L 1079.77 229.30   A 0.99 0.99 0.0 0 0 1080.77 228.31   Z   M 1080.10 256.08   Q 1080.61 258.90 1080.13 261.80   A 0.22 0.21 -85.4 0 0 1080.34 262.05   L 1080.66 262.05   A 0.10 0.10 0.0 0 0 1080.76 261.96   L 1081.49 254.75   Q 1081.77 254.57 1081.36 254.08   A 1.09 1.07 -14.3 0 0 1080.72 253.71   Q 1074.93 252.77 1069.00 252.70   Q 1048.99 252.49 1028.24 252.67   Q 1025.73 252.69 1024.02 254.11   A 1.14 1.13 -22.4 0 0 1023.61 255.08   Q 1023.98 259.48 1023.11 267.45   Q 1023.02 268.34 1022.49 269.38   A 1.03 1.03 0.0 0 0 1022.99 270.79   Q 1025.67 271.99 1028.08 271.78   Q 1046.17 270.27 1078.56 266.91   A 1.65 1.65 0.0 0 0 1080.04 265.28   L 1080.10 256.08   Z"/>
<path xmlns="http://www.w3.org/2000/svg" fill="#ffffff" d="   M 955.67 142.45   L 956.04 173.58   A 0.15 0.13 72.7 0 1 955.99 173.69   Q 955.90 173.79 955.81 173.88   Q 955.08 174.03 955.08 173.56   Q 954.83 158.09 955.67 142.45   Z"/>
<path xmlns="http://www.w3.org/2000/svg" fill="#000000" d="   M 1643.05 280.53   Q 1643.85 282.91 1643.75 284.50   Q 1643.43 289.56 1643.51 296.26   C 1643.57 302.01 1642.98 307.73 1642.60 311.30   A 1.86 1.86 0.0 0 0 1643.95 313.29   Q 1645.27 313.66 1647.43 313.66   Q 1706.64 313.79 1744.75 313.58   Q 1748.73 313.56 1752.61 314.48   A 2.00 2.00 0.0 0 1 1754.15 316.52   Q 1753.53 330.76 1753.49 331.71   C 1753.23 337.72 1753.90 342.87 1754.13 349.28   A 2.19 1.99 -56.2 0 0 1754.19 349.69   L 1754.80 352.28   A 2.14 2.14 0.0 0 1 1753.53 354.74   C 1750.15 356.12 1746.84 356.07 1742.92 356.07   Q 1694.48 356.15 1644.48 356.14   A 1.39 1.39 0.0 0 0 1643.12 357.82   L 1643.51 359.63   A 0.96 0.66 -61.3 0 1 1643.53 359.82   Q 1643.61 372.20 1641.84 387.74   C 1641.03 394.87 1642.61 402.78 1642.77 409.80   Q 1643.11 424.48 1642.50 445.10   Q 1642.29 452.47 1642.55 460.40   C 1642.90 471.43 1643.62 479.97 1643.30 488.80   Q 1643.01 496.67 1643.62 501.68   A 1.38 1.37 81.8 0 1 1642.49 503.20   Q 1637.18 504.10 1631.26 504.07   Q 1624.60 504.04 1599.19 503.86   Q 1597.05 503.84 1593.91 503.07   A 1.84 1.84 0.0 0 1 1592.51 501.32   Q 1592.20 486.86 1592.36 459.56   Q 1592.42 450.78 1592.91 394.57   Q 1592.94 391.25 1594.17 388.46   A 1.79 1.77 45.7 0 0 1594.18 387.07   L 1592.94 384.11   A 1.45 1.41 -60.0 0 1 1592.83 383.67   Q 1592.09 370.31 1592.53 358.78   Q 1592.55 358.44 1592.90 357.44   A 1.17 1.16 9.3 0 0 1591.78 355.89   Q 1543.01 356.54 1486.27 356.08   C 1483.80 356.06 1482.16 354.40 1482.58 351.85   C 1482.94 349.60 1483.24 347.13 1483.22 344.72   Q 1483.08 327.85 1483.24 316.76   A 1.99 1.99 0.0 0 1 1484.37 315.00   Q 1486.15 314.15 1488.50 314.04   Q 1496.15 313.69 1512.25 313.67   Q 1514.05 313.66 1592.19 313.88   A 1.22 1.21 84.2 0 0 1593.38 312.41   L 1592.80 309.62   A 1.74 1.56 41.8 0 1 1592.76 309.26   L 1592.63 280.19   A 1.09 1.09 0.0 0 0 1591.54 279.10   L 1508.84 279.10   A 1.35 1.35 0.0 0 1 1507.49 277.77   Q 1506.76 224.34 1508.10 175.32   Q 1508.34 166.48 1508.09 161.69   Q 1507.78 155.64 1507.59 148.06   A 0.78 0.78 0.0 0 1 1508.17 147.28   Q 1512.07 146.24 1516.08 146.24   Q 1704.84 146.40 1724.75 146.25   Q 1726.96 146.23 1728.00 147.50   A 1.35 1.32 26.0 0 1 1728.30 148.34   C 1728.38 164.38 1728.14 173.05 1728.50 187.11   Q 1728.71 195.68 1728.18 206.35   Q 1727.67 216.52 1727.77 228.17   Q 1727.97 249.28 1728.02 250.00   Q 1728.33 254.66 1727.47 263.50   Q 1726.82 270.26 1727.36 277.84   A 1.06 1.06 0.0 0 1 1726.30 278.97   L 1644.17 278.97   A 1.18 1.18 0.0 0 0 1643.05 280.53   Z   M 1680.4684 190.5186   A 2.70 2.70 0.0 0 0 1677.7731 187.8139   L 1558.7333 187.6062   A 2.70 2.70 0.0 0 0 1556.0286 190.3014   L 1555.9516 234.4214   A 2.70 2.70 0.0 0 0 1558.6469 237.1261   L 1677.6867 237.3338   A 2.70 2.70 0.0 0 0 1680.3914 234.6386   L 1680.4684 190.5186   Z"/>
<path xmlns="http://www.w3.org/2000/svg" fill="#000000" d="   M 1144.75 272.06   Q 1145.85 271.88 1146.20 271.69   C 1149.55 269.77 1153.05 269.07 1156.97 267.42   Q 1161.20 265.63 1174.51 259.79   C 1181.75 256.61 1188.50 252.75 1194.51 249.03   Q 1195.42 248.47 1197.17 246.33   A 0.62 0.62 0.0 0 0 1197.13 245.49   Q 1195.67 244.07 1194.38 243.40   Q 1181.00 236.41 1151.99 220.68   A 0.41 0.40 36.5 0 1 1151.89 220.04   Q 1155.14 216.68 1157.62 214.50   C 1162.39 210.30 1166.73 203.45 1170.76 200.09   Q 1171.64 199.36 1172.95 197.22   Q 1174.82 194.15 1178.74 195.78   C 1188.42 199.82 1192.90 201.34 1200.56 205.54   Q 1205.07 208.01 1223.98 217.26   Q 1226.43 218.46 1228.01 218.60   A 2.41 2.32 -51.5 0 0 1228.99 218.47   Q 1233.63 216.78 1236.56 212.55   C 1242.88 203.43 1247.67 196.86 1251.40 189.66   A 0.46 0.46 0.0 0 0 1251.09 189.00   Q 1248.83 188.48 1248.25 188.49   Q 1223.64 189.08 1204.91 188.78   C 1188.42 188.51 1171.46 189.47 1157.53 188.21   Q 1156.00 188.07 1154.69 187.45   A 0.30 0.30 0.0 0 1 1154.52 187.18   L 1154.52 153.92   A 0.48 0.47 80.6 0 1 1154.84 153.47   Q 1158.51 152.26 1162.50 152.22   Q 1186.49 152.04 1232.25 152.13   Q 1232.77 152.13 1233.02 152.20   A 1.96 0.27 17.2 0 0 1234.00 152.36   Q 1254.98 152.20 1270.00 152.12   C 1271.77 152.11 1274.49 152.08 1276.94 151.63   Q 1282.11 150.69 1287.94 153.58   Q 1300.56 159.83 1301.71 160.30   Q 1305.93 162.02 1309.49 164.05   A 0.71 0.70 -64.7 0 1 1309.80 164.93   Q 1307.32 171.24 1304.55 176.98   C 1301.39 183.52 1299.21 189.22 1296.17 194.69   Q 1291.64 202.84 1284.04 214.79   Q 1277.06 225.78 1265.97 238.70   A 0.44 0.44 0.0 0 0 1266.04 239.34   C 1270.35 242.51 1274.60 244.58 1278.79 247.42   Q 1296.48 259.38 1314.88 271.35   Q 1316.76 272.58 1318.66 274.42   A 0.43 0.42 45.5 0 1 1318.66 275.03   C 1315.01 278.53 1312.37 280.75 1309.40 284.26   Q 1307.49 286.53 1300.80 293.88   C 1297.67 297.31 1293.23 300.04 1291.30 303.27   A 2.11 2.11 0.0 0 1 1288.53 304.06   Q 1287.04 303.29 1285.21 301.53   A 4.63 4.38 -5.4 0 0 1284.44 300.93   Q 1269.11 291.54 1255.77 281.71   Q 1248.09 276.04 1242.12 272.63   C 1239.98 271.40 1237.08 268.12 1234.16 268.69   C 1228.94 269.70 1225.99 273.08 1221.68 276.04   Q 1197.76 292.43 1173.94 300.60   Q 1170.12 301.91 1166.71 299.47   A 2.19 2.18 -87.7 0 1 1166.12 298.83   L 1161.64 291.36   A 0.05 0.01 58.3 0 0 1161.63 291.33   L 1153.24 279.03   A 1.46 0.68 34.0 0 0 1153.13 278.89   Q 1151.99 277.61 1145.86 272.58   Q 1145.22 272.06 1145.11 272.19   Q 1144.83 272.51 1144.67 272.38   A 0.18 0.18 0.0 0 1 1144.75 272.06   Z"/>
<path xmlns="http://www.w3.org/2000/svg" fill="#ffffff" d="   M 395.56 202.29   C 440.40 202.29 482.14 222.57 511.53 256.03   A 2.01 2.01 0.0 0 0 513.38 256.69   Q 541.23 251.91 567.24 250.69   C 596.03 249.35 622.84 249.84 648.44 258.36   C 658.62 261.75 669.22 268.36 675.89 276.99   C 686.00 290.09 685.99 306.05 680.85 321.43   Q 676.28 335.11 669.03 353.26   C 644.51 414.70 617.62 475.28 582.12 531.12   C 571.07 548.51 559.39 564.55 540.06 572.28   C 535.16 574.24 528.34 576.27 521.83 577.55   Q 498.74 582.08 471.25 584.69   Q 431.32 588.47 395.56 588.47   Q 359.79 588.47 319.86 584.69   Q 292.37 582.08 269.28 577.55   C 262.77 576.27 255.95 574.24 251.05 572.28   C 231.72 564.55 220.05 548.51 209.00 531.12   C 173.50 475.28 146.61 414.70 122.09 353.26   Q 114.84 335.11 110.27 321.43   C 105.13 306.05 105.12 290.09 115.23 276.99   C 121.90 268.36 132.50 261.75 142.68 258.36   C 168.28 249.84 195.09 249.35 223.88 250.69   Q 249.89 251.91 277.74 256.69   A 2.01 2.01 0.0 0 0 279.59 256.03   C 308.98 222.56 350.73 202.29 395.56 202.29   Z   M 395.56 390.12   C 431.44 390.14 468.34 386.52 503.89 378.38   A 1.62 1.62 0.0 0 0 505.11 377.20   Q 507.66 367.78 508.73 357.50   C 514.24 304.56 477.45 258.52 428.39 243.36   Q 413.03 238.62 395.64 238.61   Q 378.25 238.60 362.89 243.33   C 313.81 258.43 276.97 304.43 282.42 357.37   Q 283.48 367.66 286.02 377.08   A 1.62 1.62 0.0 0 0 287.24 378.26   C 322.78 386.44 359.68 390.10 395.56 390.12   Z   M 256.45 289.92   C 228.58 286.67 199.95 284.85 173.20 288.31   C 164.53 289.43 140.34 293.59 144.15 306.80   Q 145.21 310.47 146.73 312.43   Q 154.64 322.64 165.17 330.28   C 189.25 347.75 216.90 359.09 245.79 368.05   A 0.55 0.55 0.0 0 0 246.50 367.45   Q 240.72 327.40 256.83 290.59   A 0.48 0.48 0.0 0 0 256.45 289.92   Z   M 534.81 290.05   A 0.48 0.48 0.0 0 0 534.43 290.72   Q 550.58 327.45 544.88 367.46   A 0.55 0.55 0.0 0 0 545.59 368.05   C 574.42 359.06 602.01 347.69 626.03 330.20   Q 636.54 322.55 644.42 312.34   Q 645.93 310.38 646.98 306.72   C 650.77 293.52 626.60 289.41 617.94 288.30   C 591.22 284.89 562.64 286.76 534.81 290.05   Z   M 395.55 551.97   Q 432.97 551.98 469.50 548.19   Q 492.49 545.81 510.42 542.58   Q 522.18 540.47 527.32 537.91   Q 535.29 533.94 540.60 526.60   Q 554.32 507.63 566.43 486.17   Q 595.71 434.30 619.12 377.38   A 0.28 0.28 0.0 0 0 618.96 377.02   Q 618.79 376.96 618.54 377.09   Q 593.71 390.36 568.72 398.70   Q 535.49 409.79 504.52 415.80   C 467.88 422.91 432.00 426.34 395.58 426.33   C 359.16 426.32 323.28 422.89 286.64 415.76   Q 255.67 409.74 222.45 398.63   Q 197.46 390.28 172.63 377.00   Q 172.39 376.87 172.21 376.93   A 0.28 0.28 0.0 0 0 172.05 377.29   Q 195.44 434.22 224.70 486.10   Q 236.80 507.57 250.52 526.54   Q 255.82 533.89 263.79 537.86   Q 268.93 540.42 280.69 542.54   Q 298.62 545.77 321.61 548.16   Q 358.14 551.96 395.55 551.97   Z"/>
<path xmlns="http://www.w3.org/2000/svg" fill="#000000" d="   M 395.64 238.61   Q 413.03 238.62 428.39 243.36   C 477.45 258.52 514.24 304.56 508.73 357.50   Q 507.66 367.78 505.11 377.20   A 1.62 1.62 0.0 0 1 503.89 378.38   C 468.34 386.52 431.44 390.14 395.56 390.12   C 359.68 390.10 322.78 386.44 287.24 378.26   A 1.62 1.62 0.0 0 1 286.02 377.08   Q 283.48 367.66 282.42 357.37   C 276.97 304.43 313.81 258.43 362.89 243.33   Q 378.25 238.60 395.64 238.61   Z"/>
<path xmlns="http://www.w3.org/2000/svg" fill="#ffffff" d="   M 1081.49 254.75   L 1080.76 261.96   A 0.10 0.10 0.0 0 1 1080.66 262.05   L 1080.34 262.05   A 0.22 0.21 -85.4 0 1 1080.13 261.80   Q 1080.61 258.90 1080.10 256.08   Q 1081.03 254.34 1081.49 254.75   Z"/>
<path xmlns="http://www.w3.org/2000/svg" fill="#ffffff" d="   M 950.21 278.41   Q 952.33 283.66 952.61 285.47   Q 953.79 292.95 954.41 294.14   A 3.18 2.95 29.6 0 1 954.72 295.12   Q 955.50 301.16 956.85 307.68   Q 956.95 308.17 956.63 308.65   A 0.25 0.25 0.0 0 1 956.17 308.52   L 956.11 307.54   L 954.67 297.07   A 1.86 1.77 29.4 0 0 954.51 296.55   Q 952.39 291.88 952.15 287.05   A 6.39 6.26 -62.1 0 0 951.30 284.19   Q 949.49 281.09 950.21 278.41   Z"/>
<path xmlns="http://www.w3.org/2000/svg" fill="#000000" d="   M 256.45 289.92   A 0.48 0.48 0.0 0 1 256.83 290.59   Q 240.72 327.40 246.50 367.45   A 0.55 0.55 0.0 0 1 245.79 368.05   C 216.90 359.09 189.25 347.75 165.17 330.28   Q 154.64 322.64 146.73 312.43   Q 145.21 310.47 144.15 306.80   C 140.34 293.59 164.53 289.43 173.20 288.31   C 199.95 284.85 228.58 286.67 256.45 289.92   Z"/>
<path xmlns="http://www.w3.org/2000/svg" fill="#000000" d="   M 534.81 290.05   C 562.64 286.76 591.22 284.89 617.94 288.30   C 626.60 289.41 650.77 293.52 646.98 306.72   Q 645.93 310.38 644.42 312.34   Q 636.54 322.55 626.03 330.20   C 602.01 347.69 574.42 359.06 545.59 368.05   A 0.55 0.55 0.0 0 1 544.88 367.46   Q 550.58 327.45 534.43 290.72   A 0.48 0.48 0.0 0 1 534.81 290.05   Z"/>
<path xmlns="http://www.w3.org/2000/svg" fill="#000000" d="   M 1111.50 507.08   Q 1112.60 478.61 1111.72 450.25   L 1113.08 443.12   A 1.45 1.45 0.0 0 0 1111.09 441.51   L 1102.88 444.96   A 3.91 3.85 -79.2 0 0 1101.52 445.90   Q 1097.33 450.35 1094.07 452.32   Q 1091.60 453.81 1075.85 463.52   Q 1071.45 466.23 1066.29 469.02   C 1056.84 474.11 1049.73 477.94 1041.69 481.32   C 1035.09 484.08 1027.73 487.37 1021.36 489.70   Q 1006.61 495.09 1004.38 496.09   C 996.96 499.41 985.97 501.40 977.90 505.36   A 1.54 1.53 -45.2 0 1 976.58 505.37   C 973.16 503.77 973.31 501.24 971.78 498.96   Q 963.79 487.03 953.89 476.62   Q 950.80 473.36 946.92 470.69   A 0.67 0.67 0.0 0 1 947.13 469.49   Q 957.25 466.85 973.32 462.84   Q 980.82 460.96 1001.34 454.28   Q 1025.46 446.43 1055.45 430.93   Q 1057.69 429.78 1067.35 423.57   Q 1068.13 423.08 1069.12 422.33   C 1073.07 419.34 1078.22 420.74 1082.24 423.14   Q 1085.52 425.09 1086.88 425.68   Q 1094.03 428.81 1100.32 433.06   A 6.13 6.13 0.0 0 0 1101.64 433.72   L 1111.37 437.17   A 1.52 1.52 0.0 0 0 1113.36 435.39   Q 1109.91 420.31 1111.18 405.80   C 1111.10 406.72 1111.22 407.46 1111.38 408.38   C 1111.45 405.81 1111.97 403.36 1112.02 400.75   Q 1112.37 383.62 1111.37 366.88   L 1111.37 366.87   Q 1111.37 366.97 1111.37 367.06   Q 1111.32 368.11 1110.75 368.85   L 1111.46 360.05   A 0.78 0.78 0.0 0 0 1110.71 359.20   Q 1107.38 359.05 1103.51 359.31   C 1048.97 362.95 1022.45 364.94 996.76 365.97   Q 992.32 366.15 988.15 365.73   A 0.97 0.97 0.0 0 1 987.29 364.95   C 986.67 361.88 986.27 358.83 985.08 355.87   Q 982.29 348.95 981.24 345.96   C 979.56 341.15 976.78 336.66 974.58 332.17   A 0.75 0.74 -26.2 0 1 974.92 331.18   Q 976.41 330.45 978.02 330.38   Q 1037.98 327.79 1075.00 324.94   C 1127.21 320.93 1177.51 314.83 1227.84 305.87   C 1233.47 304.86 1239.96 302.09 1245.60 304.38   A 2.23 2.19 79.9 0 1 1246.47 305.00   C 1252.83 312.33 1260.82 319.08 1267.73 325.78   C 1270.34 328.30 1274.15 331.01 1276.74 332.57   A 0.41 0.41 0.0 0 1 1276.70 333.29   Q 1273.44 334.71 1268.87 335.63   Q 1220.16 345.39 1174.44 351.66   Q 1168.24 352.51 1165.52 353.25   A 1.77 1.76 71.0 0 0 1164.36 355.63   Q 1165.21 357.68 1166.77 359.73   Q 1172.18 366.83 1177.31 373.76   Q 1181.42 379.33 1186.30 384.09   Q 1192.50 390.14 1194.13 392.57   A 4.47 4.46 -2.5 0 0 1195.67 393.98   Q 1198.41 395.50 1201.51 395.70   Q 1203.59 395.83 1207.07 393.62   Q 1220.83 384.88 1222.15 383.91   C 1229.68 378.35 1239.75 371.70 1248.38 364.97   Q 1254.98 359.83 1257.14 357.86   C 1259.73 355.51 1262.50 354.98 1265.59 356.16   C 1267.80 357.00 1269.68 359.29 1271.91 360.86   Q 1283.25 368.83 1294.84 376.43   Q 1297.42 378.12 1299.63 380.07   A 0.61 0.61 0.0 0 1 1299.51 381.07   Q 1295.09 383.38 1290.75 386.28   Q 1271.02 399.42 1250.00 410.86   Q 1243.33 414.49 1241.70 415.21   Q 1236.31 417.61 1232.20 420.60   A 0.43 0.43 0.0 0 0 1232.23 421.31   Q 1250.34 432.86 1263.48 438.72   Q 1272.41 442.71 1289.26 448.72   Q 1303.52 453.81 1322.04 457.97   Q 1325.37 458.72 1327.22 459.53   A 0.34 0.33 -51.3 0 1 1327.28 460.11   C 1319.57 465.64 1311.30 473.90 1306.41 482.49   Q 1302.88 488.69 1299.51 495.76   Q 1299.07 496.67 1298.91 498.25   A 1.03 1.02 -84.5 0 1 1297.81 499.16   L 1289.78 498.51   A 2.68 2.56 -31.0 0 1 1289.03 498.34   Q 1278.82 494.31 1275.95 493.35   Q 1266.11 490.05 1261.12 487.71   Q 1236.22 476.00 1227.13 470.12   Q 1209.75 458.87 1205.32 455.17   Q 1192.16 444.18 1188.84 440.66   C 1186.84 438.55 1183.77 435.12 1180.06 432.29   Q 1171.66 425.89 1166.33 416.33   A 2.51 2.50 6.2 0 0 1165.83 415.71   C 1163.69 413.84 1161.49 414.69 1158.84 415.78   A 0.34 0.34 0.0 0 0 1158.74 416.34   C 1160.94 418.46 1161.17 422.23 1161.21 425.26   Q 1161.24 426.96 1159.81 431.27   Q 1158.86 434.13 1159.05 440.00   Q 1159.77 462.21 1159.77 468.50   Q 1159.77 470.22 1159.42 481.75   Q 1159.04 494.09 1161.34 505.57   A 1.14 1.14 0.0 0 1 1160.66 506.85   C 1158.16 507.89 1155.56 508.16 1153.14 508.13   Q 1131.89 507.88 1113.53 507.75   Q 1111.44 507.74 1111.50 507.08   Z"/>
<path xmlns="http://www.w3.org/2000/svg" fill="#ffffff" d="   M 2148.38 354.22   L 2148.79 400.28   Q 2148.92 400.69 2148.88 401.22   L 2148.85 418.54   L 2148.88 419.50   L 2148.91 440.03   Q 2148.68 441.20 2149.36 440.41   Q 2147.19 449.64 2149.03 456.08   Q 2147.85 455.87 2147.76 453.74   Q 2147.69 452.18 2147.97 443.24   Q 2148.17 436.82 2148.15 432.75   C 2148.09 418.62 2147.85 403.31 2148.08 385.43   Q 2148.27 371.01 2148.08 356.08   A 1.96 1.92 -37.3 0 1 2148.16 355.53   Q 2148.38 354.83 2148.38 354.22   Z"/>
<path xmlns="http://www.w3.org/2000/svg" fill="#ffffff" d="   M 1111.18 405.80   L 1110.75 368.85   Q 1111.32 368.11 1111.37 367.06   Q 1111.37 366.97 1111.37 366.87   L 1111.37 366.88   Q 1112.37 383.62 1112.02 400.75   C 1111.97 403.36 1111.45 405.81 1111.38 408.38   C 1111.22 407.46 1111.10 406.72 1111.18 405.80   Z"/>
<path xmlns="http://www.w3.org/2000/svg" fill="#000000" d="   M 1091.31 389.93   C 1082.48 395.73 1073.55 401.85 1064.19 405.97   C 1058.79 408.34 1052.46 412.11 1046.07 414.65   Q 1027.41 422.07 1019.60 424.58   C 1002.36 430.10 992.52 433.80 978.08 436.67   A 1.78 1.78 0.0 0 1 976.04 435.46   C 974.93 431.91 972.80 428.61 970.25 425.65   Q 962.50 416.67 954.27 408.72   Q 952.61 407.12 950.72 405.82   A 0.29 0.29 0.0 0 1 950.79 405.30   C 952.99 404.56 954.33 403.84 956.97 403.26   Q 982.63 397.64 986.58 396.54   Q 1008.20 390.55 1029.19 382.09   C 1039.25 378.03 1047.42 373.25 1058.50 368.08   A 2.89 2.89 0.0 0 1 1061.25 368.25   Q 1072.12 375.09 1080.78 382.38   A 0.28 0.25 75.1 0 0 1080.87 382.44   L 1091.30 388.96   A 0.58 0.58 0.0 0 1 1091.31 389.93   Z"/>
<path xmlns="http://www.w3.org/2000/svg" fill="#000000" d="   M 1766.38 451.67   C 1757.59 458.31 1751.91 462.85 1746.01 469.56   Q 1742.36 473.71 1739.08 476.94   A 6.11 5.99 -8.9 0 0 1738.03 478.35   C 1736.20 481.72 1734.94 485.67 1730.60 485.36   Q 1727.02 485.11 1724.90 482.98   C 1720.67 478.75 1716.73 476.71 1712.76 472.98   Q 1701.08 462.02 1696.04 456.20   Q 1695.78 455.90 1688.36 446.90   C 1682.10 439.31 1676.58 430.53 1671.90 423.38   Q 1665.33 413.36 1663.79 409.97   Q 1661.09 404.01 1657.77 399.50   Q 1653.94 394.30 1654.26 387.79   A 1.62 1.60 -20.2 0 1 1654.78 386.68   Q 1655.90 385.65 1657.64 385.08   Q 1671.37 380.57 1681.79 376.46   C 1685.70 374.91 1690.26 374.22 1694.00 373.83   A 1.80 1.80 0.0 0 1 1695.98 375.38   L 1696.31 377.82   A 2.74 2.73 -62.0 0 0 1696.56 378.64   Q 1698.89 383.31 1700.97 386.60   Q 1710.46 401.63 1720.02 412.08   C 1725.00 417.54 1728.73 422.03 1733.40 426.26   Q 1749.10 440.48 1766.36 451.16   A 0.31 0.31 0.0 0 1 1766.38 451.67   Z"/>
<path xmlns="http://www.w3.org/2000/svg" fill="#000000" d="   M 1584.65 387.62   Q 1584.20 390.05 1582.02 392.76   Q 1580.16 395.07 1579.22 398.95   A 7.48 7.47 -19.2 0 1 1577.86 401.76   Q 1575.15 405.24 1573.96 409.40   A 8.49 8.28 -21.3 0 1 1572.95 411.62   Q 1568.06 419.17 1564.45 423.97   C 1561.43 427.97 1559.83 430.70 1557.27 434.88   C 1554.65 439.15 1551.25 442.76 1548.33 446.96   Q 1546.11 450.16 1542.08 454.50   Q 1531.58 465.82 1524.92 472.41   C 1522.73 474.57 1519.83 476.83 1516.43 478.90   Q 1512.42 481.34 1509.97 484.59   C 1508.24 486.88 1505.75 488.59 1503.61 485.57   C 1502.23 483.61 1501.55 482.56 1499.78 480.25   Q 1499.22 479.53 1491.81 471.26   C 1484.79 463.42 1477.94 458.15 1470.37 452.67   A 0.41 0.41 0.0 0 1 1470.39 451.99   C 1477.12 447.64 1482.04 444.68 1487.78 440.15   Q 1506.35 425.50 1521.63 406.84   C 1527.07 400.18 1531.18 393.46 1536.39 385.13   Q 1537.11 383.98 1539.17 378.94   C 1541.00 374.47 1545.85 373.35 1550.04 374.99   Q 1556.75 377.63 1559.13 378.38   Q 1570.98 382.10 1584.27 386.94   A 0.61 0.61 0.0 0 1 1584.65 387.62   Z"/>
<path xmlns="http://www.w3.org/2000/svg" fill="#000000" d="   M 395.58 426.33   C 432.00 426.34 467.88 422.91 504.52 415.80   Q 535.49 409.79 568.72 398.70   Q 593.71 390.36 618.54 377.09   Q 618.79 376.96 618.96 377.02   A 0.28 0.28 0.0 0 1 619.12 377.38   Q 595.71 434.30 566.43 486.17   Q 554.32 507.63 540.60 526.60   Q 535.29 533.94 527.32 537.91   Q 522.18 540.47 510.42 542.58   Q 492.49 545.81 469.50 548.19   Q 432.97 551.98 395.55 551.97   Q 358.14 551.96 321.61 548.16   Q 298.62 545.77 280.69 542.54   Q 268.93 540.42 263.79 537.86   Q 255.82 533.89 250.52 526.54   Q 236.80 507.57 224.70 486.10   Q 195.44 434.22 172.05 377.29   A 0.28 0.28 0.0 0 1 172.21 376.93   Q 172.39 376.87 172.63 377.00   Q 197.46 390.28 222.45 398.63   Q 255.67 409.74 286.64 415.76   C 323.28 422.89 359.16 426.32 395.58 426.33   Z"/>
<path xmlns="http://www.w3.org/2000/svg" fill="#000000" d="   M 2148.88 401.22   Q 2148.92 400.69 2148.79 400.28   Q 2148.95 400.65 2148.88 401.22   Z"/>
<path xmlns="http://www.w3.org/2000/svg" fill="#000000" d="   M 2148.88 419.50   L 2148.85 418.54   L 2148.88 419.50   Z"/>
<path xmlns="http://www.w3.org/2000/svg" fill="#000000" d="   M 2148.91 440.03   Q 2148.69 441.17 2149.36 440.41   Q 2148.68 441.20 2148.91 440.03   Z"/>
<path xmlns="http://www.w3.org/2000/svg" fill="#ffffff" d="   M 1111.50 507.08   Q 1110.46 502.12 1110.98 496.77   L 1110.88 494.78   Q 1110.87 494.62 1110.86 494.46   L 1110.86 492.54   L 1110.88 472.96   Q 1110.79 472.01 1111.04 471.29   Q 1110.52 460.74 1111.72 450.25   Q 1112.60 478.61 1111.50 507.08   Z"/>
<path xmlns="http://www.w3.org/2000/svg" fill="#000000" d="   M 1111.04 471.29   Q 1110.79 472.01 1110.88 472.96   Q 1110.71 471.92 1111.04 471.29   Z"/>
<path xmlns="http://www.w3.org/2000/svg" fill="#000000" d="   M 1110.86 494.46   L 1110.86 492.54   L 1110.86 494.46   Z"/>
<path xmlns="http://www.w3.org/2000/svg" fill="#000000" d="   M 1110.98 496.77   Q 1110.77 495.88 1110.88 494.78   L 1110.98 496.77   Z"/>
<path xmlns="http://www.w3.org/2000/svg" fill="#000000" d="   M 1514.90 582.65   Q 1511.80 581.34 1507.60 581.85   A 1.64 1.63 -11.5 0 0 1506.22 583.93   Q 1507.59 588.63 1505.44 592.42   Q 1504.78 593.56 1503.99 595.38   Q 1497.37 610.56 1493.71 621.33   A 16.44 16.06 70.9 0 1 1492.13 624.68   Q 1488.02 631.34 1485.52 639.96   A 1.56 1.56 0.0 0 1 1484.46 641.02   C 1478.47 642.72 1470.04 642.07 1465.00 641.83   Q 1460.99 641.64 1458.05 640.67   A 1.32 1.32 0.0 0 1 1457.25 638.92   Q 1459.80 632.60 1461.48 629.54   C 1464.73 623.63 1465.28 621.27 1467.55 615.95   C 1470.53 608.94 1474.47 600.97 1475.98 596.54   Q 1477.92 590.85 1481.98 583.08   Q 1484.50 578.25 1488.13 568.46   C 1489.69 564.28 1492.69 559.24 1493.68 555.54   C 1494.41 552.84 1495.85 550.87 1496.77 547.93   A 1.09 1.07 5.3 0 1 1497.68 547.19   Q 1506.81 546.21 1516.50 546.34   C 1519.64 546.38 1523.79 546.90 1526.42 548.85   A 1.37 1.36 13.8 0 1 1526.95 549.72   C 1527.90 555.51 1531.42 560.93 1533.19 566.13   C 1535.11 571.78 1537.67 576.70 1540.08 581.88   C 1542.64 587.37 1544.39 593.11 1547.36 598.63   C 1549.93 603.42 1551.06 608.61 1552.98 613.18   Q 1553.56 614.57 1557.54 621.57   Q 1558.82 623.83 1560.75 628.88   C 1562.14 632.51 1564.28 636.08 1566.14 639.47   A 0.86 0.85 64.0 0 1 1565.73 640.67   Q 1562.76 641.93 1560.05 642.02   Q 1554.00 642.20 1539.34 641.89   A 1.46 1.46 0.0 0 1 1538.09 641.12   Q 1536.44 638.08 1536.36 637.88   C 1534.33 632.71 1531.27 627.60 1529.48 622.83   Q 1528.38 619.88 1524.44 609.78   Q 1523.43 607.18 1520.79 603.07   A 6.61 6.49 17.9 0 1 1520.23 602.00   Q 1517.02 594.10 1515.37 587.17   Q 1515.09 585.98 1515.38 583.47   A 0.79 0.79 0.0 0 0 1514.90 582.65   Z"/>
<path xmlns="http://www.w3.org/2000/svg" fill="#000000" d="   M 1672.25 580.62   Q 1672.88 583.35 1673.73 585.79   C 1675.24 590.10 1675.33 595.51 1674.49 599.52   Q 1672.97 606.76 1671.68 610.96   Q 1668.85 620.12 1662.09 627.34   C 1654.23 635.74 1645.91 640.87 1634.26 642.58   C 1624.77 643.97 1615.06 643.87 1606.04 640.68   C 1597.19 637.54 1588.74 629.52 1582.90 621.97   Q 1581.60 620.30 1580.29 617.72   Q 1578.05 613.34 1574.93 604.46   A 6.99 6.86 -56.1 0 1 1574.56 602.48   Q 1574.10 589.97 1574.61 586.81   Q 1575.33 582.39 1579.94 570.90   A 6.05 5.84 -16.2 0 1 1580.73 569.52   Q 1589.99 557.37 1600.21 552.31   Q 1619.86 542.57 1640.34 549.07   Q 1647.33 551.29 1656.04 557.49   C 1661.94 561.70 1666.99 567.92 1669.77 574.79   Q 1671.58 579.27 1671.86 579.69   A 2.82 2.80 22.4 0 1 1672.25 580.62   Z   M 1602.26 604.85   C 1604.37 611.72 1609.24 617.81 1616.42 620.12   Q 1621.05 621.61 1624.99 621.28   Q 1640.00 620.01 1646.36 606.86   C 1647.47 604.56 1647.86 601.95 1648.72 598.95   A 4.87 4.75 54.9 0 0 1648.92 597.72   Q 1649.21 590.61 1646.50 584.05   A 4.65 4.50 -75.0 0 0 1646.00 583.15   Q 1641.59 577.04 1640.54 575.99   C 1635.46 570.91 1625.91 566.59 1618.36 569.10   Q 1608.95 572.23 1603.54 580.30   A 1.26 0.99 -24.3 0 0 1603.40 580.57   L 1600.29 589.20   A 2.36 2.26 -35.0 0 0 1600.14 589.96   C 1599.90 596.05 1599.48 599.21 1601.85 603.84   A 6.48 6.08 24.7 0 1 1602.26 604.85   Z"/>
<path xmlns="http://www.w3.org/2000/svg" fill="#000000" d="   M 1932.20 640.66   L 1931.87 549.90   A 1.11 1.10 -6.4 0 1 1932.75 548.81   Q 1941.64 546.89 1951.23 548.08   C 1953.87 548.41 1955.33 548.91 1957.18 550.96   Q 1963.75 558.23 1968.36 567.33   Q 1969.39 569.38 1974.74 573.89   A 2.49 2.01 84.8 0 1 1975.02 574.18   L 1982.92 584.14   A 0.49 0.43 -86.4 0 1 1982.99 584.23   C 1985.82 589.56 1988.56 595.47 1994.21 598.44   A 2.75 2.66 61.5 0 0 1995.16 598.74   Q 1997.33 599.03 1999.13 596.97   A 1.63 1.62 -23.3 0 0 1999.52 596.00   Q 1999.75 592.24 1998.83 590.65   Q 1996.96 587.44 1996.52 585.99   Q 1995.29 582.02 1996.44 573.01   Q 1997.12 567.59 1996.02 549.71   A 0.78 0.77 -13.8 0 1 1996.48 548.96   Q 1997.88 548.36 1999.75 548.19   Q 2009.38 547.29 2018.76 548.16   A 2.09 2.08 -86.6 0 1 2020.65 550.29   C 2020.61 551.91 2020.34 553.62 2020.52 555.92   C 2021.36 567.11 2020.18 580.33 2019.91 589.27   Q 2019.69 596.63 2020.44 608.46   Q 2021.37 623.18 2020.03 640.14   A 1.71 1.71 0.0 0 1 2018.47 641.70   Q 2008.26 642.58 1998.98 641.41   C 1997.36 641.21 1995.32 638.76 1994.49 637.20   C 1990.56 629.83 1984.93 624.71 1979.73 618.18   C 1972.09 608.59 1966.83 603.32 1964.24 594.44   A 1.65 1.63 -81.8 0 0 1963.57 593.53   Q 1959.21 590.57 1954.27 591.49   A 1.72 1.72 0.0 0 0 1953.12 594.09   Q 1954.11 595.69 1954.54 597.44   Q 1955.80 602.56 1956.31 606.84   A 14.69 14.39 -46.1 0 1 1956.34 609.93   C 1955.73 616.21 1955.26 621.31 1955.73 628.17   Q 1956.10 633.57 1955.05 640.76   A 1.03 1.03 0.0 0 1 1954.09 641.64   Q 1946.31 642.13 1936.51 641.98   Q 1933.55 641.93 1932.49 641.21   A 0.67 0.67 0.0 0 1 1932.20 640.66   Z"/>
<path xmlns="http://www.w3.org/2000/svg" fill="#000000" d="   M 1210.40 606.99   Q 1210.81 596.44 1209.77 585.86   A 0.21 0.21 0.0 0 0 1209.35 585.85   Q 1209.02 588.13 1209.18 590.76   L 1209.11 579.96   L 1209.19 585.34   A 0.07 0.07 0.0 0 0 1209.26 585.41   L 1209.63 585.41   A 0.38 0.38 0.0 0 0 1210.01 585.03   L 1210.01 558.18   A 0.35 0.35 0.0 0 0 1209.66 557.83   L 1209.39 557.83   A 0.15 0.15 0.0 0 0 1209.24 557.98   L 1209.09 565.96   L 1209.11 551.85   Q 1210.59 552.69 1209.76 549.27   L 1212.31 548.42   A 10.08 9.91 34.9 0 1 1215.21 547.93   Q 1224.71 547.75 1234.59 549.13   A 0.68 0.67 -86.1 0 1 1235.17 549.80   Q 1234.95 580.78 1235.04 595.28   C 1235.08 600.87 1236.07 605.44 1236.96 611.03   C 1237.77 616.02 1244.46 619.79 1248.72 620.57   Q 1250.87 620.96 1255.57 621.33   A 6.98 6.80 -45.8 0 0 1257.05 621.29   Q 1264.83 620.25 1268.92 614.86   Q 1271.04 611.95 1271.42 608.92   C 1272.03 604.00 1272.48 598.22 1272.33 592.34   Q 1271.90 575.39 1271.92 571.12   Q 1271.96 563.18 1272.87 548.86   Q 1275.70 547.96 1278.75 547.84   Q 1287.66 547.49 1295.83 548.95   A 1.09 1.08 5.9 0 1 1296.72 550.04   Q 1296.69 551.78 1296.64 553.25   Q 1296.41 560.40 1296.67 602.74   Q 1296.74 614.38 1290.50 626.18   C 1286.76 633.25 1279.49 638.78 1272.28 640.80   C 1258.28 644.73 1241.32 644.67 1228.13 637.48   Q 1225.28 635.93 1221.13 630.97   Q 1214.90 623.52 1211.81 614.72   A 4.33 4.10 64.5 0 1 1211.65 614.13   L 1210.40 606.99   Z   M 1209.3772 553.9600   A 0.79 0.27 -90.2 0 0 1209.1100 554.7509   A 0.79 0.27 -90.2 0 0 1209.3828 555.5400   A 0.79 0.27 -90.2 0 0 1209.6500 554.7491   A 0.79 0.27 -90.2 0 0 1209.3772 553.9600   Z   M 1209.21 556.07   Q 1208.99 556.45 1209.05 556.69   A 0.30 0.30 0.0 0 0 1209.63 556.72   Q 1209.77 556.30 1209.72 556.14   A 0.28 0.28 0.0 0 0 1209.21 556.07   Z"/>
<path xmlns="http://www.w3.org/2000/svg" fill="#ffffff" d="   M 1166.36 548.07   Q 1164.66 548.80 1163.80 549.61   A 1.26 1.24 -20.2 0 0 1163.41 550.44   Q 1163.00 555.86 1162.97 561.50   Q 1162.85 583.27 1163.07 602.23   C 1163.11 605.23 1162.78 608.65 1162.59 611.28   Q 1162.03 619.13 1153.97 621.21   C 1161.38 617.93 1162.10 612.36 1162.09 604.75   Q 1162.08 577.13 1162.04 549.48   A 0.50 0.48 -21.5 0 1 1162.21 549.11   Q 1163.54 547.89 1166.36 548.07   Z"/>
<path xmlns="http://www.w3.org/2000/svg" fill="#000000" d="   M 1123.49 632.21   Q 1122.55 630.10 1120.71 628.26   Q 1120.28 627.26 1121.33 626.33   L 1133.62 613.67   Q 1136.83 613.49 1138.74 615.90   Q 1138.33 616.51 1139.25 616.95   Q 1141.27 620.18 1145.31 620.65   Q 1150.38 621.25 1153.97 621.21   Q 1162.03 619.13 1162.59 611.28   C 1162.78 608.65 1163.11 605.23 1163.07 602.23   Q 1162.85 583.27 1162.97 561.50   Q 1163.00 555.86 1163.41 550.44   A 1.26 1.24 -20.2 0 1 1163.80 549.61   Q 1164.66 548.80 1166.36 548.07   L 1184.69 548.57   A 1.21 1.20 -7.4 0 1 1185.80 549.42   C 1188.00 556.73 1186.47 565.20 1186.63 573.08   Q 1186.96 588.60 1186.51 603.99   Q 1186.40 607.71 1184.84 619.11   C 1183.38 629.70 1175.98 639.08 1165.39 641.61   Q 1151.01 645.03 1138.86 641.92   Q 1130.50 639.78 1123.49 632.21   Z"/>
<path xmlns="http://www.w3.org/2000/svg" fill="#000000" d="   M 1362.48 640.22   Q 1363.65 640.36 1363.68 639.50   Q 1364.15 628.47 1363.74 621.75   Q 1363.21 613.03 1363.41 610.24   C 1364.18 599.60 1364.08 591.16 1363.42 581.42   Q 1362.89 573.56 1363.12 571.27   Q 1364.20 560.11 1363.78 548.70   Q 1367.81 547.92 1373.50 547.91   Q 1389.93 547.86 1412.51 548.39   Q 1418.59 548.54 1422.53 549.47   C 1429.50 551.11 1438.81 556.16 1441.43 563.30   Q 1442.29 565.65 1443.60 570.97   A 4.36 4.14 -51.0 0 1 1443.71 572.36   Q 1442.61 585.69 1430.38 592.25   A 0.81 0.81 0.0 0 0 1430.38 593.67   L 1437.11 597.37   A 4.60 4.60 0.0 0 1 1438.16 598.14   Q 1440.28 600.14 1443.46 604.52   C 1446.58 608.82 1446.44 612.87 1446.50 618.62   Q 1446.56 623.70 1445.01 626.72   C 1442.29 632.04 1435.71 636.44 1430.53 638.28   Q 1420.70 641.75 1410.25 641.76   Q 1382.29 641.78 1365.31 641.23   Q 1364.38 641.20 1362.48 640.22   Z   M 1385.65 571.49   C 1387.63 574.01 1386.93 578.19 1386.74 581.30   Q 1386.49 585.48 1390.72 585.81   Q 1398.00 586.37 1404.50 586.02   C 1410.69 585.69 1414.64 585.14 1417.77 580.27   Q 1419.03 578.31 1419.06 577.27   A 1.74 1.73 -61.2 0 0 1418.76 576.23   C 1416.16 572.23 1414.42 568.86 1409.24 568.24   Q 1405.53 567.79 1396.89 567.42   C 1392.08 567.22 1389.16 566.94 1385.88 569.54   A 1.39 1.39 0.0 0 0 1385.65 571.49   Z   M 1386.37 605.92   Q 1387.04 607.10 1387.07 608.52   Q 1387.17 613.19 1387.48 619.59   A 1.59 1.59 0.0 0 0 1388.64 621.04   Q 1391.15 621.73 1393.25 621.73   Q 1395.68 621.73 1412.49 621.29   Q 1416.00 621.20 1420.75 617.80   A 1.80 1.79 -5.9 0 0 1421.36 617.05   Q 1423.38 612.29 1421.30 608.27   A 2.53 2.49 5.3 0 0 1420.54 607.37   Q 1416.11 604.13 1412.01 603.43   Q 1407.82 602.72 1394.26 602.34   Q 1390.22 602.23 1387.03 603.80   A 1.53 1.52 -28.0 0 0 1386.37 605.92   Z"/>
<path xmlns="http://www.w3.org/2000/svg" fill="#000000" d="   M 1736.65 549.02   Q 1741.14 547.78 1746.01 547.89   Q 1763.79 548.29 1780.28 548.51   Q 1804.98 548.84 1814.41 570.89   A 3.14 2.96 32.0 0 1 1814.61 571.65   L 1816.04 582.22   A 2.06 1.95 48.2 0 1 1816.02 582.91   C 1814.23 592.36 1809.57 603.20 1801.49 608.45   C 1791.55 614.90 1780.04 615.43 1767.79 614.07   Q 1764.67 613.72 1761.20 616.15   A 0.70 0.69 -17.8 0 0 1760.90 616.72   L 1760.90 639.96   A 1.79 1.79 0.0 0 1 1759.11 641.75   L 1738.17 641.75   A 1.44 1.44 0.0 0 1 1736.73 640.32   Q 1736.66 629.02 1737.18 616.53   C 1737.84 600.55 1736.35 584.44 1736.98 568.58   Q 1737.25 562.10 1737.18 552.08   A 1.11 1.04 33.8 0 0 1737.10 551.73   L 1736.28 549.77   A 0.56 0.56 0.0 0 1 1736.65 549.02   Z   M 1760.56 590.92   C 1760.25 596.88 1770.68 595.74 1775.58 595.57   C 1779.30 595.44 1787.54 593.92 1789.00 589.79   Q 1791.19 583.60 1789.42 576.21   A 3.45 3.34 22.3 0 0 1788.94 575.11   C 1784.86 568.85 1778.38 569.05 1769.95 567.88   C 1766.39 567.39 1764.41 568.14 1761.52 569.69   A 2.12 2.12 0.0 0 0 1760.41 571.71   Q 1761.06 581.15 1760.56 590.92   Z"/>
<path xmlns="http://www.w3.org/2000/svg" fill="#000000" d="   M 1908.67 549.59   L 1907.34 555.76   A 1.62 1.57 -44.0 0 0 1907.32 556.32   L 1908.89 566.37   A 1.36 1.35 -14.9 0 1 1908.02 567.86   C 1906.10 568.58 1903.95 569.17 1901.71 569.18   C 1885.60 569.26 1872.87 567.14 1860.60 568.77   A 1.89 1.89 0.0 0 0 1858.96 570.64   L 1858.96 583.42   A 1.57 1.57 0.0 0 0 1860.38 584.98   Q 1862.13 585.15 1863.31 585.13   C 1873.15 585.02 1884.35 584.43 1895.39 584.82   Q 1900.05 584.99 1903.34 585.59   A 0.94 0.94 0.0 0 1 1904.00 586.95   Q 1903.51 587.86 1903.48 588.51   Q 1903.33 591.66 1903.13 603.16   A 0.71 0.71 0.0 0 1 1902.53 603.85   Q 1897.40 604.61 1891.50 604.46   Q 1866.69 603.82 1863.25 603.74   Q 1860.72 603.68 1859.49 604.15   A 0.98 0.97 79.5 0 0 1858.87 605.06   L 1858.87 619.81   A 1.38 1.37 -0.2 0 0 1860.26 621.18   Q 1887.74 620.93 1902.75 620.94   Q 1906.74 620.95 1910.37 622.56   A 0.48 0.47 -75.0 0 1 1910.65 623.05   L 1909.49 632.28   A 1.48 1.32 -51.1 0 0 1909.51 632.69   L 1911.35 640.43   A 0.78 0.77 -10.6 0 1 1910.70 641.37   C 1901.29 642.67 1892.44 641.72 1878.26 641.29   Q 1855.39 640.59 1842.49 642.01   C 1840.28 642.25 1835.47 642.16 1834.41 639.45   A 1.62 1.50 -56.0 0 1 1834.30 638.73   Q 1835.28 624.14 1834.80 619.97   Q 1833.86 611.82 1834.23 606.76   C 1834.62 601.39 1833.79 595.45 1834.40 590.42   Q 1835.17 584.09 1834.67 578.24   C 1834.07 571.30 1834.86 567.26 1835.39 559.24   Q 1835.59 556.10 1834.62 552.13   A 2.84 2.83 70.7 0 1 1836.17 548.89   C 1837.70 548.17 1839.65 547.94 1841.66 547.99   Q 1861.88 548.53 1871.00 548.31   Q 1889.29 547.87 1901.75 547.95   Q 1903.50 547.96 1908.21 548.89   A 0.58 0.58 0.0 0 1 1908.67 549.59   Z"/>
<path xmlns="http://www.w3.org/2000/svg" fill="#ffffff" d="   M 1272.87 548.86   Q 1271.96 563.18 1271.92 571.12   Q 1271.90 575.39 1272.33 592.34   C 1272.48 598.22 1272.03 604.00 1271.42 608.92   Q 1271.04 611.95 1268.92 614.86   L 1270.75 609.66   A 3.46 3.44 56.2 0 0 1270.91 608.84   Q 1271.76 595.79 1271.07 582.71   L 1271.11 579.54   Q 1271.12 579.37 1271.12 579.21   L 1271.16 576.54   L 1271.39 550.12   A 0.94 0.93 -17.0 0 1 1271.81 549.34   Q 1272.61 548.80 1272.87 548.86   Z"/>
<path xmlns="http://www.w3.org/2000/svg" fill="#ffffff" d="   M 1363.78 548.70   Q 1364.20 560.11 1363.12 571.27   Q 1362.89 573.56 1363.42 581.42   C 1364.08 591.16 1364.18 599.60 1363.41 610.24   Q 1363.21 613.03 1363.74 621.75   Q 1364.15 628.47 1363.68 639.50   Q 1363.65 640.36 1362.48 640.22   Q 1362.69 634.13 1362.82 628.01   Q 1362.93 623.14 1362.54 619.00   C 1361.77 611.07 1362.53 601.95 1362.95 596.26   C 1363.35 590.74 1362.65 585.58 1362.21 580.26   C 1361.37 570.07 1364.12 558.12 1362.01 549.90   A 0.79 0.78 -25.7 0 1 1362.31 549.06   Q 1362.89 548.66 1363.78 548.70   Z"/>
<path xmlns="http://www.w3.org/2000/svg" fill="#000000" d="   M 1209.47 549.32   L 1209.14 550.04   Q 1209.02 549.50 1209.47 549.32   Z"/>
<path xmlns="http://www.w3.org/2000/svg" fill="#ffffff" d="   M 1209.76 549.27   Q 1210.59 552.69 1209.11 551.85   L 1209.14 550.04   L 1209.47 549.32   Q 1209.61 549.30 1209.76 549.27   Z"/>
<ellipse xmlns="http://www.w3.org/2000/svg" fill="#ffffff" cx="0.00" cy="0.00" transform="translate(1209.38,554.75) rotate(-90.2)" rx="0.79" ry="0.27"/>
<path xmlns="http://www.w3.org/2000/svg" fill="#ffffff" d="   M 1209.72 556.14   Q 1209.77 556.30 1209.63 556.72   A 0.30 0.30 0.0 0 1 1209.05 556.69   Q 1208.99 556.45 1209.21 556.07   A 0.28 0.28 0.0 0 1 1209.72 556.14   Z"/>
<path xmlns="http://www.w3.org/2000/svg" fill="#ffffff" d="   M 1209.11 579.96   L 1209.14 574.96   L 1209.09 572.22   L 1209.09 565.96   L 1209.24 557.98   A 0.15 0.15 0.0 0 1 1209.39 557.83   L 1209.66 557.83   A 0.35 0.35 0.0 0 1 1210.01 558.18   L 1210.01 585.03   A 0.38 0.38 0.0 0 1 1209.63 585.41   L 1209.26 585.41   A 0.07 0.07 0.0 0 1 1209.19 585.34   L 1209.11 579.96   Z"/>
<path xmlns="http://www.w3.org/2000/svg" fill="#000000" d="   M 1209.14 574.96   L 1209.09 572.22   L 1209.14 574.96   Z"/>
<path xmlns="http://www.w3.org/2000/svg" fill="#000000" d="   M 1271.16 576.54   L 1271.12 579.21   L 1271.16 576.54   Z"/>
<path xmlns="http://www.w3.org/2000/svg" fill="#000000" d="   M 1271.07 582.71   L 1271.11 579.54   L 1271.07 582.71   Z"/>
<path xmlns="http://www.w3.org/2000/svg" fill="#ffffff" d="   M 1210.40 606.99   Q 1209.20 602.00 1209.45 596.76   L 1209.33 595.54   L 1209.18 590.76   Q 1209.02 588.13 1209.35 585.85   A 0.21 0.21 0.0 0 1 1209.77 585.86   Q 1210.81 596.44 1210.40 606.99   Z"/>
<path xmlns="http://www.w3.org/2000/svg" fill="#000000" d="   M 1209.45 596.76   Q 1209.30 596.25 1209.33 595.54   L 1209.45 596.76   Z"/>
<path xmlns="http://www.w3.org/2000/svg" fill="#ffffff" d="   M 1133.62 613.67   L 1121.33 626.33   Q 1121.62 625.66 1122.12 625.09   Q 1126.94 619.57 1132.14 614.40   Q 1132.43 614.11 1133.62 613.67   Z"/>
<path xmlns="http://www.w3.org/2000/svg" fill="#ffffff" d="   M 1138.74 615.90   L 1139.25 616.95   Q 1138.33 616.51 1138.74 615.90   Z"/>
<path xmlns="http://www.w3.org/2000/svg" fill="#ffffff" d="   M 1123.49 632.21   Q 1121.26 631.04 1120.71 628.26   Q 1122.55 630.10 1123.49 632.21   Z"/>
</g></g></g></svg>