<svg xmlns="http://www.w3.org/2000/svg" direction="ltr" width="1920" height="1920" viewBox="7338.618509944039 12070.797712348844 1920 1920" stroke-linecap="round" stroke-linejoin="round" data-color-mode="light" class="tl-container tl-theme__force-sRGB tl-theme__light" style="background-color: transparent;"><defs/><g transform="matrix(1, 0, 0, 1, 7338.6185, 12070.7977)" opacity="1"><g transform="scale(1.3259668508287292, 1.3259668508287292)"><g>
<g xmlns="http://www.w3.org/2000/svg" stroke-width="2.00" fill="none" stroke-linecap="butt">
<path stroke="#808080" vector-effect="non-scaling-stroke" d="   M 489.14 445.90   Q 478.02 443.73 462.50 441.76   C 437.70 438.60 411.77 435.66 384.26 433.86   Q 356.63 432.05 339.16 432.30   Q 301.18 432.83 263.10 438.89   Q 247.23 441.42 235.03 444.82   C 213.82 450.75 193.15 459.11 176.79 472.55   C 160.97 485.54 148.74 504.87 145.33 525.67   Q 143.34 537.80 143.71 546.26   Q 144.48 564.13 150.42 582.32   Q 158.80 607.98 169.28 636.46   C 176.98 657.40 184.23 674.05 193.35 696.18   C 203.72 721.36 215.08 746.44 228.04 775.81   Q 241.20 805.64 246.07 815.69   C 256.82 837.86 264.31 852.63 273.51 871.76   Q 276.86 878.74 290.82 905.17   C 302.53 927.32 317.10 951.94 329.37 973.13   C 338.63 989.12 351.92 1009.41 366.35 1031.50   C 381.70 1055.01 401.78 1076.39 427.48 1088.26   Q 446.61 1097.10 463.78 1100.98   C 485.04 1105.78 509.23 1108.92 531.55 1111.90   Q 538.10 1112.77 576.51 1116.97   Q 617.90 1121.49 659.44 1123.60   C 726.60 1127.02 791.83 1125.25 858.71 1119.35   Q 870.28 1118.33 904.63 1114.60   Q 930.08 1111.84 966.14 1105.62   C 997.48 1100.22 1028.00 1090.85 1051.85 1068.63   C 1058.06 1062.84 1063.14 1058.21 1067.69 1052.45   C 1080.40 1036.36 1094.72 1015.65 1106.67 996.34   Q 1142.45 938.50 1165.26 894.28   Q 1185.43 855.18 1199.43 824.69   Q 1208.77 804.33 1233.63 748.83   C 1242.14 729.85 1248.65 713.39 1256.47 695.60   Q 1262.98 680.78 1270.89 660.89   Q 1284.26 627.26 1294.36 598.40   Q 1301.08 579.18 1302.33 574.51   Q 1305.91 561.10 1306.72 549.75   C 1308.54 524.45 1299.69 500.88 1282.55 482.09   C 1265.50 463.39 1243.50 452.14 1219.19 445.59   Q 1197.18 439.66 1176.00 436.94   Q 1125.21 430.43 1075.26 433.48   Q 1048.53 435.12 1006.83 440.05   C 991.38 441.88 979.71 443.95 964.77 446.19   C 961.96 446.61 960.77 446.54 959.01 444.55   C 933.59 415.74 903.67 391.73 869.39 373.80   C 838.87 357.84 806.62 346.09 772.21 341.25   Q 754.69 338.78 753.05 338.63   C 711.18 334.83 668.02 338.66 628.34 352.47   Q 600.97 361.99 577.35 375.34   Q 546.51 392.77 524.26 412.28   C 510.78 424.11 500.96 433.09 491.13 445.18   A 2.05 2.05 0.0 0 1 489.14 445.90"/>
<path stroke="#808080" vector-effect="non-scaling-stroke" d="   M 944.55 696.79   A 1.14 1.13 -88.6 0 0 945.39 695.98   C 953.23 667.19 956.60 636.83 953.19 607.78   C 949.98 580.43 941.28 554.43 927.41 530.48   Q 920.74 518.95 918.08 515.16   Q 899.28 488.42 873.75 466.49   C 863.59 457.76 851.98 450.50 840.22 443.56   C 813.76 427.95 784.00 417.02 753.51 413.67   Q 720.30 410.01 687.12 414.90   C 647.37 420.75 609.11 439.72 577.90 465.51   C 567.69 473.94 557.49 484.28 550.66 491.91   Q 546.45 496.61 537.41 508.38   C 510.66 543.21 496.50 586.18 495.65 629.73   C 495.21 652.75 499.03 673.62 505.39 695.71   A 1.51 1.50 88.9 0 0 506.47 696.76   C 539.38 705.04 571.53 710.07 606.75 714.14   C 672.42 721.73 739.28 723.56 804.97 717.96   Q 845.85 714.47 875.14 710.07   Q 909.62 704.89 944.55 696.79"/>
<path stroke="#808080" vector-effect="non-scaling-stroke" d="   M 1024.79 678.88   A 0.29 0.29 0.0 0 0 1025.16 679.21   C 1043.21 673.22 1060.91 666.15 1082.25 657.04   Q 1107.74 646.17 1125.82 636.44   Q 1153.92 621.32 1179.22 604.47   Q 1198.82 591.42 1215.20 574.95   Q 1218.70 571.43 1224.73 563.49   C 1230.55 555.81 1235.74 544.27 1229.93 535.58   Q 1225.49 528.95 1217.73 525.01   C 1203.68 517.87 1188.67 514.14 1173.10 511.65   Q 1162.16 509.90 1142.44 508.31   Q 1111.12 505.78 1072.25 508.48   Q 1038.19 510.85 1003.87 515.08   A 0.56 0.55 -18.0 0 0 1003.45 515.90   Q 1008.72 525.57 1012.82 536.74   Q 1038.11 605.71 1024.79 678.88"/>
<path stroke="#808080" vector-effect="non-scaling-stroke" d="   M 446.95 514.39   C 421.45 511.71 412.34 510.40 393.48 509.20   Q 373.49 507.93 373.19 507.91   Q 354.16 506.82 326.76 507.54   Q 303.39 508.15 271.28 513.58   Q 257.94 515.83 245.34 520.08   Q 233.07 524.22 225.72 530.46   C 212.29 541.85 220.10 557.08 229.45 567.92   Q 244.85 585.76 263.16 598.94   Q 278.51 609.99 288.40 616.08   Q 331.84 642.81 381.81 662.62   Q 403.24 671.11 420.15 676.71   Q 422.48 677.48 424.96 678.85   A 0.44 0.44 0.0 0 0 425.60 678.37   C 420.91 656.14 420.51 632.44 421.82 610.75   Q 424.46 566.88 442.16 524.94   Q 444.20 520.13 447.17 514.82   A 0.29 0.29 0.0 0 0 446.95 514.39"/>
<path stroke="#808080" vector-effect="non-scaling-stroke" d="   M 1175.82 692.80   Q 1160.01 701.55 1142.57 710.34   C 1127.84 717.76 1114.76 723.01 1098.17 730.03   Q 1086.21 735.09 1074.40 739.26   Q 1054.45 746.29 1050.25 747.51   Q 1027.84 754.01 1025.74 754.64   C 1000.88 762.05 976.80 767.53 949.96 773.40   C 943.64 774.78 938.17 775.33 931.31 776.83   Q 928.50 777.44 917.31 779.24   Q 846.48 790.64 779.50 794.48   Q 738.69 796.82 699.25 795.67   Q 634.28 793.79 570.27 784.80   C 550.67 782.05 532.99 778.77 515.26 775.79   C 504.25 773.94 492.00 771.45 478.52 768.43   Q 426.82 756.86 378.04 740.00   Q 369.44 737.03 365.06 735.28   C 353.11 730.53 343.60 727.16 333.02 722.34   Q 301.86 708.16 273.50 692.87   A 0.15 0.14 -88.0 0 0 273.30 693.06   C 278.80 705.82 284.56 717.89 289.07 728.20   Q 319.80 798.45 355.57 866.94   Q 372.62 899.59 389.40 927.61   Q 408.74 959.91 421.90 980.35   Q 428.71 990.93 433.93 997.82   C 445.25 1012.75 462.39 1024.76 480.44 1028.82   Q 492.50 1031.53 504.56 1033.18   C 527.70 1036.34 549.50 1039.85 572.43 1042.31   Q 675.55 1053.36 773.25 1049.96   Q 828.72 1048.03 893.88 1040.47   C 908.14 1038.82 930.02 1035.37 941.22 1033.68   Q 960.17 1030.80 971.92 1027.66   Q 992.74 1022.09 1008.51 1006.78   C 1013.80 1001.65 1019.91 993.49 1023.88 987.37   Q 1054.15 940.81 1081.11 892.66   Q 1084.09 887.34 1090.61 874.67   Q 1092.64 870.74 1100.14 856.68   C 1106.56 844.64 1113.35 829.78 1120.12 816.24   C 1138.30 779.89 1154.28 742.70 1170.67 705.14   Q 1172.17 701.71 1176.21 693.17   A 0.28 0.28 0.0 0 0 1175.82 692.80"/>
</g>
<path xmlns="http://www.w3.org/2000/svg" fill="#000000" d="   M 1448.00 0.00   L 1448.00 1448.00   L 0.00 1448.00   L 0.00 0.00   L 1448.00 0.00   Z   M 489.14 445.90   Q 478.02 443.73 462.50 441.76   C 437.70 438.60 411.77 435.66 384.26 433.86   Q 356.63 432.05 339.16 432.30   Q 301.18 432.83 263.10 438.89   Q 247.23 441.42 235.03 444.82   C 213.82 450.75 193.15 459.11 176.79 472.55   C 160.97 485.54 148.74 504.87 145.33 525.67   Q 143.34 537.80 143.71 546.26   Q 144.48 564.13 150.42 582.32   Q 158.80 607.98 169.28 636.46   C 176.98 657.40 184.23 674.05 193.35 696.18   C 203.72 721.36 215.08 746.44 228.04 775.81   Q 241.20 805.64 246.07 815.69   C 256.82 837.86 264.31 852.63 273.51 871.76   Q 276.86 878.74 290.82 905.17   C 302.53 927.32 317.10 951.94 329.37 973.13   C 338.63 989.12 351.92 1009.41 366.35 1031.50   C 381.70 1055.01 401.78 1076.39 427.48 1088.26   Q 446.61 1097.10 463.78 1100.98   C 485.04 1105.78 509.23 1108.92 531.55 1111.90   Q 538.10 1112.77 576.51 1116.97   Q 617.90 1121.49 659.44 1123.60   C 726.60 1127.02 791.83 1125.25 858.71 1119.35   Q 870.28 1118.33 904.63 1114.60   Q 930.08 1111.84 966.14 1105.62   C 997.48 1100.22 1028.00 1090.85 1051.85 1068.63   C 1058.06 1062.84 1063.14 1058.21 1067.69 1052.45   C 1080.40 1036.36 1094.72 1015.65 1106.67 996.34   Q 1142.45 938.50 1165.26 894.28   Q 1185.43 855.18 1199.43 824.69   Q 1208.77 804.33 1233.63 748.83   C 1242.14 729.85 1248.65 713.39 1256.47 695.60   Q 1262.98 680.78 1270.89 660.89   Q 1284.26 627.26 1294.36 598.40   Q 1301.08 579.18 1302.33 574.51   Q 1305.91 561.10 1306.72 549.75   C 1308.54 524.45 1299.69 500.88 1282.55 482.09   C 1265.50 463.39 1243.50 452.14 1219.19 445.59   Q 1197.18 439.66 1176.00 436.94   Q 1125.21 430.43 1075.26 433.48   Q 1048.53 435.12 1006.83 440.05   C 991.38 441.88 979.71 443.95 964.77 446.19   C 961.96 446.61 960.77 446.54 959.01 444.55   C 933.59 415.74 903.67 391.73 869.39 373.80   C 838.87 357.84 806.62 346.09 772.21 341.25   Q 754.69 338.78 753.05 338.63   C 711.18 334.83 668.02 338.66 628.34 352.47   Q 600.97 361.99 577.35 375.34   Q 546.51 392.77 524.26 412.28   C 510.78 424.11 500.96 433.09 491.13 445.18   A 2.05 2.05 0.0 0 1 489.14 445.90   Z"/>
<path xmlns="http://www.w3.org/2000/svg" fill="#ffffff" d="   M 489.14 445.90   A 2.05 2.05 0.0 0 0 491.13 445.18   C 500.96 433.09 510.78 424.11 524.26 412.28   Q 546.51 392.77 577.35 375.34   Q 600.97 361.99 628.34 352.47   C 668.02 338.66 711.18 334.83 753.05 338.63   Q 754.69 338.78 772.21 341.25   C 806.62 346.09 838.87 357.84 869.39 373.80   C 903.67 391.73 933.59 415.74 959.01 444.55   C 960.77 446.54 961.96 446.61 964.77 446.19   C 979.71 443.95 991.38 441.88 1006.83 440.05   Q 1048.53 435.12 1075.26 433.48   Q 1125.21 430.43 1176.00 436.94   Q 1197.18 439.66 1219.19 445.59   C 1243.50 452.14 1265.50 463.39 1282.55 482.09   C 1299.69 500.88 1308.54 524.45 1306.72 549.75   Q 1305.91 561.10 1302.33 574.51   Q 1301.08 579.18 1294.36 598.40   Q 1284.26 627.26 1270.89 660.89   Q 1262.98 680.78 1256.47 695.60   C 1248.65 713.39 1242.14 729.85 1233.63 748.83   Q 1208.77 804.33 1199.43 824.69   Q 1185.43 855.18 1165.26 894.28   Q 1142.45 938.50 1106.67 996.34   C 1094.72 1015.65 1080.40 1036.36 1067.69 1052.45   C 1063.14 1058.21 1058.06 1062.84 1051.85 1068.63   C 1028.00 1090.85 997.48 1100.22 966.14 1105.62   Q 930.08 1111.84 904.63 1114.60   Q 870.28 1118.33 858.71 1119.35   C 791.83 1125.25 726.60 1127.02 659.44 1123.60   Q 617.90 1121.49 576.51 1116.97   Q 538.10 1112.77 531.55 1111.90   C 509.23 1108.92 485.04 1105.78 463.78 1100.98   Q 446.61 1097.10 427.48 1088.26   C 401.78 1076.39 381.70 1055.01 366.35 1031.50   C 351.92 1009.41 338.63 989.12 329.37 973.13   C 317.10 951.94 302.53 927.32 290.82 905.17   Q 276.86 878.74 273.51 871.76   C 264.31 852.63 256.82 837.86 246.07 815.69   Q 241.20 805.64 228.04 775.81   C 215.08 746.44 203.72 721.36 193.35 696.18   C 184.23 674.05 176.98 657.40 169.28 636.46   Q 158.80 607.98 150.42 582.32   Q 144.48 564.13 143.71 546.26   Q 143.34 537.80 145.33 525.67   C 148.74 504.87 160.97 485.54 176.79 472.55   C 193.15 459.11 213.82 450.75 235.03 444.82   Q 247.23 441.42 263.10 438.89   Q 301.18 432.83 339.16 432.30   Q 356.63 432.05 384.26 433.86   C 411.77 435.66 437.70 438.60 462.50 441.76   Q 478.02 443.73 489.14 445.90   Z   M 944.55 696.79   A 1.14 1.13 -88.6 0 0 945.39 695.98   C 953.23 667.19 956.60 636.83 953.19 607.78   C 949.98 580.43 941.28 554.43 927.41 530.48   Q 920.74 518.95 918.08 515.16   Q 899.28 488.42 873.75 466.49   C 863.59 457.76 851.98 450.50 840.22 443.56   C 813.76 427.95 784.00 417.02 753.51 413.67   Q 720.30 410.01 687.12 414.90   C 647.37 420.75 609.11 439.72 577.90 465.51   C 567.69 473.94 557.49 484.28 550.66 491.91   Q 546.45 496.61 537.41 508.38   C 510.66 543.21 496.50 586.18 495.65 629.73   C 495.21 652.75 499.03 673.62 505.39 695.71   A 1.51 1.50 88.9 0 0 506.47 696.76   C 539.38 705.04 571.53 710.07 606.75 714.14   C 672.42 721.73 739.28 723.56 804.97 717.96   Q 845.85 714.47 875.14 710.07   Q 909.62 704.89 944.55 696.79   Z   M 1024.79 678.88   A 0.29 0.29 0.0 0 0 1025.16 679.21   C 1043.21 673.22 1060.91 666.15 1082.25 657.04   Q 1107.74 646.17 1125.82 636.44   Q 1153.92 621.32 1179.22 604.47   Q 1198.82 591.42 1215.20 574.95   Q 1218.70 571.43 1224.73 563.49   C 1230.55 555.81 1235.74 544.27 1229.93 535.58   Q 1225.49 528.95 1217.73 525.01   C 1203.68 517.87 1188.67 514.14 1173.10 511.65   Q 1162.16 509.90 1142.44 508.31   Q 1111.12 505.78 1072.25 508.48   Q 1038.19 510.85 1003.87 515.08   A 0.56 0.55 -18.0 0 0 1003.45 515.90   Q 1008.72 525.57 1012.82 536.74   Q 1038.11 605.71 1024.79 678.88   Z   M 446.95 514.39   C 421.45 511.71 412.34 510.40 393.48 509.20   Q 373.49 507.93 373.19 507.91   Q 354.16 506.82 326.76 507.54   Q 303.39 508.15 271.28 513.58   Q 257.94 515.83 245.34 520.08   Q 233.07 524.22 225.72 530.46   C 212.29 541.85 220.10 557.08 229.45 567.92   Q 244.85 585.76 263.16 598.94   Q 278.51 609.99 288.40 616.08   Q 331.84 642.81 381.81 662.62   Q 403.24 671.11 420.15 676.71   Q 422.48 677.48 424.96 678.85   A 0.44 0.44 0.0 0 0 425.60 678.37   C 420.91 656.14 420.51 632.44 421.82 610.75   Q 424.46 566.88 442.16 524.94   Q 444.20 520.13 447.17 514.82   A 0.29 0.29 0.0 0 0 446.95 514.39   Z   M 1175.82 692.80   Q 1160.01 701.55 1142.57 710.34   C 1127.84 717.76 1114.76 723.01 1098.17 730.03   Q 1086.21 735.09 1074.40 739.26   Q 1054.45 746.29 1050.25 747.51   Q 1027.84 754.01 1025.74 754.64   C 1000.88 762.05 976.80 767.53 949.96 773.40   C 943.64 774.78 938.17 775.33 931.31 776.83   Q 928.50 777.44 917.31 779.24   Q 846.48 790.64 779.50 794.48   Q 738.69 796.82 699.25 795.67   Q 634.28 793.79 570.27 784.80   C 550.67 782.05 532.99 778.77 515.26 775.79   C 504.25 773.94 492.00 771.45 478.52 768.43   Q 426.82 756.86 378.04 740.00   Q 369.44 737.03 365.06 735.28   C 353.11 730.53 343.60 727.16 333.02 722.34   Q 301.86 708.16 273.50 692.87   A 0.15 0.14 -88.0 0 0 273.30 693.06   C 278.80 705.82 284.56 717.89 289.07 728.20   Q 319.80 798.45 355.57 866.94   Q 372.62 899.59 389.40 927.61   Q 408.74 959.91 421.90 980.35   Q 428.71 990.93 433.93 997.82   C 445.25 1012.75 462.39 1024.76 480.44 1028.82   Q 492.50 1031.53 504.56 1033.18   C 527.70 1036.34 549.50 1039.85 572.43 1042.31   Q 675.55 1053.36 773.25 1049.96   Q 828.72 1048.03 893.88 1040.47   C 908.14 1038.82 930.02 1035.37 941.22 1033.68   Q 960.17 1030.80 971.92 1027.66   Q 992.74 1022.09 1008.51 1006.78   C 1013.80 1001.65 1019.91 993.49 1023.88 987.37   Q 1054.15 940.81 1081.11 892.66   Q 1084.09 887.34 1090.61 874.67   Q 1092.64 870.74 1100.14 856.68   C 1106.56 844.64 1113.35 829.78 1120.12 816.24   C 1138.30 779.89 1154.28 742.70 1170.67 705.14   Q 1172.17 701.71 1176.21 693.17   A 0.28 0.28 0.0 0 0 1175.82 692.80   Z"/>
<path xmlns="http://www.w3.org/2000/svg" fill="#000000" d="   M 944.55 696.79   Q 909.62 704.89 875.14 710.07   Q 845.85 714.47 804.97 717.96   C 739.28 723.56 672.42 721.73 606.75 714.14   C 571.53 710.07 539.38 705.04 506.47 696.76   A 1.51 1.50 88.9 0 1 505.39 695.71   C 499.03 673.62 495.21 652.75 495.65 629.73   C 496.50 586.18 510.66 543.21 537.41 508.38   Q 546.45 496.61 550.66 491.91   C 557.49 484.28 567.69 473.94 577.90 465.51   C 609.11 439.72 647.37 420.75 687.12 414.90   Q 720.30 410.01 753.51 413.67   C 784.00 417.02 813.76 427.95 840.22 443.56   C 851.98 450.50 863.59 457.76 873.75 466.49   Q 899.28 488.42 918.08 515.16   Q 920.74 518.95 927.41 530.48   C 941.28 554.43 949.98 580.43 953.19 607.78   C 956.60 636.83 953.23 667.19 945.39 695.98   A 1.14 1.13 -88.6 0 1 944.55 696.79   Z"/>
<path xmlns="http://www.w3.org/2000/svg" fill="#000000" d="   M 1024.79 678.88   Q 1038.11 605.71 1012.82 536.74   Q 1008.72 525.57 1003.45 515.90   A 0.56 0.55 -18.0 0 1 1003.87 515.08   Q 1038.19 510.85 1072.25 508.48   Q 1111.12 505.78 1142.44 508.31   Q 1162.16 509.90 1173.10 511.65   C 1188.67 514.14 1203.68 517.87 1217.73 525.01   Q 1225.49 528.95 1229.93 535.58   C 1235.74 544.27 1230.55 555.81 1224.73 563.49   Q 1218.70 571.43 1215.20 574.95   Q 1198.82 591.42 1179.22 604.47   Q 1153.92 621.32 1125.82 636.44   Q 1107.74 646.17 1082.25 657.04   C 1060.91 666.15 1043.21 673.22 1025.16 679.21   A 0.29 0.29 0.0 0 1 1024.79 678.88   Z"/>
<path xmlns="http://www.w3.org/2000/svg" fill="#000000" d="   M 446.95 514.39   A 0.29 0.29 0.0 0 1 447.17 514.82   Q 444.20 520.13 442.16 524.94   Q 424.46 566.88 421.82 610.75   C 420.51 632.44 420.91 656.14 425.60 678.37   A 0.44 0.44 0.0 0 1 424.96 678.85   Q 422.48 677.48 420.15 676.71   Q 403.24 671.11 381.81 662.62   Q 331.84 642.81 288.40 616.08   Q 278.51 609.99 263.16 598.94   Q 244.85 585.76 229.45 567.92   C 220.10 557.08 212.29 541.85 225.72 530.46   Q 233.07 524.22 245.34 520.08   Q 257.94 515.83 271.28 513.58   Q 303.39 508.15 326.76 507.54   Q 354.16 506.82 373.19 507.91   Q 373.49 507.93 393.48 509.20   C 412.34 510.40 421.45 511.71 446.95 514.39   Z"/>
<path xmlns="http://www.w3.org/2000/svg" fill="#000000" d="   M 1175.82 692.80   A 0.28 0.28 0.0 0 1 1176.21 693.17   Q 1172.17 701.71 1170.67 705.14   C 1154.28 742.70 1138.30 779.89 1120.12 816.24   C 1113.35 829.78 1106.56 844.64 1100.14 856.68   Q 1092.64 870.74 1090.61 874.67   Q 1084.09 887.34 1081.11 892.66   Q 1054.15 940.81 1023.88 987.37   C 1019.91 993.49 1013.80 1001.65 1008.51 1006.78   Q 992.74 1022.09 971.92 1027.66   Q 960.17 1030.80 941.22 1033.68   C 930.02 1035.37 908.14 1038.82 893.88 1040.47   Q 828.72 1048.03 773.25 1049.96   Q 675.55 1053.36 572.43 1042.31   C 549.50 1039.85 527.70 1036.34 504.56 1033.18   Q 492.50 1031.53 480.44 1028.82   C 462.39 1024.76 445.25 1012.75 433.93 997.82   Q 428.71 990.93 421.90 980.35   Q 408.74 959.91 389.40 927.61   Q 372.62 899.59 355.57 866.94   Q 319.80 798.45 289.07 728.20   C 284.56 717.89 278.80 705.82 273.30 693.06   A 0.15 0.14 -88.0 0 1 273.50 692.87   Q 301.86 708.16 333.02 722.34   C 343.60 727.16 353.11 730.53 365.06 735.28   Q 369.44 737.03 378.04 740.00   Q 426.82 756.86 478.52 768.43   C 492.00 771.45 504.25 773.94 515.26 775.79   C 532.99 778.77 550.67 782.05 570.27 784.80   Q 634.28 793.79 699.25 795.67   Q 738.69 796.82 779.50 794.48   Q 846.48 790.64 917.31 779.24   Q 928.50 777.44 931.31 776.83   C 938.17 775.33 943.64 774.78 949.96 773.40   C 976.80 767.53 1000.88 762.05 1025.74 754.64   Q 1027.84 754.01 1050.25 747.51   Q 1054.45 746.29 1074.40 739.26   Q 1086.21 735.09 1098.17 730.03   C 1114.76 723.01 1127.84 717.76 1142.57 710.34   Q 1160.01 701.55 1175.82 692.80   Z"/>
</g></g></g></svg>