<svg xmlns="http://www.w3.org/2000/svg" direction="ltr" width="1200" height="896" viewBox="2283 7366 1200 896" stroke-linecap="round" stroke-linejoin="round" data-color-mode="light" class="tl-container tl-theme__force-sRGB tl-theme__light" style="background-color: transparent;"><defs/><g transform="matrix(1, 0, 0, 1, 2283, 7366)" opacity="1"><g transform="scale(1, 1.0000000000000002)"><g>
<path xmlns="http://www.w3.org/2000/svg" fill="#0c1011" d="   M 392.17 376.20   Q 393.06 374.89 393.42 373.67   Q 398.69 356.31 414.72 350.92   Q 420.12 349.10 428.73 349.15   Q 438.61 349.21 442.93 349.35   Q 444.64 349.41 446.69 350.58   C 450.79 352.90 449.15 368.42 448.61 372.19   C 447.13 382.65 438.75 391.94 428.75 395.59   C 425.46 396.79 421.04 397.17 418.22 398.21   Q 404.10 403.42 402.20 418.66   Q 401.86 421.34 401.24 429.52   Q 400.29 442.02 395.37 455.63   C 389.15 472.83 376.09 489.56 362.02 500.72   Q 342.99 515.80 316.94 520.68   A 1.04 1.03 89.3 0 0 316.10 521.55   Q 315.82 523.40 316.95 525.57   C 319.79 531.02 324.29 539.23 321.11 544.60   A 1.89 1.88 -88.7 0 1 320.37 545.31   Q 317.57 546.81 315.27 546.85   Q 295.19 547.17 280.27 538.69   Q 269.87 532.77 263.29 522.95   C 260.27 518.45 257.84 512.78 253.93 508.87   C 246.08 501.02 238.64 497.26 226.91 497.09   C 211.57 496.88 194.84 497.00 163.02 497.15   Q 160.24 497.16 154.22 495.56   Q 149.35 494.26 146.08 492.12   Q 136.04 485.56 134.97 472.63   C 133.32 452.79 137.85 434.48 146.86 417.36   Q 149.87 411.64 153.56 406.72   Q 168.83 386.41 191.80 376.05   Q 207.70 368.87 224.96 368.26   Q 241.94 367.66 258.82 373.18   C 279.03 379.79 293.99 393.51 308.71 408.16   Q 332.99 432.31 334.87 433.83   C 344.15 441.29 355.60 447.24 367.02 442.95   C 377.53 439.01 383.73 428.81 382.33 417.90   C 381.19 409.04 376.59 402.87 368.85 398.88   Q 367.54 398.20 360.50 396.73   Q 342.08 392.88 336.41 374.63   C 334.63 368.90 334.94 364.00 334.95 357.43   C 334.97 350.82 339.07 349.05 345.37 349.08   Q 360.97 349.14 361.75 349.16   Q 362.98 349.20 368.54 350.47   C 373.63 351.64 378.21 354.25 381.68 357.72   C 387.22 363.24 390.38 367.96 390.83 375.83   A 0.73 0.73 0.0 0 0 392.17 376.20   Z   M 236.0540 463.4634   A 6.42 6.30 -75.9 0 0 228.3798 468.1552   A 6.42 6.30 -75.9 0 0 232.9260 475.9166   A 6.42 6.30 -75.9 0 0 240.6002 471.2248   A 6.42 6.30 -75.9 0 0 236.0540 463.4634   Z"/>
<path xmlns="http://www.w3.org/2000/svg" fill="#0c1011" d="   M 956.67 428.79   A 1.27 1.27 0.0 0 0 958.28 427.57   L 958.28 392.66   A 1.57 1.57 0.0 0 1 959.85 391.09   L 969.03 391.09   A 1.29 1.28 0.0 0 1 970.32 392.37   L 970.32 501.47   A 1.11 1.11 0.0 0 1 969.21 502.58   L 960.56 502.58   A 0.91 0.90 -90.0 0 1 959.66 501.67   L 959.66 496.45   A 0.95 0.95 0.0 0 0 958.06 495.75   C 949.51 503.60 941.89 503.12 929.36 503.06   C 924.65 503.04 913.77 503.69 908.02 501.94   Q 896.91 498.55 893.34 488.60   Q 891.55 483.63 891.79 471.24   Q 891.94 463.56 891.80 448.75   C 891.68 436.76 896.46 426.54 908.85 423.69   Q 912.21 422.92 920.00 422.94   Q 924.18 422.95 941.80 423.11   C 945.17 423.14 950.78 424.57 954.20 427.34   Q 955.65 428.50 956.67 428.79   Z   M 958.1929 446.3450   A 12.96 12.96 0.0 0 0 945.1877 433.4303   L 916.6079 433.5301   A 12.96 12.96 0.0 0 0 903.6932 446.5352   L 903.8071 479.1750   A 12.96 12.96 0.0 0 0 916.8123 492.0897   L 945.3921 491.9899   A 12.96 12.96 0.0 0 0 958.3068 478.9848   L 958.1929 446.3450   Z"/>
<rect xmlns="http://www.w3.org/2000/svg" fill="#0c1011" x="-7.52" y="-8.20" transform="translate(868.95,399.49) rotate(0.1)" width="15.04" height="16.40" rx="3.54"/>
<path xmlns="http://www.w3.org/2000/svg" fill="#0c1011" d="   M 517.81 453.21   Q 517.79 453.19 517.74 453.12   C 502.51 434.00 493.57 423.23 488.71 416.11   A 0.61 0.60 -36.5 0 0 487.82 415.98   C 487.13 416.57 486.87 417.22 486.87 418.17   Q 487.21 459.43 487.03 499.60   Q 487.02 502.93 484.64 502.84   Q 480.59 502.70 475.56 502.67   A 0.81 0.81 0.0 0 1 474.75 501.86   L 474.75 397.30   A 0.78 0.78 0.0 0 1 475.53 396.52   L 485.76 396.52   A 4.30 4.27 71.1 0 1 489.15 398.19   Q 492.36 402.36 493.07 403.27   Q 494.71 405.41 497.20 408.26   Q 513.44 426.79 527.23 445.88   Q 527.24 445.90 527.30 445.97   C 542.53 465.09 551.47 475.86 556.33 482.98   A 0.61 0.60 -36.5 0 0 557.22 483.11   C 557.91 482.52 558.17 481.87 558.17 480.92   Q 557.83 439.66 558.01 399.49   Q 558.02 396.16 560.40 396.25   Q 564.45 396.39 569.48 396.42   A 0.81 0.81 0.0 0 1 570.29 397.23   L 570.29 501.79   A 0.78 0.78 0.0 0 1 569.51 502.57   L 559.28 502.57   A 4.30 4.27 71.1 0 1 555.89 500.90   Q 552.68 496.73 551.97 495.82   Q 550.33 493.68 547.83 490.84   Q 531.59 472.31 517.81 453.21   Z"/>
<path xmlns="http://www.w3.org/2000/svg" fill="#0c1011" d="   M 807.22 396.30   Q 807.79 396.30 808.00 396.30   Q 825.24 396.51 842.76 396.52   Q 847.97 396.53 851.33 396.77   A 0.66 0.65 -88.2 0 1 851.94 397.43   L 851.94 407.26   A 0.75 0.75 0.0 0 1 851.19 408.01   L 814.73 408.01   A 1.06 1.06 0.0 0 0 813.67 409.07   L 813.67 501.28   A 1.44 1.43 -2.8 0 1 812.37 502.71   Q 810.21 502.92 807.17 502.91   Q 804.14 502.91 801.98 502.70   A 1.44 1.43 2.8 0 1 800.68 501.27   L 800.75 409.06   A 1.06 1.06 0.0 0 0 799.69 408.00   L 763.23 407.97   A 0.75 0.75 0.0 0 1 762.48 407.22   L 762.49 397.39   A 0.66 0.65 88.2 0 1 763.10 396.73   Q 766.46 396.50 771.67 396.49   Q 789.19 396.50 806.44 396.30   Q 806.65 396.30 807.22 396.30   Z"/>
<path xmlns="http://www.w3.org/2000/svg" fill="#0c1011" d="   M 1062.89 493.08   L 1062.88 501.85   A 0.79 0.79 0.0 0 1 1062.23 502.63   Q 1060.92 502.89 1059.22 502.89   Q 1015.29 503.01 1012.69 503.03   C 1001.10 503.08 991.14 498.84 987.95 486.93   C 986.63 481.99 987.07 476.49 987.03 471.45   Q 986.87 455.40 987.14 445.69   Q 987.63 428.50 1003.25 423.44   Q 1005.79 422.62 1014.54 422.51   Q 1017.07 422.48 1033.36 422.49   C 1047.89 422.49 1060.32 423.25 1064.28 438.16   Q 1065.34 442.16 1065.22 452.19   Q 1065.16 458.04 1065.45 466.24   A 1.29 1.28 -1.2 0 1 1064.17 467.57   Q 1010.96 467.58 1000.97 467.51   Q 999.00 467.50 999.08 469.71   C 999.24 474.29 999.02 478.19 999.23 481.10   C 1000.01 492.16 1009.39 492.11 1018.14 492.06   Q 1044.19 491.90 1062.02 492.19   A 0.89 0.89 0.0 0 1 1062.89 493.08   Z   M 1000.92 457.34   L 1051.72 457.26   A 1.69 1.69 0.0 0 0 1053.41 455.56   L 1053.39 445.67   A 12.60 12.44 -0.1 0 0 1040.77 433.25   L 1011.79 433.31   A 12.60 12.44 -0.1 0 0 999.21 445.77   L 999.23 455.66   A 1.69 1.69 0.0 0 0 1000.92 457.34   Z"/>
<path xmlns="http://www.w3.org/2000/svg" fill="#0c1011" d="   M 664.16 493.07   L 664.16 501.84   A 0.79 0.79 0.0 0 1 663.51 502.62   Q 662.20 502.88 660.50 502.88   Q 616.60 503.04 614.00 503.06   C 602.42 503.13 592.46 498.90 589.26 487.00   C 587.94 482.06 588.38 476.57 588.33 471.53   Q 588.15 455.49 588.42 445.79   Q 588.89 428.61 604.49 423.54   Q 607.03 422.72 615.77 422.60   Q 618.30 422.57 634.58 422.56   C 649.10 422.55 661.52 423.29 665.49 438.19   Q 666.56 442.19 666.45 452.21   Q 666.39 458.05 666.69 466.25   A 1.29 1.28 -1.3 0 1 665.41 467.58   Q 612.24 467.64 602.26 467.58   Q 600.29 467.57 600.37 469.78   C 600.53 474.36 600.32 478.26 600.53 481.16   C 601.32 492.21 610.69 492.16 619.44 492.10   Q 645.47 491.91 663.29 492.18   A 0.89 0.89 0.0 0 1 664.16 493.07   Z   M 602.00 457.32   L 653.44 457.32   A 1.52 1.52 0.0 0 0 654.96 455.80   L 654.96 446.14   A 12.99 12.82 -0.0 0 0 641.97 433.32   L 613.47 433.32   A 12.99 12.82 0.0 0 0 600.48 446.14   L 600.48 455.80   A 1.52 1.52 0.0 0 0 602.00 457.32   Z"/>
<rect xmlns="http://www.w3.org/2000/svg" fill="#0c1011" x="-6.10" y="-39.76" transform="translate(869.10,462.97) rotate(-0.1)" width="12.20" height="79.52" rx="1.46"/>
<path xmlns="http://www.w3.org/2000/svg" fill="#0c1011" d="   M 675.92 502.85   A 0.30 0.29 16.8 0 1 675.67 502.40   Q 677.82 499.21 680.45 495.95   Q 695.72 477.00 707.27 463.90   A 2.16 2.06 -15.5 0 0 707.70 463.18   Q 708.11 461.98 706.47 460.10   Q 696.96 449.17 676.76 424.82   A 0.79 0.79 0.0 0 1 677.38 423.52   Q 682.38 423.60 687.99 423.37   C 690.10 423.28 691.67 424.46 693.13 426.21   Q 706.60 442.46 715.31 453.29   A 0.87 0.86 47.9 0 0 716.60 453.36   Q 719.08 450.87 720.54 449.04   Q 727.59 440.22 733.85 433.09   Q 738.95 427.28 740.13 425.64   Q 741.29 424.03 743.01 423.34   A 2.44 2.37 -55.3 0 1 743.92 423.16   Q 744.47 423.16 751.99 423.23   Q 754.06 423.25 755.63 423.83   A 0.61 0.61 0.0 0 1 755.89 424.80   Q 740.75 442.70 740.29 443.28   Q 732.21 453.53 726.63 459.36   C 724.73 461.34 724.45 462.62 726.32 464.87   Q 744.01 486.21 757.47 502.18   A 0.42 0.42 0.0 0 1 757.14 502.87   L 743.78 502.87   A 2.45 2.43 -19.7 0 1 741.90 501.99   L 716.60 471.29   A 0.63 0.63 0.0 0 0 715.63 471.29   L 691.20 500.95   A 5.24 5.22 -70.2 0 1 687.17 502.85   L 675.92 502.85   Z"/>
<path xmlns="http://www.w3.org/2000/svg" fill="#0c1011" d="   M 156.07 505.11   Q 169.98 505.13 226.02 505.04   Q 229.88 505.04 235.76 506.68   C 243.57 508.87 248.49 513.39 252.23 520.44   A 0.59 0.59 0.0 0 1 251.76 521.31   Q 247.14 521.74 241.50 521.69   Q 227.16 521.58 209.26 521.59   Q 194.18 521.59 179.90 517.56   C 170.64 514.95 163.40 510.93 155.91 505.61   A 0.28 0.27 62.9 0 1 156.07 505.11   Z"/>
</g></g></g></svg>