<svg xmlns="http://www.w3.org/2000/svg" direction="ltr" width="1024" height="1024" viewBox="4833.516884231805 2822.36088976492 1024 1024" stroke-linecap="round" stroke-linejoin="round" data-color-mode="light" class="tl-container tl-theme__force-sRGB tl-theme__light" style="background-color: transparent;">
  
  <defs>
    <clipPath id="circle-mask">
      <circle cx="5345.516884231805" cy="3334.36088976492" r="512" />
    </clipPath>
  </defs>

  <g clip-path="url(#circle-mask)">
    <defs/><g transform="matrix(1, 0, 0, 1, 4833.5169, 2822.3609)" opacity="1"><g transform="scale(1, 1)"><g>
<g xmlns="http://www.w3.org/2000/svg" stroke-width="2.00" fill="none" stroke-linecap="butt">
<path stroke="#808080" vector-effect="non-scaling-stroke" d="   M 745.42 352.40   Q 742.82 337.24 737.94 326.57   Q 727.31 303.30 704.46 291.07   Q 689.14 282.86 670.02 282.95   Q 625.57 283.14 625.37 283.15   C 618.51 283.36 613.78 288.15 612.43 294.56   Q 612.20 295.67 612.21 302.94   C 612.24 314.05 611.60 323.05 612.97 331.98   C 617.13 359.24 636.52 381.94 662.49 390.64   C 668.60 392.69 676.11 393.73 682.65 395.33   C 703.56 400.47 718.51 418.92 722.17 439.59   C 727.72 470.89 702.97 502.04 671.26 503.41   C 659.33 503.92 647.04 500.94 635.86 495.01   Q 623.98 488.72 615.66 481.82   Q 605.90 473.73 601.68 469.60   Q 576.64 445.13 561.09 429.14   C 545.48 413.09 530.35 398.41 514.09 384.42   C 478.25 353.59 434.92 332.51 387.84 327.49   C 360.51 324.58 334.15 326.88 307.96 333.97   Q 254.32 348.49 214.27 387.33   C 170.71 429.58 146.35 487.92 145.54 548.51   C 145.29 567.18 145.49 581.14 154.61 595.78   C 166.50 614.85 186.08 625.66 208.51 625.67   Q 322.10 625.73 358.41 625.62   Q 370.37 625.58 377.49 626.99   Q 399.39 631.34 416.06 646.48   Q 427.29 656.67 433.96 668.30   Q 440.19 679.14 446.81 688.70   C 467.08 718.00 500.29 735.48 535.27 739.65   Q 546.83 741.02 557.64 740.94   C 566.57 740.88 581.43 742.43 582.75 729.75   Q 583.41 723.48 581.29 718.23   Q 577.50 708.84 566.17 682.22   A 0.62 0.62 0.0 0 1 566.65 681.37   Q 615.96 673.87 657.95 646.42   Q 690.81 624.93 715.48 594.24   Q 720.52 587.97 727.12 578.16   Q 754.50 537.41 763.29 489.79   Q 766.09 474.62 767.58 450.84   C 768.43 437.13 770.49 426.57 778.55 415.78   Q 788.86 401.97 804.97 396.36   C 810.72 394.36 818.87 393.22 824.29 391.77   C 854.96 383.58 876.09 357.01 878.03 325.27   Q 878.57 316.50 878.32 302.29   C 878.17 293.86 877.34 286.19 868.93 283.59   Q 866.96 282.98 856.45 283.02   Q 835.68 283.11 824.66 283.01   C 811.00 282.89 801.60 284.44 789.69 289.68   Q 771.01 297.88 759.48 314.41   Q 749.93 328.09 746.07 348.92   Q 745.82 350.29 746.65 351.52   Q 747.33 352.53 747.20 352.74   A 0.97 0.97 0.0 0 1 745.42 352.40"/>
<path stroke="#808080" vector-effect="non-scaling-stroke" d="   M 193.85 644.89   Q 194.28 645.37 194.63 645.63   C 219.65 664.37 248.41 675.32 280.44 680.60   Q 295.39 683.06 310.50 683.05   Q 372.10 683.02 420.36 683.09   A 0.25 0.25 0.0 0 0 420.58 682.72   C 410.57 663.58 396.71 651.05 375.38 646.06   Q 369.41 644.66 356.08 644.67   Q 236.36 644.80 193.97 644.62   A 0.16 0.16 0.0 0 0 193.85 644.89"/>
<path stroke="#808080" vector-effect="non-scaling-stroke" d="   M 377.9049 547.2504   A 15.03 14.47 -89.6 0 0 363.3304 562.1790   A 15.03 14.47 -89.6 0 0 377.6951 577.3096   A 15.03 14.47 -89.6 0 0 392.2696 562.3810   A 15.03 14.47 -89.6 0 0 377.9049 547.2504"/>
</g>
<path xmlns="http://www.w3.org/2000/svg" fill="#000000" d="   M 1024.00 0.00   L 1024.00 1024.00   L 0.00 1024.00   L 0.00 0.00   L 1024.00 0.00   Z   M 745.42 352.40   Q 742.82 337.24 737.94 326.57   Q 727.31 303.30 704.46 291.07   Q 689.14 282.86 670.02 282.95   Q 625.57 283.14 625.37 283.15   C 618.51 283.36 613.78 288.15 612.43 294.56   Q 612.20 295.67 612.21 302.94   C 612.24 314.05 611.60 323.05 612.97 331.98   C 617.13 359.24 636.52 381.94 662.49 390.64   C 668.60 392.69 676.11 393.73 682.65 395.33   C 703.56 400.47 718.51 418.92 722.17 439.59   C 727.72 470.89 702.97 502.04 671.26 503.41   C 659.33 503.92 647.04 500.94 635.86 495.01   Q 623.98 488.72 615.66 481.82   Q 605.90 473.73 601.68 469.60   Q 576.64 445.13 561.09 429.14   C 545.48 413.09 530.35 398.41 514.09 384.42   C 478.25 353.59 434.92 332.51 387.84 327.49   C 360.51 324.58 334.15 326.88 307.96 333.97   Q 254.32 348.49 214.27 387.33   C 170.71 429.58 146.35 487.92 145.54 548.51   C 145.29 567.18 145.49 581.14 154.61 595.78   C 166.50 614.85 186.08 625.66 208.51 625.67   Q 322.10 625.73 358.41 625.62   Q 370.37 625.58 377.49 626.99   Q 399.39 631.34 416.06 646.48   Q 427.29 656.67 433.96 668.30   Q 440.19 679.14 446.81 688.70   C 467.08 718.00 500.29 735.48 535.27 739.65   Q 546.83 741.02 557.64 740.94   C 566.57 740.88 581.43 742.43 582.75 729.75   Q 583.41 723.48 581.29 718.23   Q 577.50 708.84 566.17 682.22   A 0.62 0.62 0.0 0 1 566.65 681.37   Q 615.96 673.87 657.95 646.42   Q 690.81 624.93 715.48 594.24   Q 720.52 587.97 727.12 578.16   Q 754.50 537.41 763.29 489.79   Q 766.09 474.62 767.58 450.84   C 768.43 437.13 770.49 426.57 778.55 415.78   Q 788.86 401.97 804.97 396.36   C 810.72 394.36 818.87 393.22 824.29 391.77   C 854.96 383.58 876.09 357.01 878.03 325.27   Q 878.57 316.50 878.32 302.29   C 878.17 293.86 877.34 286.19 868.93 283.59   Q 866.96 282.98 856.45 283.02   Q 835.68 283.11 824.66 283.01   C 811.00 282.89 801.60 284.44 789.69 289.68   Q 771.01 297.88 759.48 314.41   Q 749.93 328.09 746.07 348.92   Q 745.82 350.29 746.65 351.52   Q 747.33 352.53 747.20 352.74   A 0.97 0.97 0.0 0 1 745.42 352.40   Z   M 193.85 644.89   Q 194.28 645.37 194.63 645.63   C 219.65 664.37 248.41 675.32 280.44 680.60   Q 295.39 683.06 310.50 683.05   Q 372.10 683.02 420.36 683.09   A 0.25 0.25 0.0 0 0 420.58 682.72   C 410.57 663.58 396.71 651.05 375.38 646.06   Q 369.41 644.66 356.08 644.67   Q 236.36 644.80 193.97 644.62   A 0.16 0.16 0.0 0 0 193.85 644.89   Z"/>
<path xmlns="http://www.w3.org/2000/svg" fill="#ffffff" d="   M 747.20 352.74   Q 747.33 352.53 746.65 351.52   Q 745.82 350.29 746.07 348.92   Q 749.93 328.09 759.48 314.41   Q 771.01 297.88 789.69 289.68   C 801.60 284.44 811.00 282.89 824.66 283.01   Q 835.68 283.11 856.45 283.02   Q 866.96 282.98 868.93 283.59   C 877.34 286.19 878.17 293.86 878.32 302.29   Q 878.57 316.50 878.03 325.27   C 876.09 357.01 854.96 383.58 824.29 391.77   C 818.87 393.22 810.72 394.36 804.97 396.36   Q 788.86 401.97 778.55 415.78   C 770.49 426.57 768.43 437.13 767.58 450.84   Q 766.09 474.62 763.29 489.79   Q 754.50 537.41 727.12 578.16   Q 720.52 587.97 715.48 594.24   Q 690.81 624.93 657.95 646.42   Q 615.96 673.87 566.65 681.37   A 0.62 0.62 0.0 0 0 566.17 682.22   Q 577.50 708.84 581.29 718.23   Q 583.41 723.48 582.75 729.75   C 581.43 742.43 566.57 740.88 557.64 740.94   Q 546.83 741.02 535.27 739.65   C 500.29 735.48 467.08 718.00 446.81 688.70   Q 440.19 679.14 433.96 668.30   Q 427.29 656.67 416.06 646.48   Q 399.39 631.34 377.49 626.99   Q 370.37 625.58 358.41 625.62   Q 322.10 625.73 208.51 625.67   C 186.08 625.66 166.50 614.85 154.61 595.78   C 145.49 581.14 145.29 567.18 145.54 548.51   C 146.35 487.92 170.71 429.58 214.27 387.33   Q 254.32 348.49 307.96 333.97   C 334.15 326.88 360.51 324.58 387.84 327.49   C 434.92 332.51 478.25 353.59 514.09 384.42   C 530.35 398.41 545.48 413.09 561.09 429.14   Q 576.64 445.13 601.68 469.60   Q 605.90 473.73 615.66 481.82   Q 623.98 488.72 635.86 495.01   C 647.04 500.94 659.33 503.92 671.26 503.41   C 702.97 502.04 727.72 470.89 722.17 439.59   C 718.51 418.92 703.56 400.47 682.65 395.33   C 676.11 393.73 668.60 392.69 662.49 390.64   C 636.52 381.94 617.13 359.24 612.97 331.98   C 611.60 323.05 612.24 314.05 612.21 302.94   Q 612.20 295.67 612.43 294.56   C 613.78 288.15 618.51 283.36 625.37 283.15   Q 625.57 283.14 670.02 282.95   Q 689.14 282.86 704.46 291.07   Q 727.31 303.30 737.94 326.57   Q 742.82 337.24 745.42 352.40   A 0.97 0.97 0.0 0 0 747.20 352.74   Z   M 377.9049 547.2504   A 15.03 14.47 -89.6 0 0 363.3304 562.1790   A 15.03 14.47 -89.6 0 0 377.6951 577.3096   A 15.03 14.47 -89.6 0 0 392.2696 562.3810   A 15.03 14.47 -89.6 0 0 377.9049 547.2504   Z"/>
<ellipse xmlns="http://www.w3.org/2000/svg" fill="#000000" cx="0.00" cy="0.00" transform="translate(377.80,562.28) rotate(-89.6)" rx="15.03" ry="14.47"/>
<path xmlns="http://www.w3.org/2000/svg" fill="#ffffff" d="   M 193.85 644.89   A 0.16 0.16 0.0 0 1 193.97 644.62   Q 236.36 644.80 356.08 644.67   Q 369.41 644.66 375.38 646.06   C 396.71 651.05 410.57 663.58 420.58 682.72   A 0.25 0.25 0.0 0 1 420.36 683.09   Q 372.10 683.02 310.50 683.05   Q 295.39 683.06 280.44 680.60   C 248.41 675.32 219.65 664.37 194.63 645.63   Q 194.28 645.37 193.85 644.89   Z"/>
</g></g></g>
  </g>
</svg>