<svg xmlns="http://www.w3.org/2000/svg" direction="ltr" width="1200" height="896" viewBox="2283 3740 1200 896" stroke-linecap="round" stroke-linejoin="round" data-color-mode="light" class="tl-container tl-theme__force-sRGB tl-theme__light" style="background-color: transparent;"><defs/><g transform="matrix(1, 0, 0, 1, 2283, 3740)" opacity="1"><g transform="scale(1, 1.0000000000000002)"><g>
<g xmlns="http://www.w3.org/2000/svg" stroke-width="2.00" fill="none" stroke-linecap="butt">
<path stroke="#7a7b7b" stroke-opacity="0.988" vector-effect="non-scaling-stroke" d="   M 599.06 376.50   Q 595.77 389.33 592.88 402.20   L 592.89 402.20   Q 596.92 389.89 600.84 377.52"/>
<path stroke="#7a7b7b" stroke-opacity="0.988" vector-effect="non-scaling-stroke" d="   M 1032.21 363.44   L 1035.20 363.09"/>
<path stroke="#7a7b7b" stroke-opacity="0.988" vector-effect="non-scaling-stroke" d="   M 1038.46 365.67   L 1033.53 375.96   A 0.27 0.26 -69.6 0 0 1033.70 376.34   L 1034.01 376.42   A 0.08 0.07 -67.3 0 0 1034.10 376.38   L 1040.26 366.36"/>
<path stroke="#7a7b7b" stroke-opacity="0.988" vector-effect="non-scaling-stroke" d="   M 1013.70 502.75   L 1012.97 501.49"/>
<path stroke="#7a7b7b" stroke-opacity="0.988" vector-effect="non-scaling-stroke" d="   M 1012.18 501.07   Q 1012.44 502.88 1013.62 504.14   A 0.29 0.29 0.0 0 0 1014.12 503.92   Q 1014.09 503.53 1013.74 502.96"/>
<path stroke="#7a7b7b" stroke-opacity="0.988" vector-effect="non-scaling-stroke" d="   M 952.25 536.18   Q 952.72 535.49 952.63 535.07   A 0.34 0.34 0.0 0 0 951.99 534.98   Q 951.80 535.35 951.80 535.90"/>
<path stroke="#7a7b7b" stroke-opacity="0.988" vector-effect="non-scaling-stroke" d="   M 947.16 529.64   L 951.38 517.52   A 0.12 0.06 73.2 0 0 951.39 517.47   Q 951.38 517.45 951.38 517.44   A 0.02 0.01 64.7 0 0 951.35 517.42   Q 948.44 523.56 945.55 529.65"/>
<path stroke="#7a7b7b" stroke-opacity="0.988" vector-effect="non-scaling-stroke" d="   M 1012.97 501.49   Q 1012.67 501.00 1012.18 501.07"/>
<path stroke="#7a7b7b" stroke-opacity="0.988" vector-effect="non-scaling-stroke" d="   M 706.43 378.29   Q 705.80 382.18 706.46 386.05   A 0.09 0.09 0.0 0 0 706.64 386.04   L 707.09 379.55"/>
<path stroke="#7a7b7b" stroke-opacity="0.988" vector-effect="non-scaling-stroke" d="   M 697.48 369.26   Q 697.41 370.36 697.78 370.78   Q 698.41 371.49 698.91 370.37   Q 699.35 369.40 699.08 368.16"/>
<path stroke="#7a7b7b" stroke-opacity="0.988" vector-effect="non-scaling-stroke" d="   M 571.7854 511.1862   A 1.58 0.32 -81.8 0 0 571.2433 512.7044   A 1.58 0.32 -81.8 0 0 571.3346 514.3138   A 1.58 0.32 -81.8 0 0 571.8767 512.7956   A 1.58 0.32 -81.8 0 0 571.7854 511.1862"/>
<path stroke="#7a7b7b" stroke-opacity="0.988" vector-effect="non-scaling-stroke" d="   M 1004.0659 485.8611   A 0.35 0.35 0.0 0 0 1003.5869 485.7363   L 1003.5696 485.7465   A 0.35 0.35 0.0 0 0 1003.4449 486.2255   L 1010.0941 497.5589   A 0.35 0.35 0.0 0 0 1010.5731 497.6837   L 1010.5904 497.6735   A 0.35 0.35 0.0 0 0 1010.7151 497.1945   L 1004.0659 485.8611"/>
<path stroke="#7a7b7b" stroke-opacity="0.988" vector-effect="non-scaling-stroke" d="   M 695.6275 490.4101   A 4.66 0.35 -90.4 0 0 695.3100 495.0724   A 4.66 0.35 -90.4 0 0 695.6925 499.7299   A 4.66 0.35 -90.4 0 0 696.0100 495.0676   A 4.66 0.35 -90.4 0 0 695.6275 490.4101"/>
<path stroke="#7a7b7b" stroke-opacity="0.988" vector-effect="non-scaling-stroke" d="   M 841.8597 493.3085   A 0.29 0.29 0.0 0 0 841.5682 493.0201   L 841.5282 493.0203   A 0.29 0.29 0.0 0 0 841.2397 493.3118   L 841.3603 516.3515   A 0.29 0.29 0.0 0 0 841.6518 516.6399   L 841.6918 516.6397   A 0.29 0.29 0.0 0 0 841.9803 516.3482   L 841.8597 493.3085"/>
<path stroke="#7a7b7b" stroke-opacity="0.988" vector-effect="non-scaling-stroke" d="   M 818.89 471.60   L 816.31 443.26   A 0.15 0.15 0.0 0 0 816.14 443.12   L 815.36 443.19   A 0.24 0.22 84.8 0 0 815.16 443.45   L 817.72 471.61   A 0.24 0.22 84.8 0 0 817.96 471.83   L 818.75 471.76   A 0.15 0.15 0.0 0 0 818.89 471.60"/>
<path stroke="#7a7b7b" stroke-opacity="0.988" vector-effect="non-scaling-stroke" d="   M 767.95 471.72   Q 767.98 470.46 767.81 470.16   A 0.31 0.31 0.0 0 0 767.23 470.27   Q 767.12 471.05 767.51 471.82   A 0.23 0.23 0.0 0 0 767.95 471.72"/>
<path stroke="#7a7b7b" stroke-opacity="0.988" vector-effect="non-scaling-stroke" d="   M 768.52 473.48   L 767.95 472.51   A 0.23 0.23 0.0 0 0 767.52 472.65   Q 767.75 475.24 768.30 477.00   A 0.27 0.27 0.0 0 0 768.82 476.90   L 768.52 473.48"/>
<path stroke="#7a7b7b" stroke-opacity="0.988" vector-effect="non-scaling-stroke" d="   M 769.07 511.29   Q 772.79 515.10 779.16 516.43   A 0.14 0.13 65.1 0 0 779.25 516.18   L 769.39 510.87   A 0.27 0.27 0.0 0 0 769.07 511.29"/>
</g>
<path xmlns="http://www.w3.org/2000/svg" fill="#000000" d="   M 479.78 354.84   A 0.43 0.43 0.0 0 0 480.31 354.48   C 482.32 337.43 493.96 323.45 510.20 318.32   Q 515.25 316.73 523.93 316.73   Q 544.23 316.71 546.48 316.84   C 550.79 317.09 553.58 321.29 553.84 325.20   Q 553.87 325.77 554.01 336.54   C 554.22 353.71 545.91 369.78 530.23 377.29   C 525.63 379.49 520.67 380.46 515.02 381.71   Q 508.12 383.25 501.08 389.99   C 494.34 396.46 492.11 405.23 491.60 414.27   C 490.74 429.45 488.72 444.09 483.83 457.63   Q 470.42 494.70 440.64 519.63   Q 429.97 528.57 414.96 536.40   Q 407.36 540.36 397.77 543.24   Q 386.44 546.65 379.81 547.57   A 1.23 1.22 73.2 0 0 378.88 549.31   Q 384.48 561.08 387.36 570.91   Q 388.61 575.19 386.53 579.54   A 1.78 1.77 -2.6 0 1 385.85 580.28   Q 383.23 581.88 380.92 582.12   C 356.47 584.64 331.52 576.08 315.47 557.33   Q 311.33 552.49 304.67 540.06   Q 302.49 535.97 296.83 529.66   C 290.07 522.12 278.53 515.61 268.03 515.48   Q 252.05 515.29 183.72 515.41   Q 173.78 515.43 169.45 514.16   C 159.13 511.14 150.58 505.05 146.58 495.50   C 142.25 485.16 141.87 472.77 142.96 460.89   Q 147.04 416.59 175.68 383.36   C 197.17 358.44 228.82 342.71 261.91 341.87   Q 292.20 341.10 319.76 355.28   Q 337.74 364.53 352.48 378.33   C 365.03 390.08 374.05 399.69 388.67 415.11   C 393.84 420.56 398.27 424.52 405.02 430.76   Q 412.24 437.44 421.53 441.46   C 436.85 448.09 453.16 443.67 462.05 429.57   C 472.53 412.97 465.60 390.77 447.69 382.83   Q 446.15 382.15 438.04 380.42   Q 431.70 379.06 428.59 377.67   C 417.26 372.61 408.35 361.06 405.46 349.32   C 403.58 341.68 404.10 334.87 404.23 325.25   C 404.31 318.80 409.54 316.58 415.25 316.67   Q 422.62 316.79 432.68 316.68   Q 442.86 316.56 447.69 318.04   C 464.94 323.32 475.82 336.74 478.93 354.19   A 0.71 0.70 -88.1 0 0 479.45 354.75   L 479.78 354.84   Z   M 271.8614 469.9092   A 8.73 8.06 -93.8 0 0 264.3977 479.1542   A 8.73 8.06 -93.8 0 0 273.0186 487.3308   A 8.73 8.06 -93.8 0 0 280.4823 478.0858   A 8.73 8.06 -93.8 0 0 271.8614 469.9092   Z"/>
<path xmlns="http://www.w3.org/2000/svg" fill="#000000" d="   M 599.06 376.50   Q 595.77 389.33 592.88 402.20   L 592.89 402.20   Q 596.92 389.89 600.84 377.52   C 602.70 375.04 603.20 372.73 604.27 369.98   A 2.83 2.77 -9.8 0 1 605.08 368.86   C 608.91 365.64 605.68 361.30 611.11 359.32   C 614.13 358.22 614.70 363.08 618.44 361.15   C 619.48 360.62 619.44 359.57 620.08 358.78   A 2.07 2.05 -79.5 0 1 621.03 358.12   C 626.84 356.23 629.28 359.53 630.43 364.34   Q 631.00 366.74 631.56 367.94   A 5.80 5.54 -78.4 0 0 632.27 369.07   Q 634.92 372.30 635.56 374.89   Q 639.68 391.46 644.67 417.69   C 646.78 428.74 649.23 439.44 651.41 448.42   C 652.54 453.11 654.01 456.78 654.65 461.31   C 655.37 466.38 657.51 472.12 658.31 476.54   Q 659.64 483.84 660.38 486.45   C 661.96 492.05 663.35 502.77 665.86 510.67   Q 667.81 516.80 668.16 518.55   Q 668.52 520.40 667.68 521.56   Q 667.06 522.42 664.90 521.75   A 2.05 1.98 8.3 0 0 662.24 523.66   Q 662.26 524.85 661.94 525.87   A 1.40 1.39 -87.7 0 1 660.93 526.81   Q 653.88 528.46 652.85 521.67   A 0.91 0.90 -29.9 0 0 651.25 521.24   L 650.32 522.40   A 1.47 1.43 7.7 0 1 649.75 522.82   Q 646.39 524.25 643.70 524.17   A 2.54 2.53 -9.2 0 1 641.39 522.51   C 639.24 516.64 638.53 510.76 637.05 504.70   Q 631.05 480.15 630.18 476.16   A 1.85 1.84 -7.8 0 0 628.26 474.71   L 593.39 476.94   A 2.20 2.20 0.0 0 0 591.39 478.65   Q 588.58 490.83 587.10 499.16   C 586.18 504.32 584.11 509.16 583.13 514.69   A 12.66 11.92 -31.0 0 1 582.48 517.00   Q 580.43 522.27 577.95 527.62   Q 576.97 529.72 574.53 530.07   A 2.16 2.12 83.3 0 1 572.11 528.13   Q 571.52 521.74 571.34 516.88   A 0.40 0.40 0.0 0 0 570.76 516.54   Q 570.42 516.72 569.94 515.99   A 0.25 0.24 -63.2 0 0 569.49 516.14   Q 569.72 520.18 567.39 522.47   C 565.18 524.66 562.26 523.65 561.45 520.82   A 1.90 1.80 43.5 0 1 561.41 520.06   Q 562.84 511.44 563.74 504.86   C 564.92 496.31 567.59 486.62 568.99 477.99   A 1.07 1.05 -85.0 0 0 567.97 476.76   Q 565.36 476.71 563.28 475.92   A 1.31 1.26 -0.1 0 1 562.55 475.22   L 560.70 470.97   A 1.70 1.70 0.0 0 1 561.41 468.82   L 563.76 467.46   A 0.44 0.44 0.0 0 0 563.74 466.68   C 561.77 465.71 560.12 466.18 558.48 464.12   C 557.13 462.42 559.40 460.21 560.95 459.70   Q 566.68 457.85 572.55 457.06   A 1.34 1.32 1.8 0 0 573.67 456.02   Q 577.48 438.35 579.97 426.20   Q 582.68 412.96 591.21 382.49   Q 592.67 377.28 594.66 374.23   A 2.25 2.19 0.8 0 1 595.42 373.51   Q 596.56 372.85 598.12 373.42   A 1.08 1.06 1.3 0 1 598.78 374.10   Q 599.17 375.31 599.06 376.50   Z   M 613.17 396.17   A 0.69 0.69 0.0 0 0 611.83 396.14   L 596.88 453.60   A 0.69 0.69 0.0 0 0 597.57 454.46   L 624.84 453.55   A 0.69 0.69 0.0 0 0 625.49 452.71   L 613.17 396.17   Z   M 571.7854 511.1862   A 1.58 0.32 -81.8 0 0 571.2433 512.7044   A 1.58 0.32 -81.8 0 0 571.3346 514.3138   A 1.58 0.32 -81.8 0 0 571.8767 512.7956   A 1.58 0.32 -81.8 0 0 571.7854 511.1862   Z"/>
<path xmlns="http://www.w3.org/2000/svg" fill="#000000" d="   M 1032.21 363.44   L 1035.20 363.09   Q 1037.93 363.27 1038.46 365.67   L 1033.53 375.96   A 0.27 0.26 -69.6 0 0 1033.70 376.34   L 1034.01 376.42   A 0.08 0.07 -67.3 0 0 1034.10 376.38   L 1040.26 366.36   C 1042.16 363.61 1045.89 366.55 1046.28 368.98   A 1.91 1.91 0.0 0 1 1046.20 369.92   Q 1044.56 374.58 1044.03 375.50   Q 1033.54 393.51 1030.94 398.45   Q 1022.93 413.67 1010.32 440.76   C 1009.07 443.44 1007.77 445.30 1006.69 447.77   A 3.21 3.21 0.0 0 0 1006.81 450.59   C 1011.71 459.64 1017.65 471.80 1023.73 482.91   C 1029.96 494.30 1038.79 506.02 1043.53 516.45   C 1045.40 520.58 1042.77 522.49 1039.20 523.58   A 1.10 1.10 0.0 0 0 1038.49 524.25   C 1037.77 526.29 1041.16 530.48 1036.33 531.11   C 1033.01 531.53 1030.43 527.42 1028.75 526.20   A 3.75 3.68 4.6 0 1 1027.65 524.93   Q 1027.01 523.73 1022.56 516.49   C 1020.62 513.34 1017.74 510.19 1016.37 506.69   C 1015.81 505.25 1014.78 504.06 1013.94 502.54   A 0.06 0.05 -43.0 0 0 1013.85 502.54   Q 1013.77 502.64 1013.70 502.75   L 1012.97 501.49   Q 1013.15 501.54 1013.26 501.56   A 0.20 0.20 0.0 0 0 1013.47 501.26   L 1011.42 497.71   A 0.25 0.25 0.0 0 0 1010.97 497.75   Q 1010.26 499.70 1011.85 501.10   A 0.03 0.03 0.0 0 0 1011.90 501.08   Q 1011.93 500.89 1012.18 501.07   Q 1012.44 502.88 1013.62 504.14   A 0.29 0.29 0.0 0 0 1014.12 503.92   Q 1014.09 503.53 1013.74 502.96   Q 1014.21 502.94 1014.23 503.27   Q 1014.54 508.36 1017.17 511.85   Q 1018.59 513.72 1019.08 515.59   C 1019.95 518.87 1023.12 520.83 1024.34 523.89   Q 1025.55 526.93 1025.91 529.35   A 1.01 1.01 0.0 0 1 1025.31 530.43   Q 1021.28 532.18 1019.27 528.52   Q 1017.61 525.49 1007.15 507.88   C 1001.35 498.10 997.46 490.46 991.34 479.02   A 1.00 1.00 0.0 0 0 989.55 479.06   C 987.39 483.63 984.91 487.91 982.75 492.54   Q 972.42 514.67 967.14 525.78   C 965.69 528.84 964.82 531.76 963.38 534.67   A 3.11 3.09 -89.6 0 1 961.97 536.07   Q 957.12 538.43 952.25 536.18   Q 952.72 535.49 952.63 535.07   A 0.34 0.34 0.0 0 0 951.99 534.98   Q 951.80 535.35 951.80 535.90   L 949.22 536.17   A 1.45 1.41 -33.5 0 1 948.43 536.02   Q 946.59 535.07 946.98 532.74   Q 947.22 531.27 947.16 529.64   L 951.38 517.52   A 0.12 0.06 73.2 0 0 951.39 517.47   Q 951.38 517.45 951.38 517.44   A 0.02 0.01 64.7 0 0 951.35 517.42   Q 948.44 523.56 945.55 529.65   Q 944.58 532.19 942.08 532.27   A 2.45 2.44 -3.9 0 1 939.57 530.09   Q 939.37 528.18 939.85 525.81   Q 941.06 519.98 942.82 515.55   C 945.03 510.01 948.49 502.23 951.88 495.50   Q 965.27 468.83 974.70 450.91   A 2.02 2.01 44.8 0 0 974.69 449.05   Q 970.24 440.80 955.06 410.40   Q 949.38 399.04 947.16 393.39   Q 943.86 385.00 940.17 375.87   A 2.71 2.70 -39.2 0 1 940.43 373.38   C 942.72 369.96 946.44 369.61 949.05 366.64   A 1.18 1.18 0.0 0 1 950.70 366.52   C 954.27 369.56 957.61 367.54 959.19 372.96   A 0.75 0.75 0.0 0 0 960.44 373.29   L 960.91 372.82   A 0.85 0.82 -27.2 0 0 961.15 372.11   Q 960.79 369.33 959.28 367.03   A 2.09 2.08 53.2 0 1 959.67 364.30   L 959.71 364.27   A 1.73 1.72 52.0 0 1 962.22 364.58   Q 967.35 371.63 969.14 375.16   Q 974.46 385.70 979.14 395.82   Q 986.53 411.83 990.62 419.58   A 1.10 1.10 0.0 0 0 992.58 419.54   Q 998.56 407.04 1005.02 395.24   Q 1021.70 364.81 1021.74 364.70   Q 1022.16 363.44 1025.07 361.60   A 1.09 1.07 38.5 0 1 1026.03 361.50   Q 1027.80 362.13 1029.03 363.56   A 1.26 1.23 67.7 0 0 1030.03 363.99   Q 1031.15 363.93 1032.21 363.44   Z   M 1004.0659 485.8611   A 0.35 0.35 0.0 0 0 1003.5869 485.7363   L 1003.5696 485.7465   A 0.35 0.35 0.0 0 0 1003.4449 486.2255   L 1010.0941 497.5589   A 0.35 0.35 0.0 0 0 1010.5731 497.6837   L 1010.5904 497.6735   A 0.35 0.35 0.0 0 0 1010.7151 497.1945   L 1004.0659 485.8611   Z"/>
<path xmlns="http://www.w3.org/2000/svg" fill="#f8f9f9" fill-opacity="0.973" d="   M 1035.20 363.09   L 1032.21 363.44   Q 1033.54 362.84 1035.20 363.09   Z"/>
<path xmlns="http://www.w3.org/2000/svg" fill="#f8f9f9" fill-opacity="0.973" d="   M 1038.46 365.67   L 1040.26 366.36   L 1034.10 376.38   A 0.08 0.07 -67.3 0 1 1034.01 376.42   L 1033.70 376.34   A 0.27 0.26 -69.6 0 1 1033.53 375.96   L 1038.46 365.67   Z"/>
<path xmlns="http://www.w3.org/2000/svg" fill="#000000" d="   M 706.43 378.29   Q 705.80 382.18 706.46 386.05   A 0.09 0.09 0.0 0 0 706.64 386.04   L 707.09 379.55   Q 707.52 378.39 707.73 376.99   Q 707.95 375.49 708.64 374.17   A 1.44 1.43 -62.8 0 1 710.57 373.54   Q 711.83 374.18 712.04 375.75   Q 712.60 379.89 712.45 386.25   Q 712.19 397.18 711.83 413.73   A 0.76 0.75 -65.7 0 0 712.01 414.22   Q 713.09 415.46 715.02 415.09   Q 721.16 413.92 724.78 413.90   C 729.13 413.86 733.86 412.78 738.64 413.14   C 741.91 413.38 741.07 417.94 743.38 419.52   C 745.61 421.04 746.34 423.27 745.04 425.19   A 1.81 1.79 -81.7 0 1 744.14 425.87   Q 739.25 427.48 737.80 427.59   Q 733.89 427.90 728.25 427.93   C 725.77 427.94 723.60 428.52 720.41 429.08   A 0.52 0.51 58.8 0 0 720.19 430.00   Q 720.63 430.34 721.25 430.37   Q 727.83 430.68 738.89 429.45   A 2.35 2.34 -9.1 0 1 741.44 431.29   L 741.45 431.33   A 1.93 1.92 -10.0 0 1 739.78 433.71   L 711.83 436.65   A 1.05 1.05 0.0 0 0 710.89 437.69   Q 710.68 475.38 713.24 511.17   C 713.50 514.91 713.39 518.58 713.21 522.02   C 712.99 526.40 709.62 525.73 706.45 525.60   A 0.82 0.82 0.0 0 0 705.63 526.22   L 705.11 528.20   A 1.46 1.45 -11.0 0 1 704.55 529.02   Q 702.85 530.24 700.73 529.50   A 1.47 1.47 0.0 0 1 699.94 528.87   Q 698.58 526.65 698.40 524.01   Q 697.25 507.27 696.96 504.78   Q 696.70 502.59 695.98 501.21   A 0.46 0.46 0.0 0 0 695.11 501.42   L 695.09 519.93   A 1.93 1.93 0.0 0 1 693.11 521.86   L 692.99 521.86   A 2.47 2.47 0.0 0 1 690.63 519.50   C 690.34 512.84 689.01 502.60 689.14 494.48   Q 689.25 487.83 688.96 464.86   C 688.86 456.45 687.87 448.22 687.98 439.40   A 0.67 0.67 0.0 0 0 687.26 438.72   Q 682.95 439.06 668.02 439.56   Q 666.09 439.63 664.79 438.60   A 1.20 1.18 12.1 0 1 664.37 437.96   L 663.22 433.76   A 1.61 1.53 -72.2 0 0 662.95 433.20   Q 660.35 429.83 661.29 424.27   C 661.87 420.87 666.97 419.51 669.74 419.41   Q 678.35 419.10 687.29 417.80   A 1.33 1.32 0.9 0 0 688.40 416.73   Q 688.65 415.23 688.72 413.25   Q 689.80 381.80 690.39 375.64   Q 691.05 368.89 697.48 369.26   Q 697.41 370.36 697.78 370.78   Q 698.41 371.49 698.91 370.37   Q 699.35 369.40 699.08 368.16   Q 700.54 365.41 703.63 366.40   A 2.28 2.28 0.0 0 1 705.22 368.35   L 706.13 377.44   A 0.51 0.48 29.2 0 0 706.19 377.63   Q 706.41 378.00 706.43 378.29   Z   M 695.6275 490.4101   A 4.66 0.35 -90.4 0 0 695.3100 495.0724   A 4.66 0.35 -90.4 0 0 695.6925 499.7299   A 4.66 0.35 -90.4 0 0 696.0100 495.0676   A 4.66 0.35 -90.4 0 0 695.6275 490.4101   Z"/>
<path xmlns="http://www.w3.org/2000/svg" fill="#f8f9f9" fill-opacity="0.973" d="   M 697.48 369.26   Q 698.10 369.38 699.08 368.16   Q 699.35 369.40 698.91 370.37   Q 698.41 371.49 697.78 370.78   Q 697.41 370.36 697.48 369.26   Z"/>
<path xmlns="http://www.w3.org/2000/svg" fill="#f8f9f9" fill-opacity="0.973" d="   M 599.06 376.50   Q 599.29 377.10 599.55 377.46   Q 600.14 378.30 600.84 377.52   Q 596.92 389.89 592.89 402.20   L 592.88 402.20   Q 595.77 389.33 599.06 376.50   Z"/>
<path xmlns="http://www.w3.org/2000/svg" fill="#f8f9f9" fill-opacity="0.973" d="   M 706.43 378.29   L 707.09 379.55   L 706.64 386.04   A 0.09 0.09 0.0 0 1 706.46 386.05   Q 705.80 382.18 706.43 378.29   Z"/>
<path xmlns="http://www.w3.org/2000/svg" fill="#000000" d="   M 908.26 456.43   A 0.32 0.32 0.0 0 0 907.67 456.34   L 890.63 487.96   A 3.12 3.11 18.2 0 1 887.44 489.57   L 882.67 488.88   A 1.30 1.29 -54.3 0 0 881.89 489.01   Q 879.38 490.24 875.83 488.37   Q 874.08 487.44 871.98 483.74   Q 869.57 479.50 864.03 469.82   C 862.03 466.31 860.39 461.91 859.35 459.48   A 1.12 1.11 55.1 0 0 857.52 459.15   Q 857.33 459.36 857.41 460.00   Q 858.07 465.42 857.49 470.81   Q 856.66 478.71 856.72 480.74   C 856.94 487.67 857.43 494.45 857.23 501.79   Q 856.90 514.13 856.57 518.82   A 2.11 2.11 0.0 0 1 855.09 520.69   Q 851.49 521.81 848.35 519.89   C 847.30 519.25 846.84 519.20 845.74 519.58   C 843.86 520.23 842.67 519.38 842.61 517.43   A 0.52 0.52 0.0 0 0 841.82 517.01   Q 841.19 517.40 840.80 518.13   A 1.49 1.48 30.2 0 1 838.69 518.68   C 837.63 517.99 836.92 516.61 836.88 515.26   C 836.73 510.28 835.71 505.05 835.93 499.90   Q 836.41 488.29 836.00 477.75   C 835.49 464.54 836.34 452.22 836.93 437.77   Q 836.94 437.50 837.27 433.27   Q 837.64 428.45 836.75 423.18   C 836.22 420.09 840.81 419.59 842.80 420.11   A 0.85 0.84 28.0 0 0 843.64 419.86   L 846.00 417.31   A 1.84 1.62 6.2 0 1 846.58 416.90   L 854.69 413.38   A 2.52 2.51 -28.9 0 1 857.76 414.26   Q 862.47 421.13 866.12 428.95   Q 869.14 435.42 871.50 440.04   C 876.49 449.79 879.05 455.27 882.68 460.05   A 0.92 0.92 0.0 0 0 884.24 459.89   C 886.21 455.73 887.35 452.91 888.88 449.96   Q 895.51 437.17 901.62 423.39   C 903.37 419.47 905.17 416.74 907.55 412.82   A 1.84 1.81 5.3 0 1 908.48 412.06   Q 910.25 411.44 911.58 411.99   Q 915.97 413.78 923.01 415.52   C 926.23 416.31 927.24 418.86 927.10 422.16   C 926.80 429.47 928.21 436.95 928.30 443.95   Q 928.53 461.63 930.46 484.16   Q 930.96 489.98 931.27 497.85   Q 931.72 509.46 931.65 511.56   C 931.58 513.57 931.27 514.66 929.31 515.43   Q 926.85 516.39 924.67 516.15   A 1.90 1.90 0.0 0 0 922.62 517.57   L 921.76 520.84   A 1.26 1.26 0.0 0 1 920.67 521.78   L 915.68 522.31   A 3.13 3.12 73.4 0 1 912.58 520.63   C 910.04 515.69 910.96 506.69 910.25 503.34   Q 909.37 499.20 909.28 493.15   Q 909.05 478.58 908.38 466.55   C 908.18 462.95 908.84 459.43 908.26 456.43   Z   M 841.8597 493.3085   A 0.29 0.29 0.0 0 0 841.5682 493.0201   L 841.5282 493.0203   A 0.29 0.29 0.0 0 0 841.2397 493.3118   L 841.3603 516.3515   A 0.29 0.29 0.0 0 0 841.6518 516.6399   L 841.6918 516.6397   A 0.29 0.29 0.0 0 0 841.9803 516.3482   L 841.8597 493.3085   Z"/>
<path xmlns="http://www.w3.org/2000/svg" fill="#000000" d="   M 768.71 423.46   Q 780.80 412.08 796.40 415.31   C 809.69 418.06 818.12 429.95 820.85 442.62   Q 826.02 466.55 818.89 490.19   Q 817.59 494.53 814.46 499.45   Q 813.21 501.42 811.84 507.10   Q 810.53 512.47 805.51 516.26   Q 796.25 523.25 784.98 523.31   C 761.76 523.44 750.20 503.83 747.85 483.23   Q 745.80 465.26 751.45 444.21   Q 754.16 434.12 760.63 427.96   A 2.34 2.23 -80.1 0 1 761.09 427.62   L 768.61 423.54   A 0.31 0.28 3.2 0 0 768.71 423.46   Z   M 781.69 431.11   C 777.03 430.78 775.12 438.29 774.42 441.69   Q 772.96 448.85 772.45 452.49   Q 772.02 455.65 772.05 470.01   C 772.07 479.63 772.87 490.30 780.32 497.30   Q 786.91 503.49 793.69 498.52   A 3.78 3.69 -88.2 0 0 794.48 497.76   Q 798.09 493.05 799.87 483.30   Q 803.25 464.77 799.10 449.07   C 797.77 444.07 795.44 438.97 792.50 435.76   Q 788.71 431.61 781.69 431.11   Z   M 818.89 471.60   L 816.31 443.26   A 0.15 0.15 0.0 0 0 816.14 443.12   L 815.36 443.19   A 0.24 0.22 84.8 0 0 815.16 443.45   L 817.72 471.61   A 0.24 0.22 84.8 0 0 817.96 471.83   L 818.75 471.76   A 0.15 0.15 0.0 0 0 818.89 471.60   Z   M 767.95 471.72   Q 767.98 470.46 767.81 470.16   A 0.31 0.31 0.0 0 0 767.23 470.27   Q 767.12 471.05 767.51 471.82   A 0.23 0.23 0.0 0 0 767.95 471.72   Z   M 768.52 473.48   L 767.95 472.51   A 0.23 0.23 0.0 0 0 767.52 472.65   Q 767.75 475.24 768.30 477.00   A 0.27 0.27 0.0 0 0 768.82 476.90   L 768.52 473.48   Q 768.75 473.66 768.88 473.99   A 0.02 0.02 0.0 0 0 768.91 473.98   Q 768.61 470.68 768.61 470.64   Q 768.61 470.66 768.62 470.68   A 0.20 0.06 80.3 0 1 768.61 470.76   Q 768.38 471.93 768.52 473.48   Z   M 769.07 511.29   Q 772.79 515.10 779.16 516.43   A 0.14 0.13 65.1 0 0 779.25 516.18   L 769.39 510.87   A 0.27 0.27 0.0 0 0 769.07 511.29   Z"/>
<path xmlns="http://www.w3.org/2000/svg" fill="#f8f9f9" fill-opacity="0.973" d="   M 818.89 471.60   A 0.15 0.15 0.0 0 1 818.75 471.76   L 817.96 471.83   A 0.24 0.22 84.8 0 1 817.72 471.61   L 815.16 443.45   A 0.24 0.22 84.8 0 1 815.36 443.19   L 816.14 443.12   A 0.15 0.15 0.0 0 1 816.31 443.26   L 818.89 471.60   Z"/>
<path xmlns="http://www.w3.org/2000/svg" fill="#f8f9f9" fill-opacity="0.973" d="   M 767.95 471.72   A 0.23 0.23 0.0 0 1 767.51 471.82   Q 767.12 471.05 767.23 470.27   A 0.31 0.31 0.0 0 1 767.81 470.16   Q 767.98 470.46 767.95 471.72   Z"/>
<path xmlns="http://www.w3.org/2000/svg" fill="#f8f9f9" fill-opacity="0.973" d="   M 768.52 473.48   L 768.82 476.90   A 0.27 0.27 0.0 0 1 768.30 477.00   Q 767.75 475.24 767.52 472.65   A 0.23 0.23 0.0 0 1 767.95 472.51   L 768.52 473.48   Z"/>
<rect xmlns="http://www.w3.org/2000/svg" fill="#f8f9f9" fill-opacity="0.973" x="-0.36" y="-6.92" transform="translate(1007.08,491.71) rotate(-30.4)" width="0.72" height="13.84" rx="0.35"/>
<ellipse xmlns="http://www.w3.org/2000/svg" fill="#f8f9f9" fill-opacity="0.973" cx="0.00" cy="0.00" transform="translate(695.66,495.07) rotate(-90.4)" rx="4.66" ry="0.35"/>
<rect xmlns="http://www.w3.org/2000/svg" fill="#f8f9f9" fill-opacity="0.973" x="-0.31" y="-11.81" transform="translate(841.61,504.83) rotate(-0.3)" width="0.62" height="23.62" rx="0.29"/>
<path xmlns="http://www.w3.org/2000/svg" fill="#000000" d="   M 1012.97 501.49   Q 1012.67 501.00 1012.18 501.07   Q 1012.27 500.57 1012.75 500.84   Q 1013.34 501.16 1012.97 501.49   Z"/>
<path xmlns="http://www.w3.org/2000/svg" fill="#f8f9f9" fill-opacity="0.973" d="   M 1012.97 501.49   L 1013.70 502.75   Q 1013.72 502.86 1013.74 502.96   Q 1014.09 503.53 1014.12 503.92   A 0.29 0.29 0.0 0 1 1013.62 504.14   Q 1012.44 502.88 1012.18 501.07   Q 1012.67 501.00 1012.97 501.49   Z"/>
<path xmlns="http://www.w3.org/2000/svg" fill="#f8f9f9" fill-opacity="0.973" d="   M 769.39 510.87   L 779.25 516.18   A 0.14 0.13 65.1 0 1 779.16 516.43   Q 772.79 515.10 769.07 511.29   A 0.27 0.27 0.0 0 1 769.39 510.87   Z"/>
<ellipse xmlns="http://www.w3.org/2000/svg" fill="#f8f9f9" fill-opacity="0.973" cx="0.00" cy="0.00" transform="translate(571.56,512.75) rotate(-81.8)" rx="1.58" ry="0.32"/>
<path xmlns="http://www.w3.org/2000/svg" fill="#f8f9f9" fill-opacity="0.973" d="   M 947.16 529.64   Q 946.35 529.98 945.55 529.65   Q 948.44 523.56 951.35 517.42   A 0.02 0.01 64.7 0 1 951.38 517.44   Q 951.38 517.45 951.39 517.47   A 0.12 0.06 73.2 0 1 951.38 517.52   L 947.16 529.64   Z"/>
<path xmlns="http://www.w3.org/2000/svg" fill="#000000" d="   M 296.22 547.42   A 0.67 0.67 0.0 0 1 295.64 548.41   Q 258.20 548.65 230.54 548.28   Q 220.92 548.16 211.65 546.04   C 196.83 542.66 182.75 536.68 170.10 527.34   A 0.58 0.58 0.0 0 1 170.38 526.30   Q 172.32 526.08 174.50 526.11   Q 202.73 526.55 228.00 526.22   Q 250.62 525.92 263.97 526.50   C 278.47 527.12 289.52 534.97 296.22 547.42   Z"/>
<path xmlns="http://www.w3.org/2000/svg" fill="#f8f9f9" fill-opacity="0.973" d="   M 952.25 536.18   Q 952.52 536.04 951.80 535.90   Q 951.80 535.35 951.99 534.98   A 0.34 0.34 0.0 0 1 952.63 535.07   Q 952.72 535.49 952.25 536.18   Z"/>
</g></g></g></svg>