<svg xmlns="http://www.w3.org/2000/svg" width="1250" height="839" viewBox="0 0 1250 839">
<g>
<path d="M 590.41 464.25 L 585.50 477.50 L 574.13 477.78 C563.57,478.05 562.81,477.94 563.45,476.28 C565.13,471.96 601.60,375.28 605.73,364.22 L 610.32 351.94 L 623.31 352.22 L 636.29 352.50 L 651.98 393.50 C660.61,416.05 671.09,443.50 675.27,454.50 C679.45,465.50 683.17,475.29 683.54,476.25 C684.16,477.85 683.26,478.00 672.75,478.00 L 661.29 478.00 L 656.64 465.52 C654.09,458.65 652.00,452.58 652.00,452.02 C652.00,451.35 642.19,451.00 623.66,451.00 L 595.31 451.00 ZM 806.47 478.47 C794.81,481.50 780.01,479.85 769.99,474.40 C753.74,465.56 745.00,450.59 745.00,431.64 C745.00,415.91 749.54,405.09 760.17,395.54 C775.43,381.81 799.16,379.01 817.43,388.78 C823.93,392.25 832.75,401.07 836.22,407.57 C841.62,417.68 843.40,431.22 840.89,443.20 C837.49,459.46 823.19,474.11 806.47,478.47 ZM 876.19 448.25 L 875.87 478.00 L 856.00 478.00 L 856.00 385.00 L 876.00 385.00 L 876.00 396.46 L 879.02 392.79 C880.68,390.78 884.62,387.86 887.77,386.31 C892.76,383.86 894.66,383.50 902.50,383.50 C910.36,383.50 912.23,383.86 917.27,386.33 C920.57,387.96 924.39,390.85 926.21,393.11 L 929.37 397.05 L 933.44 393.08 C935.67,390.89 940.20,387.84 943.50,386.31 C948.81,383.83 950.66,383.51 959.50,383.51 C968.44,383.50 970.11,383.80 975.21,386.31 C982.19,389.73 988.16,396.28 991.20,403.85 C993.38,409.27 993.49,410.87 993.80,443.75 L 994.12 478.00 L 974.15 478.00 L 973.83 446.75 C973.50,415.54 973.50,415.49 971.00,411.09 C967.54,404.98 964.17,402.76 957.52,402.21 C950.64,401.64 944.08,403.92 940.55,408.12 C935.66,413.94 935.00,418.87 935.00,449.68 L 935.00 478.00 L 915.15 478.00 L 914.83 446.75 C914.50,415.55 914.50,415.49 912.00,411.04 C908.47,404.74 904.02,402.00 897.32,402.00 C888.21,402.00 882.14,405.99 878.31,414.50 C876.73,418.00 876.47,422.19 876.19,448.25 ZM 1044.43 454.98 L 1028.37 477.50 L 1015.16 477.78 L 1001.96 478.06 L 1024.95 446.02 L 1047.95 413.98 L 1028.16 385.74 C1017.27,370.21 1007.56,356.26 1006.57,354.75 L 1004.77 352.00 L 1029.82 352.00 L 1037.26 362.25 C1041.36,367.89 1048.42,377.90 1052.96,384.50 C1057.51,391.10 1061.35,396.64 1061.50,396.80 C1061.65,396.97 1068.10,388.09 1075.82,377.08 C1083.55,366.06 1090.69,355.92 1091.69,354.55 C1093.45,352.13 1093.83,352.06 1106.28,352.03 L 1119.06 352.00 L 1114.10 359.25 C1111.38,363.24 1104.19,373.48 1098.14,382.00 C1092.09,390.52 1084.56,401.21 1081.41,405.75 L 1075.70 414.00 L 1079.60 419.47 C1081.74,422.47 1091.82,436.51 1102.00,450.65 C1112.18,464.79 1120.65,476.73 1120.83,477.18 C1121.02,477.63 1115.57,478.00 1108.74,478.00 C1097.58,478.00 1096.12,477.80 1094.50,476.00 C1093.51,474.90 1085.90,464.47 1077.59,452.83 C1069.28,441.18 1062.04,431.84 1061.49,432.05 C1060.95,432.27 1053.27,442.59 1044.43,454.98 ZM 738.03 477.48 C736.15,478.64 717.82,479.01 713.72,477.98 C705.49,475.89 700.57,471.68 696.80,463.50 C694.59,458.71 694.49,457.39 694.33,431.50 L 694.16 404.50 L 686.08 404.21 L 678.00 403.92 L 678.00 385.00 L 695.09 385.00 L 694.41 375.07 L 693.72 365.15 L 702.61 362.50 C707.50,361.04 712.29,359.63 713.25,359.36 C714.85,358.91 715.00,359.97 715.00,371.93 L 715.00 385.00 L 726.44 385.00 C732.73,385.00 738.12,385.38 738.40,385.84 C738.69,386.31 738.65,390.58 738.31,395.34 L 737.70 404.00 L 715.00 404.00 L 715.00 454.15 L 717.99 457.14 C720.88,460.04 721.22,460.12 729.69,459.91 L 738.41 459.70 L 738.79 468.24 C739.05,473.98 738.80,477.00 738.03,477.48 ZM 784.17 459.09 C787.10,460.11 791.11,460.95 793.07,460.97 C803.11,461.06 813.69,454.33 818.78,444.62 C822.45,437.62 822.65,425.83 819.22,418.87 C816.38,413.10 811.16,407.66 805.69,404.76 C799.76,401.61 787.28,401.59 781.38,404.72 C774.57,408.34 770.87,412.10 767.86,418.46 C764.05,426.50 763.87,436.09 767.39,443.50 C770.65,450.37 777.59,456.82 784.17,459.09 ZM 603.00 430.61 C603.00,430.82 612.18,431.00 623.39,431.00 L 643.79 431.00 L 638.30 416.25 C635.28,408.14 630.64,395.65 628.00,388.50 C625.26,381.10 622.94,376.15 622.61,377.00 C620.41,382.71 603.00,430.29 603.00,430.61 Z" fill="rgb(54,62,69)"/>
<path d="M 402.00 496.32 L 401.09 496.51 C391.92,498.40 388.53,499.10 387.66,497.94 C387.16,497.25 387.52,495.92 388.11,493.80 C388.14,493.69 388.17,493.57 388.20,493.44 C388.85,491.07 389.46,473.79 389.72,450.06 L 390.16 410.62 L 403.33 396.67 C422.37,376.50 437.64,364.91 449.83,361.36 C454.77,359.92 456.47,359.88 463.36,361.00 C473.70,362.68 482.17,362.53 495.00,360.47 C505.64,358.75 513.66,358.93 519.62,361.01 C521.79,361.77 523.29,363.31 524.53,366.06 C526.14,369.64 526.18,370.58 524.95,375.72 C524.19,378.86 522.87,382.13 522.01,382.99 C519.90,385.10 516.60,393.78 516.49,397.50 C516.00,415.11 490.13,449.10 461.91,469.21 C444.58,481.57 420.36,492.53 402.00,496.32 ZM 342.20 532.03 C339.14,533.17 333.76,534.38 330.25,534.71 L 323.87 535.30 L 324.50 469.50 L 327.73 462.06 C329.51,457.97 330.80,454.47 330.60,454.27 C330.41,454.07 327.30,457.42 323.70,461.71 C320.10,465.99 313.30,473.31 308.59,477.97 L 300.02 486.44 L 293.26 483.12 C277.47,475.38 264.16,465.98 250.79,453.15 C243.85,446.49 242.32,444.52 243.29,443.51 C249.71,436.77 300.26,384.86 309.75,375.27 C317.86,367.06 322.42,363.14 323.25,363.65 C324.72,364.55 335.82,373.10 341.52,377.72 C350.19,384.74 362.86,394.83 369.75,400.20 L 377.01 405.85 L 367.59 416.52 C362.42,422.39 357.98,427.98 357.72,428.94 C357.40,430.17 358.35,431.25 360.88,432.57 C362.87,433.61 365.45,435.37 366.61,436.48 C367.77,437.59 369.62,439.17 370.73,440.00 C371.83,440.83 373.70,443.50 374.87,445.94 C376.83,450.02 377.00,452.01 377.00,470.72 C377.00,488.64 376.75,491.80 374.92,497.28 C372.60,504.25 369.16,510.60 364.58,516.38 C360.54,521.48 349.19,529.41 342.20,532.03 Z" fill="rgb(247,150,30)"/>
<path d="M 375.16 497.00 C373.70,501.11 371.97,504.90 369.95,508.44 C371.96,504.91 373.62,501.19 374.92,497.28 C376.75,491.80 377.00,488.64 377.00,470.72 C377.00,452.01 376.83,450.02 374.87,445.94 C373.70,443.50 371.83,440.83 370.73,440.00 C369.62,439.17 367.77,437.59 366.61,436.48 C365.45,435.37 362.87,433.61 360.88,432.57 C358.35,431.25 357.40,430.17 357.72,428.94 C357.98,427.98 362.42,422.39 367.59,416.52 L 377.01 405.85 L 369.75 400.20 C362.86,394.83 350.19,384.74 341.52,377.72 C335.82,373.10 324.72,364.55 323.25,363.65 C322.42,363.14 317.86,367.06 309.75,375.27 C300.26,384.86 249.71,436.77 243.29,443.51 C242.32,444.52 243.85,446.49 250.79,453.15 C255.33,457.50 259.86,461.46 264.49,465.10 C247.08,451.66 231.95,434.73 221.44,416.53 C214.72,404.89 212.88,400.75 207.97,386.31 C203.83,374.09 200.25,368.08 193.87,362.62 C189.11,358.55 183.92,356.62 172.31,354.60 C153.00,351.25 137.91,338.62 131.50,320.46 C130.15,316.63 129.03,311.36 129.02,308.75 L 129.00 304.00 L 153.45 304.00 C167.27,304.00 180.10,304.47 182.97,305.09 C189.67,306.52 196.69,311.47 201.00,317.79 C202.93,320.62 204.74,322.94 205.03,322.96 C205.33,322.98 206.40,321.54 207.42,319.75 C210.37,314.58 215.10,310.03 220.50,307.17 L 225.50 304.52 L 252.75 304.18 C254.73,304.15 256.58,304.13 258.30,304.10 C274.06,303.88 279.35,303.80 280.65,306.04 C281.30,307.17 280.94,308.89 280.40,311.48 C280.28,312.04 280.16,312.64 280.03,313.29 C275.96,334.08 259.34,350.93 239.72,354.16 C231.72,355.47 229.58,355.77 229.27,356.70 C229.16,357.03 229.28,357.44 229.45,358.01 C229.48,358.10 229.50,358.19 229.53,358.28 C233.18,370.81 241.97,381.18 253.73,386.79 C261.26,390.38 261.84,390.50 272.50,390.47 C282.17,390.44 284.27,390.11 289.90,387.73 C293.41,386.24 298.36,383.69 300.90,382.06 C303.43,380.43 316.52,367.53 330.00,353.39 C362.31,319.49 371.05,313.04 393.00,306.88 C401.42,304.52 401.94,304.50 450.00,304.50 L 498.50 304.50 L 505.22 307.68 C514.10,311.89 521.30,318.74 524.93,326.41 C527.98,332.88 530.55,343.30 529.51,344.99 C529.10,345.64 516.21,346.00 493.10,346.00 C451.79,346.00 448.48,346.47 432.00,354.71 C421.66,359.89 418.19,363.00 391.25,391.25 L 378.13 405.00 L 377.80 447.75 C377.47,489.42 377.41,490.66 375.16,497.00 ZM 513.30 409.88 C515.26,405.26 516.39,401.05 516.49,397.50 C516.60,393.78 519.90,385.10 522.01,382.99 C522.87,382.13 524.19,378.86 524.95,375.72 C526.18,370.58 526.14,369.64 524.53,366.06 C523.29,363.31 521.79,361.77 519.62,361.01 C513.66,358.93 505.64,358.75 495.00,360.47 C482.17,362.53 473.70,362.68 463.36,361.00 C456.47,359.88 454.77,359.92 449.83,361.36 C437.64,364.91 422.37,376.50 403.33,396.67 L 390.16 410.62 L 389.72 450.06 C389.46,473.79 388.85,491.07 388.20,493.44 C388.17,493.57 388.14,493.69 388.11,493.80 C387.56,495.77 387.21,497.06 387.57,497.78 C387.19,497.07 387.49,495.81 387.94,493.88 C387.97,493.74 388.00,493.59 388.04,493.44 C388.54,491.28 388.96,471.69 388.98,449.93 L 389.00 410.36 L 409.75 389.36 C428.57,370.32 431.20,368.02 438.00,364.75 C451.60,358.21 454.46,357.84 493.15,357.66 C512.22,357.57 528.14,357.82 528.53,358.20 C529.60,359.26 526.17,378.25 523.35,386.89 C521.23,393.39 517.53,401.71 513.30,409.88 ZM 318.46 467.64 C320.48,465.43 322.32,463.35 323.70,461.71 C327.30,457.42 330.41,454.07 330.60,454.27 C330.80,454.47 329.51,457.97 327.73,462.06 L 326.26 465.45 C326.43,465.02 326.60,464.58 326.80,464.12 C328.05,461.16 328.84,458.50 328.55,458.21 C328.31,457.98 324.08,461.96 318.46,467.64 ZM 486.40 447.81 C491.69,442.28 496.55,436.54 500.75,430.88 C500.20,431.65 499.67,432.39 499.14,433.08 C495.52,437.87 491.15,442.90 486.40,447.81 ZM 300.03 486.42 L 305.10 481.41 L 300.19 486.50 Z" fill="rgb(247,196,43)"/>
<path d="M 0.00 419.50 L 0.00 0.00 L 625.00 0.00 L 1250.00 0.00 L 1250.00 419.50 L 1250.00 839.00 L 625.00 839.00 L 0.00 839.00 L 0.00 419.50 ZM 342.20 532.03 C349.19,529.41 360.54,521.48 364.58,516.38 C369.08,510.70 372.55,504.35 375.16,497.00 C377.41,490.66 377.47,489.42 377.80,447.75 L 378.13 405.00 L 391.25 391.25 C418.19,363.00 421.66,359.89 432.00,354.71 C448.48,346.47 451.79,346.00 493.10,346.00 C516.21,346.00 529.10,345.64 529.51,344.99 C530.55,343.30 527.98,332.88 524.93,326.41 C521.30,318.74 514.10,311.89 505.22,307.68 L 498.50 304.50 L 450.00 304.50 C401.94,304.50 401.42,304.52 393.00,306.88 C371.05,313.04 362.31,319.49 330.00,353.39 C316.52,367.53 303.43,380.43 300.90,382.06 C298.36,383.69 293.41,386.24 289.90,387.73 C284.27,390.11 282.17,390.44 272.50,390.47 C261.84,390.50 261.26,390.38 253.73,386.79 C241.97,381.18 233.18,370.81 229.53,358.28 C228.82,355.85 228.40,356.02 239.72,354.16 C259.34,350.93 275.96,334.08 280.03,313.29 C282.02,303.12 283.99,303.78 252.75,304.18 L 225.50 304.52 L 220.50 307.17 C215.10,310.03 210.37,314.58 207.42,319.75 C206.40,321.54 205.33,322.98 205.03,322.96 C204.74,322.94 202.93,320.62 201.00,317.79 C196.69,311.47 189.67,306.52 182.97,305.09 C180.10,304.47 167.27,304.00 153.45,304.00 L 129.00 304.00 L 129.02 308.75 C129.03,311.36 130.15,316.63 131.50,320.46 C137.91,338.62 153.00,351.25 172.31,354.60 C183.92,356.62 189.11,358.55 193.87,362.62 C200.25,368.08 203.83,374.09 207.97,386.31 C212.88,400.75 214.72,404.89 221.44,416.53 C236.99,443.46 262.66,467.60 290.84,481.79 L 300.19 486.50 L 314.10 472.09 C321.76,464.17 328.26,457.92 328.55,458.21 C328.84,458.50 328.05,461.16 326.80,464.12 C324.62,469.29 324.51,470.81 324.20,502.40 L 323.87 535.30 L 330.25 534.71 C333.76,534.38 339.14,533.17 342.20,532.03 ZM 402.00 496.32 C420.36,492.53 444.58,481.57 461.91,469.21 C474.91,459.94 489.63,445.66 499.14,433.08 C507.82,421.60 518.97,400.32 523.35,386.89 C526.17,378.25 529.60,359.26 528.53,358.20 C528.14,357.82 512.22,357.57 493.15,357.66 C454.46,357.84 451.60,358.21 438.00,364.75 C431.20,368.02 428.57,370.32 409.75,389.36 L 389.00 410.36 L 388.98 449.93 C388.96,471.69 388.54,491.28 388.04,493.44 C386.60,499.65 386.25,499.57 402.00,496.32 ZM 806.47 478.47 C823.19,474.11 837.49,459.46 840.89,443.20 C843.40,431.22 841.62,417.68 836.22,407.57 C832.75,401.07 823.93,392.25 817.43,388.78 C799.16,379.01 775.43,381.81 760.17,395.54 C749.54,405.09 745.00,415.91 745.00,431.64 C745.00,450.59 753.74,465.56 769.99,474.40 C780.01,479.85 794.81,481.50 806.47,478.47 ZM 738.03 477.48 C738.80,477.00 739.05,473.98 738.79,468.24 L 738.41 459.70 L 729.69 459.91 C721.22,460.12 720.88,460.04 717.99,457.14 L 715.00 454.15 L 715.00 429.08 L 715.00 404.00 L 726.35 404.00 L 737.70 404.00 L 738.31 395.34 C738.65,390.58 738.69,386.31 738.40,385.84 C738.12,385.38 732.73,385.00 726.44,385.00 L 715.00 385.00 L 715.00 371.93 C715.00,359.97 714.85,358.91 713.25,359.36 C712.29,359.63 707.50,361.04 702.61,362.50 L 693.72 365.15 L 694.41 375.07 L 695.09 385.00 L 686.55 385.00 L 678.00 385.00 L 678.00 394.46 L 678.00 403.92 L 686.08 404.21 L 694.16 404.50 L 694.33 431.50 C694.49,457.39 694.59,458.71 696.80,463.50 C700.57,471.68 705.49,475.89 713.72,477.98 C717.82,479.01 736.15,478.64 738.03,477.48 ZM 590.41 464.25 L 595.31 451.00 L 623.66 451.00 C642.19,451.00 652.00,451.35 652.00,452.02 C652.00,452.58 654.09,458.65 656.64,465.52 L 661.29 478.00 L 672.75 478.00 C683.26,478.00 684.16,477.85 683.54,476.25 C683.17,475.29 679.45,465.50 675.27,454.50 C671.09,443.50 660.61,416.05 651.98,393.50 L 636.29 352.50 L 623.31 352.22 L 610.32 351.94 L 605.73 364.22 C601.60,375.28 565.13,471.96 563.45,476.28 C562.81,477.94 563.57,478.05 574.13,477.78 L 585.50 477.50 L 590.41 464.25 ZM 876.19 448.25 C876.47,422.19 876.73,418.00 878.31,414.50 C882.14,405.99 888.21,402.00 897.32,402.00 C904.02,402.00 908.47,404.74 912.00,411.04 C914.50,415.49 914.50,415.55 914.83,446.75 L 915.15 478.00 L 925.08 478.00 L 935.00 478.00 L 935.00 449.68 C935.00,418.87 935.66,413.94 940.55,408.12 C944.08,403.92 950.64,401.64 957.52,402.21 C964.17,402.76 967.54,404.98 971.00,411.09 C973.50,415.49 973.50,415.54 973.83,446.75 L 974.15 478.00 L 984.14 478.00 L 994.12 478.00 L 993.80 443.75 C993.49,410.87 993.38,409.27 991.20,403.85 C988.16,396.28 982.19,389.73 975.21,386.31 C970.11,383.80 968.44,383.50 959.50,383.51 C950.66,383.51 948.81,383.83 943.50,386.31 C940.20,387.84 935.67,390.89 933.44,393.08 L 929.37 397.05 L 926.21 393.11 C924.39,390.85 920.57,387.96 917.27,386.33 C912.23,383.86 910.36,383.50 902.50,383.50 C894.66,383.50 892.76,383.86 887.77,386.31 C884.62,387.86 880.68,390.78 879.02,392.79 L 876.00 396.46 L 876.00 390.73 L 876.00 385.00 L 866.00 385.00 L 856.00 385.00 L 856.00 431.50 L 856.00 478.00 L 865.93 478.00 L 875.87 478.00 L 876.19 448.25 ZM 1044.43 454.98 C1053.27,442.59 1060.95,432.27 1061.49,432.05 C1062.04,431.84 1069.28,441.18 1077.59,452.83 C1085.90,464.47 1093.51,474.90 1094.50,476.00 C1096.12,477.80 1097.58,478.00 1108.74,478.00 C1115.57,478.00 1121.02,477.63 1120.83,477.18 C1120.65,476.73 1112.18,464.79 1102.00,450.65 C1091.82,436.51 1081.74,422.47 1079.60,419.47 L 1075.70 414.00 L 1081.41 405.75 C1084.56,401.21 1092.09,390.52 1098.14,382.00 C1104.19,373.48 1111.38,363.24 1114.10,359.25 L 1119.06 352.00 L 1106.28 352.03 C1093.83,352.06 1093.45,352.13 1091.69,354.55 C1090.69,355.92 1083.55,366.06 1075.82,377.08 C1068.10,388.09 1061.65,396.97 1061.50,396.80 C1061.35,396.64 1057.51,391.10 1052.96,384.50 C1048.42,377.90 1041.36,367.89 1037.26,362.25 L 1029.82 352.00 L 1017.30 352.00 L 1004.77 352.00 L 1006.57 354.75 C1007.56,356.26 1017.27,370.21 1028.16,385.74 L 1047.95 413.98 L 1024.95 446.02 L 1001.96 478.06 L 1015.16 477.78 L 1028.37 477.50 L 1044.43 454.98 ZM 784.17 459.09 C777.59,456.82 770.65,450.37 767.39,443.50 C763.87,436.09 764.05,426.50 767.86,418.46 C770.87,412.10 774.57,408.34 781.38,404.72 C787.28,401.59 799.76,401.61 805.69,404.76 C811.16,407.66 816.38,413.10 819.22,418.87 C822.65,425.83 822.45,437.62 818.78,444.62 C813.69,454.33 803.11,461.06 793.07,460.97 C791.11,460.95 787.10,460.11 784.17,459.09 ZM 603.00 430.61 C603.00,430.29 620.41,382.71 622.61,377.00 C622.94,376.15 625.26,381.10 628.00,388.50 C630.64,395.65 635.28,408.14 638.30,416.25 L 643.79 431.00 L 623.39 431.00 C612.18,431.00 603.00,430.82 603.00,430.61 Z" fill="rgb(254,254,254)"/>
</g>
</svg>