<svg xmlns="http://www.w3.org/2000/svg" direction="ltr" width="1008" height="1009" viewBox="12573.037667451044 9057.170297238272 1008 1009" stroke-linecap="round" stroke-linejoin="round" data-color-mode="light" class="tl-container tl-theme__force-sRGB tl-theme__light" style="background-color: transparent;"><defs/><g transform="matrix(1, 0, 0, 1, 12573.0377, 9057.1703)" opacity="1"><g transform="scale(1, 1)"><g>
<g xmlns="http://www.w3.org/2000/svg" stroke-width="2.00" fill="none" stroke-linecap="butt">
<path stroke="#808080" vector-effect="non-scaling-stroke" d="   M 278.68 954.93   Q 253.28 941.97 244.38 936.13   Q 238.14 932.05 227.13 924.88   Q 210.98 914.38 195.86 902.48   Q 193.18 900.37 187.08 895.63   Q 182.99 892.44 178.49 888.53   Q 177.69 887.83 176.20 886.55   Q 166.24 877.94 156.76 869.01   Q 149.39 862.07 141.42 853.59   Q 129.68 841.10 121.60 832.06   Q 117.27 827.22 107.55 814.64   Q 98.40 802.81 94.50 797.46   Q 87.72 788.14 82.64 779.52   A 4.06 3.85 9.8 0 0 82.09 778.78   C 80.26 776.83 79.13 774.47 77.81 772.47   Q 72.24 764.03 68.98 758.28   Q 62.95 747.65 54.06 730.82   Q 52.49 727.85 50.76 723.51   Q 49.41 720.12 47.27 716.23   Q 44.18 710.60 39.67 699.85   Q 39.08 698.44 38.37 695.55   A 6.57 6.56 -66.3 0 0 37.72 693.88   Q 36.24 691.22 35.21 687.28   C 34.64 685.15 33.23 683.67 32.67 681.71   C 31.80 678.62 30.71 676.48 29.65 673.75   A 6.01 5.52 31.3 0 1 29.35 672.71   Q 28.66 669.19 26.66 665.89   A 3.66 3.55 23.5 0 1 26.24 664.87   L 24.85 659.12   A 3.01 2.98 26.3 0 0 24.65 658.54   Q 22.66 654.19 21.94 649.47   A 7.81 7.47 -61.3 0 0 21.49 647.79   Q 19.80 643.50 18.97 637.78   A 7.19 6.96 31.5 0 0 18.57 636.22   L 16.34 630.34   A 1.56 1.21 38.0 0 1 16.27 630.06   Q 15.46 623.95 13.46 619.15   A 5.77 5.48 29.5 0 1 13.18 618.23   L 6.71 585.47   A 0.53 0.48 42.1 0 1 6.70 585.37   Q 6.11 576.53 4.28 564.55   Q 3.14 557.10 2.88 549.07   Q 2.17 527.07 1.70 508.26   Q 1.45 498.29 3.01 457.96   C 3.44 446.66 5.63 435.92 6.20 425.60   A 11.63 11.53 -35.6 0 1 6.65 422.95   Q 9.34 413.87 10.11 406.22   A 7.54 7.49 -31.8 0 1 10.57 404.28   Q 12.47 399.28 12.91 393.32   A 6.32 6.12 57.3 0 1 13.20 391.88   C 14.63 387.59 15.31 386.10 16.00 381.74   Q 16.65 377.62 18.39 373.23   A 6.69 6.53 -30.3 0 0 18.73 372.00   C 19.19 369.32 19.78 365.60 21.05 362.47   C 22.42 359.09 22.73 355.32 24.06 352.18   Q 25.32 349.22 25.57 347.00   C 25.98 343.30 28.17 340.44 29.13 336.77   C 30.12 332.99 31.81 329.93 33.01 325.73   A 4.76 4.50 69.9 0 1 33.45 324.71   C 35.25 321.54 35.95 317.89 37.63 314.85   C 38.88 312.59 39.11 310.03 40.29 307.48   Q 45.57 295.99 46.78 293.99   Q 48.85 290.58 49.18 289.48   C 50.01 286.81 51.56 284.32 52.67 281.31   Q 53.40 279.36 54.18 277.89   Q 61.81 263.43 63.10 261.07   Q 64.71 258.09 65.22 257.03   Q 66.09 255.19 67.38 253.03   Q 77.88 235.45 86.44 223.08   Q 89.76 218.29 91.89 214.80   C 95.32 209.16 100.88 203.89 104.79 197.58   Q 106.59 194.68 108.17 192.77   Q 121.11 177.18 131.30 165.70   C 136.97 159.33 143.22 153.56 148.75 147.51   C 150.50 145.60 153.02 143.77 155.06 141.49   Q 159.83 136.15 171.43 126.17   Q 186.41 113.28 198.23 104.24   Q 211.48 94.10 229.73 81.99   Q 251.82 67.33 275.56 55.39   C 283.55 51.37 293.17 47.10 301.40 43.19   Q 313.33 37.52 341.63 27.37   Q 354.48 22.76 381.17 15.24"/>
<path stroke="#808080" vector-effect="non-scaling-stroke" d="   M 504.88 750.67   C 544.54 750.67 585.44 748.09 624.20 743.35   Q 636.62 741.84 647.54 740.00   C 664.47 737.15 674.56 735.40 687.85 730.53   C 714.43 720.78 730.03 698.02 744.64 674.88   Q 766.61 640.09 786.63 601.13   Q 808.90 557.80 825.85 518.29   Q 848.33 465.91 862.23 429.00   C 866.20 418.46 870.44 407.63 872.36 396.64   Q 873.76 388.64 873.12 380.26   C 870.96 352.26 846.42 334.37 821.47 327.59   Q 800.74 321.97 783.25 320.49   Q 756.21 318.21 726.00 319.68   C 700.75 320.90 679.39 323.59 654.92 327.37   A 1.97 1.97 0.0 0 1 653.16 326.74   C 640.47 312.72 626.23 299.82 610.34 289.67   Q 586.57 274.49 562.44 266.91   Q 534.19 258.04 504.86 258.04   Q 475.54 258.04 447.28 266.92   Q 423.15 274.50 399.39 289.68   C 383.50 299.83 369.26 312.73 356.57 326.75   A 1.97 1.97 0.0 0 1 354.81 327.38   C 330.34 323.60 308.98 320.91 283.73 319.70   Q 253.52 318.23 226.48 320.51   Q 208.99 321.99 188.26 327.61   C 163.31 334.40 138.77 352.29 136.61 380.29   Q 135.97 388.67 137.37 396.67   C 139.29 407.66 143.54 418.49 147.51 429.03   Q 161.41 465.94 183.89 518.31   Q 200.85 557.82 223.12 601.15   Q 243.14 640.11 265.11 674.90   C 279.73 698.04 295.33 720.80 321.91 730.54   C 335.20 735.41 345.29 737.16 362.22 740.01   Q 373.14 741.85 385.56 743.36   C 424.32 748.09 465.22 750.67 504.88 750.67"/>
<path stroke="#808080" vector-effect="non-scaling-stroke" d="   M 1.65 540.29   Q 1.59 539.81 1.70 539.44"/>
<path stroke="#808080" vector-effect="non-scaling-stroke" d="   M 11.54 393.48   Q 11.73 393.19 11.70 392.79"/>
<path stroke="#808080" vector-effect="non-scaling-stroke" d="   M 11.80 392.25   Q 12.00 391.79 11.91 391.29"/>
<path stroke="#808080" vector-effect="non-scaling-stroke" d="   M 504.85 497.66   C 550.69 497.68 597.82 492.94 643.06 482.69   A 2.31 2.29 0.2 0 0 644.79 480.98   Q 646.61 473.33 648.17 464.25   C 660.12 394.83 612.84 331.09 548.13 310.87   C 533.93 306.44 519.67 304.35 504.94 304.35   C 490.21 304.34 475.95 306.41 461.75 310.83   C 397.01 330.99 349.68 394.69 361.56 464.12   Q 363.11 473.20 364.93 480.85   A 2.31 2.29 -0.1 0 0 366.66 482.56   C 411.88 492.85 459.01 497.64 504.85 497.66"/>
<path stroke="#808080" vector-effect="non-scaling-stroke" d="   M 695.99 469.51   Q 719.74 462.36 743.58 452.25   Q 770.12 441.02 793.25 425.34   Q 806.91 416.10 817.19 404.82   C 820.82 400.85 824.12 396.96 825.67 391.64   C 828.87 380.67 818.31 375.27 809.65 372.49   Q 795.02 367.79 778.51 366.59   C 754.85 364.89 732.31 365.36 713.60 366.88   Q 699.79 368.01 682.44 370.05   A 0.49 0.48 74.7 0 0 682.06 370.73   Q 702.80 417.73 695.40 469.00   A 0.46 0.46 0.0 0 0 695.99 469.51"/>
<path stroke="#808080" vector-effect="non-scaling-stroke" d="   M 314.07 469.51   A 0.46 0.46 0.0 0 0 314.66 469.00   Q 307.16 417.66 327.85 370.56   A 0.49 0.48 -74.8 0 0 327.47 369.88   Q 310.09 367.86 296.25 366.75   C 277.51 365.26 254.94 364.83 231.25 366.58   Q 214.71 367.81 200.07 372.54   C 191.40 375.34 180.83 380.76 184.06 391.74   C 185.62 397.07 188.93 400.96 192.57 404.93   Q 202.89 416.21 216.58 425.44   Q 239.78 441.10 266.37 452.31   Q 290.27 462.39 314.07 469.51"/>
<path stroke="#808080" vector-effect="non-scaling-stroke" d="   M 504.86 704.11   Q 545.07 704.12 586.00 700.55   Q 620.93 697.50 648.81 692.54   C 661.32 690.32 670.30 688.73 679.23 682.47   C 686.27 677.54 690.86 670.61 696.37 662.91   Q 706.33 648.99 719.60 625.88   Q 759.82 555.79 790.22 481.11   A 0.33 0.33 0.0 0 0 789.75 480.70   C 764.94 494.67 737.46 505.42 710.50 513.51   C 699.91 516.69 687.92 520.31 676.44 523.14   C 620.20 537.03 562.70 543.83 504.89 543.83   C 447.07 543.82 389.57 536.99 333.34 523.09   C 321.86 520.26 309.87 516.63 299.28 513.45   C 272.32 505.35 244.85 494.60 220.04 480.62   A 0.33 0.33 0.0 0 0 219.57 481.03   Q 249.95 555.72 290.15 625.82   Q 303.41 648.93 313.37 662.85   C 318.87 670.56 323.46 677.49 330.50 682.42   C 339.43 688.68 348.41 690.27 360.92 692.50   Q 388.80 697.47 423.73 700.52   Q 464.66 704.11 504.86 704.11"/>
</g>
<path xmlns="http://www.w3.org/2000/svg" fill="#000000" d="   M 510.44 0.00   Q 526.34 0.85 542.23 1.81   Q 552.12 2.40 559.68 3.39   C 567.11 4.36 574.99 5.23 582.82 6.60   Q 645.86 17.70 702.60 41.98   Q 723.89 51.09 751.47 65.83   Q 754.25 67.32 764.66 73.76   Q 772.64 78.69 777.60 82.13   C 786.94 88.61 793.92 92.72 801.77 98.74   Q 823.24 115.16 834.46 124.79   Q 841.25 130.61 858.71 147.28   Q 864.83 153.12 888.94 180.16   Q 889.95 181.30 891.75 183.70   Q 893.72 186.35 894.14 186.88   Q 913.69 211.95 916.21 216.03   C 920.69 223.28 925.34 229.83 929.90 237.39   Q 937.16 249.41 942.63 257.48   A 6.52 6.16 19.4 0 1 943.35 258.88   Q 945.68 265.33 950.66 273.13   C 953.68 277.86 955.94 283.10 958.04 288.25   Q 959.49 291.79 964.09 300.50   C 968.36 308.59 970.19 316.23 973.23 324.48   Q 976.31 332.82 979.80 341.96   Q 980.93 344.92 983.29 353.91   C 985.27 361.48 987.95 368.21 989.80 375.92   Q 996.54 403.90 998.91 424.03   C 999.73 430.93 1000.65 436.94 1002.48 450.15   Q 1003.69 458.95 1003.73 469.91   Q 1003.86 508.92 1002.89 523.75   Q 1000.60 558.89 999.75 573.87   Q 999.39 580.09 998.78 585.33   C 997.92 592.64 997.66 598.90 996.00 605.75   C 993.90 614.37 993.06 621.95 990.52 630.14   Q 987.46 639.99 982.18 659.15   C 979.07 670.41 973.08 682.61 970.19 692.52   Q 969.01 696.55 966.63 701.67   C 963.09 709.27 960.02 715.11 957.17 721.85   C 954.10 729.09 949.87 735.52 946.54 742.68   Q 943.39 749.45 939.30 755.95   Q 921.94 783.56 916.31 791.58   Q 884.05 837.53 841.64 876.66   Q 833.31 884.34 824.15 891.57   Q 817.60 896.74 806.10 905.83   C 800.00 910.65 789.65 917.17 781.71 922.87   C 778.28 925.33 773.86 927.79 769.24 930.91   Q 757.93 938.55 753.82 940.80   Q 734.01 951.64 715.72 960.21   Q 706.46 964.55 681.11 974.15   Q 676.46 975.91 674.19 976.89   Q 665.65 980.55 638.60 988.54   Q 598.02 1000.53 555.73 1004.86   Q 539.88 1006.49 534.51 1006.95   Q 518.47 1008.33 501.26 1008.07   Q 462.77 1007.47 427.12 1002.60   C 413.18 1000.69 399.61 998.04 388.02 995.18   Q 387.70 995.10 369.72 990.32   C 344.55 983.62 319.98 974.14 296.15 963.57   Q 287.13 959.57 278.68 954.93   Q 253.28 941.97 244.38 936.13   Q 238.14 932.05 227.13 924.88   Q 210.98 914.38 195.86 902.48   Q 193.18 900.37 187.08 895.63   Q 182.99 892.44 178.49 888.53   Q 177.69 887.83 176.20 886.55   Q 166.24 877.94 156.76 869.01   Q 149.39 862.07 141.42 853.59   Q 129.68 841.10 121.60 832.06   Q 117.27 827.22 107.55 814.64   Q 98.40 802.81 94.50 797.46   Q 87.72 788.14 82.64 779.52   A 4.06 3.85 9.8 0 0 82.09 778.78   C 80.26 776.83 79.13 774.47 77.81 772.47   Q 72.24 764.03 68.98 758.28   Q 62.95 747.65 54.06 730.82   Q 52.49 727.85 50.76 723.51   Q 49.41 720.12 47.27 716.23   Q 44.18 710.60 39.67 699.85   Q 39.08 698.44 38.37 695.55   A 6.57 6.56 -66.3 0 0 37.72 693.88   Q 36.24 691.22 35.21 687.28   C 34.64 685.15 33.23 683.67 32.67 681.71   C 31.80 678.62 30.71 676.48 29.65 673.75   A 6.01 5.52 31.3 0 1 29.35 672.71   Q 28.66 669.19 26.66 665.89   A 3.66 3.55 23.5 0 1 26.24 664.87   L 24.85 659.12   A 3.01 2.98 26.3 0 0 24.65 658.54   Q 22.66 654.19 21.94 649.47   A 7.81 7.47 -61.3 0 0 21.49 647.79   Q 19.80 643.50 18.97 637.78   A 7.19 6.96 31.5 0 0 18.57 636.22   L 16.34 630.34   A 1.56 1.21 38.0 0 1 16.27 630.06   Q 15.46 623.95 13.46 619.15   A 5.77 5.48 29.5 0 1 13.18 618.23   L 6.71 585.47   A 0.53 0.48 42.1 0 1 6.70 585.37   Q 6.11 576.53 4.28 564.55   Q 3.14 557.10 2.88 549.07   Q 2.17 527.07 1.70 508.26   Q 1.45 498.29 3.01 457.96   C 3.44 446.66 5.63 435.92 6.20 425.60   A 11.63 11.53 -35.6 0 1 6.65 422.95   Q 9.34 413.87 10.11 406.22   A 7.54 7.49 -31.8 0 1 10.57 404.28   Q 12.47 399.28 12.91 393.32   A 6.32 6.12 57.3 0 1 13.20 391.88   C 14.63 387.59 15.31 386.10 16.00 381.74   Q 16.65 377.62 18.39 373.23   A 6.69 6.53 -30.3 0 0 18.73 372.00   C 19.19 369.32 19.78 365.60 21.05 362.47   C 22.42 359.09 22.73 355.32 24.06 352.18   Q 25.32 349.22 25.57 347.00   C 25.98 343.30 28.17 340.44 29.13 336.77   C 30.12 332.99 31.81 329.93 33.01 325.73   A 4.76 4.50 69.9 0 1 33.45 324.71   C 35.25 321.54 35.95 317.89 37.63 314.85   C 38.88 312.59 39.11 310.03 40.29 307.48   Q 45.57 295.99 46.78 293.99   Q 48.85 290.58 49.18 289.48   C 50.01 286.81 51.56 284.32 52.67 281.31   Q 53.40 279.36 54.18 277.89   Q 61.81 263.43 63.10 261.07   Q 64.71 258.09 65.22 257.03   Q 66.09 255.19 67.38 253.03   Q 77.88 235.45 86.44 223.08   Q 89.76 218.29 91.89 214.80   C 95.32 209.16 100.88 203.89 104.79 197.58   Q 106.59 194.68 108.17 192.77   Q 121.11 177.18 131.30 165.70   C 136.97 159.33 143.22 153.56 148.75 147.51   C 150.50 145.60 153.02 143.77 155.06 141.49   Q 159.83 136.15 171.43 126.17   Q 186.41 113.28 198.23 104.24   Q 211.48 94.10 229.73 81.99   Q 251.82 67.33 275.56 55.39   C 283.55 51.37 293.17 47.10 301.40 43.19   Q 313.33 37.52 341.63 27.37   Q 354.48 22.76 381.17 15.24   Q 399.94 10.52 411.73 8.22   Q 428.72 4.91 451.60 2.66   Q 456.11 2.22 464.42 2.03   Q 471.33 1.87 477.27 1.40   Q 487.61 0.58 497.97 0.00   L 510.44 0.00   Z   M 504.88 750.67   C 544.54 750.67 585.44 748.09 624.20 743.35   Q 636.62 741.84 647.54 740.00   C 664.47 737.15 674.56 735.40 687.85 730.53   C 714.43 720.78 730.03 698.02 744.64 674.88   Q 766.61 640.09 786.63 601.13   Q 808.90 557.80 825.85 518.29   Q 848.33 465.91 862.23 429.00   C 866.20 418.46 870.44 407.63 872.36 396.64   Q 873.76 388.64 873.12 380.26   C 870.96 352.26 846.42 334.37 821.47 327.59   Q 800.74 321.97 783.25 320.49   Q 756.21 318.21 726.00 319.68   C 700.75 320.90 679.39 323.59 654.92 327.37   A 1.97 1.97 0.0 0 1 653.16 326.74   C 640.47 312.72 626.23 299.82 610.34 289.67   Q 586.57 274.49 562.44 266.91   Q 534.19 258.04 504.86 258.04   Q 475.54 258.04 447.28 266.92   Q 423.15 274.50 399.39 289.68   C 383.50 299.83 369.26 312.73 356.57 326.75   A 1.97 1.97 0.0 0 1 354.81 327.38   C 330.34 323.60 308.98 320.91 283.73 319.70   Q 253.52 318.23 226.48 320.51   Q 208.99 321.99 188.26 327.61   C 163.31 334.40 138.77 352.29 136.61 380.29   Q 135.97 388.67 137.37 396.67   C 139.29 407.66 143.54 418.49 147.51 429.03   Q 161.41 465.94 183.89 518.31   Q 200.85 557.82 223.12 601.15   Q 243.14 640.11 265.11 674.90   C 279.73 698.04 295.33 720.80 321.91 730.54   C 335.20 735.41 345.29 737.16 362.22 740.01   Q 373.14 741.85 385.56 743.36   C 424.32 748.09 465.22 750.67 504.88 750.67   Z"/>
<path xmlns="http://www.w3.org/2000/svg" fill="#ffffff" d="   M 381.17 15.24   Q 354.48 22.76 341.63 27.37   Q 313.33 37.52 301.40 43.19   C 293.17 47.10 283.55 51.37 275.56 55.39   Q 251.82 67.33 229.73 81.99   Q 211.48 94.10 198.23 104.24   Q 186.41 113.28 171.43 126.17   Q 159.83 136.15 155.06 141.49   C 153.02 143.77 150.50 145.60 148.75 147.51   C 143.22 153.56 136.97 159.33 131.30 165.70   Q 121.11 177.18 108.17 192.77   Q 106.59 194.68 104.79 197.58   C 100.88 203.89 95.32 209.16 91.89 214.80   Q 89.76 218.29 86.44 223.08   Q 77.88 235.45 67.38 253.03   Q 66.09 255.19 65.22 257.03   Q 64.71 258.09 63.10 261.07   Q 61.81 263.43 54.18 277.89   Q 53.40 279.36 52.67 281.31   C 51.56 284.32 50.01 286.81 49.18 289.48   Q 48.85 290.58 46.78 293.99   Q 45.57 295.99 40.29 307.48   C 39.11 310.03 38.88 312.59 37.63 314.85   C 35.95 317.89 35.25 321.54 33.45 324.71   A 4.76 4.50 69.9 0 0 33.01 325.73   C 31.81 329.93 30.12 332.99 29.13 336.77   C 28.17 340.44 25.98 343.30 25.57 347.00   Q 25.32 349.22 24.06 352.18   C 22.73 355.32 22.42 359.09 21.05 362.47   C 19.78 365.60 19.19 369.32 18.73 372.00   A 6.69 6.53 -30.3 0 1 18.39 373.23   Q 16.65 377.62 16.00 381.74   C 15.31 386.10 14.63 387.59 13.20 391.88   A 6.32 6.12 57.3 0 0 12.91 393.32   Q 12.47 399.28 10.57 404.28   A 7.54 7.49 -31.8 0 0 10.11 406.22   Q 9.34 413.87 6.65 422.95   A 11.63 11.53 -35.6 0 0 6.20 425.60   C 5.63 435.92 3.44 446.66 3.01 457.96   Q 1.45 498.29 1.70 508.26   Q 2.17 527.07 2.88 549.07   Q 3.14 557.10 4.28 564.55   Q 6.11 576.53 6.70 585.37   A 0.53 0.48 42.1 0 0 6.71 585.47   L 13.18 618.23   A 5.77 5.48 29.5 0 0 13.46 619.15   Q 15.46 623.95 16.27 630.06   A 1.56 1.21 38.0 0 0 16.34 630.34   L 18.57 636.22   A 7.19 6.96 31.5 0 1 18.97 637.78   Q 19.80 643.50 21.49 647.79   A 7.81 7.47 -61.3 0 1 21.94 649.47   Q 22.66 654.19 24.65 658.54   A 3.01 2.98 26.3 0 1 24.85 659.12   L 26.24 664.87   A 3.66 3.55 23.5 0 0 26.66 665.89   Q 28.66 669.19 29.35 672.71   A 6.01 5.52 31.3 0 0 29.65 673.75   C 30.71 676.48 31.80 678.62 32.67 681.71   C 33.23 683.67 34.64 685.15 35.21 687.28   Q 36.24 691.22 37.72 693.88   A 6.57 6.56 -66.3 0 1 38.37 695.55   Q 39.08 698.44 39.67 699.85   Q 44.18 710.60 47.27 716.23   Q 49.41 720.12 50.76 723.51   Q 52.49 727.85 54.06 730.82   Q 62.95 747.65 68.98 758.28   Q 72.24 764.03 77.81 772.47   C 79.13 774.47 80.26 776.83 82.09 778.78   A 4.06 3.85 9.8 0 1 82.64 779.52   Q 87.72 788.14 94.50 797.46   Q 98.40 802.81 107.55 814.64   Q 117.27 827.22 121.60 832.06   Q 129.68 841.10 141.42 853.59   Q 149.39 862.07 156.76 869.01   Q 166.24 877.94 176.20 886.55   Q 177.69 887.83 178.49 888.53   Q 182.99 892.44 187.08 895.63   Q 193.18 900.37 195.86 902.48   Q 210.98 914.38 227.13 924.88   Q 238.14 932.05 244.38 936.13   Q 253.28 941.97 278.68 954.93   Q 258.92 945.62 240.60 934.14   Q 222.05 922.50 206.64 911.47   C 199.78 906.57 194.79 902.32 187.14 896.34   C 165.70 879.63 146.93 861.15 125.81 837.99   Q 115.67 826.87 108.05 816.84   Q 93.64 797.86 91.52 794.76   Q 90.28 792.96 75.82 771.19   Q 69.76 762.07 64.66 752.55   Q 62.15 747.84 54.09 733.51   Q 52.29 730.30 50.83 726.34   Q 49.57 722.95 47.52 719.16   C 45.62 715.66 43.07 711.71 41.67 707.95   Q 40.19 703.97 39.03 701.95   A 4.55 4.40 -64.9 0 1 38.45 700.26   C 37.96 696.57 35.56 693.15 34.99 689.73   C 34.54 686.99 32.47 685.32 31.91 682.65   Q 31.53 680.81 29.99 678.22   C 28.65 675.97 28.59 674.84 28.00 672.53   C 27.29 669.75 25.54 667.44 25.12 664.90   Q 24.69 662.37 23.26 659.51   Q 21.88 656.74 21.42 652.44   A 6.53 6.46 -61.4 0 0 20.78 650.22   Q 18.47 645.54 18.18 640.01   A 1.02 0.99 33.0 0 0 18.11 639.70   L 15.74 633.60   A 4.64 4.19 33.4 0 1 15.47 632.56   Q 14.87 627.92 13.16 623.44   C 11.88 620.07 11.91 617.17 11.28 614.46   A 8.48 5.06 71.4 0 0 10.95 613.31   Q 8.85 607.22 8.72 605.00   Q 8.37 598.79 7.82 596.72   C 6.03 589.99 5.61 586.23 5.31 579.39   Q 5.20 576.94 4.10 571.39   Q 2.10 561.31 2.03 558.98   Q 1.76 549.63 1.65 540.29   Q 1.59 539.81 1.70 539.44   C 1.04 527.83 0.45 516.20 0.82 504.55   C 1.02 498.13 0.65 491.39 0.98 484.17   Q 1.38 475.44 2.08 446.72   Q 2.19 442.25 4.40 433.32   A 13.81 13.54 -36.7 0 0 4.78 430.89   C 5.10 426.42 5.13 421.71 6.36 417.20   Q 8.09 410.78 8.90 404.18   C 9.27 401.12 11.10 397.24 11.54 393.48   Q 11.73 393.19 11.70 392.79   L 11.80 392.25   Q 12.00 391.79 11.91 391.29   Q 12.33 389.55 12.97 387.86   Q 14.59 383.58 15.51 376.55   A 2.38 2.24 61.8 0 1 15.65 376.03   L 18.01 369.81   A 6.48 6.42 -33.1 0 0 18.42 367.91   Q 18.69 363.37 20.71 359.77   A 6.47 6.44 64.2 0 0 21.44 357.66   Q 22.25 352.63 22.63 351.64   Q 25.20 344.87 25.30 342.63   A 2.03 1.85 -34.7 0 1 25.47 341.89   L 28.06 335.88   A 0.46 0.33 -35.8 0 0 28.10 335.76   Q 28.71 332.58 30.10 330.01   C 31.32 327.77 31.48 326.25 32.27 323.86   A 4.12 4.12 0.0 0 1 32.81 322.78   C 34.72 320.11 35.02 317.02 36.20 314.65   Q 37.79 311.44 39.06 306.69   A 9.24 8.78 -26.8 0 1 39.52 305.40   C 42.37 299.01 47.21 291.33 50.05 284.23   C 53.74 275.00 58.28 267.28 62.64 258.97   Q 67.27 250.13 71.30 243.81   Q 88.38 217.06 97.81 204.32   Q 136.12 152.61 186.79 112.04   C 209.08 94.19 231.70 79.17 254.76 65.78   C 263.89 60.49 277.41 53.56 289.69 47.91   Q 305.38 40.70 307.91 39.68   Q 325.96 32.45 336.70 28.48   Q 355.70 21.45 381.17 15.24   Z"/>
<path xmlns="http://www.w3.org/2000/svg" fill="#ffffff" d="   M 504.86 258.04   Q 534.19 258.04 562.44 266.91   Q 586.57 274.49 610.34 289.67   C 626.23 299.82 640.47 312.72 653.16 326.74   A 1.97 1.97 0.0 0 0 654.92 327.37   C 679.39 323.59 700.75 320.90 726.00 319.68   Q 756.21 318.21 783.25 320.49   Q 800.74 321.97 821.47 327.59   C 846.42 334.37 870.96 352.26 873.12 380.26   Q 873.76 388.64 872.36 396.64   C 870.44 407.63 866.20 418.46 862.23 429.00   Q 848.33 465.91 825.85 518.29   Q 808.90 557.80 786.63 601.13   Q 766.61 640.09 744.64 674.88   C 730.03 698.02 714.43 720.78 687.85 730.53   C 674.56 735.40 664.47 737.15 647.54 740.00   Q 636.62 741.84 624.20 743.35   C 585.44 748.09 544.54 750.67 504.88 750.67   C 465.22 750.67 424.32 748.09 385.56 743.36   Q 373.14 741.85 362.22 740.01   C 345.29 737.16 335.20 735.41 321.91 730.54   C 295.33 720.80 279.73 698.04 265.11 674.90   Q 243.14 640.11 223.12 601.15   Q 200.85 557.82 183.89 518.31   Q 161.41 465.94 147.51 429.03   C 143.54 418.49 139.29 407.66 137.37 396.67   Q 135.97 388.67 136.61 380.29   C 138.77 352.29 163.31 334.40 188.26 327.61   Q 208.99 321.99 226.48 320.51   Q 253.52 318.23 283.73 319.70   C 308.98 320.91 330.34 323.60 354.81 327.38   A 1.97 1.97 0.0 0 0 356.57 326.75   C 369.26 312.73 383.50 299.83 399.39 289.68   Q 423.15 274.50 447.28 266.92   Q 475.54 258.04 504.86 258.04   Z   M 504.85 497.66   C 550.69 497.68 597.82 492.94 643.06 482.69   A 2.31 2.29 0.2 0 0 644.79 480.98   Q 646.61 473.33 648.17 464.25   C 660.12 394.83 612.84 331.09 548.13 310.87   C 533.93 306.44 519.67 304.35 504.94 304.35   C 490.21 304.34 475.95 306.41 461.75 310.83   C 397.01 330.99 349.68 394.69 361.56 464.12   Q 363.11 473.20 364.93 480.85   A 2.31 2.29 -0.1 0 0 366.66 482.56   C 411.88 492.85 459.01 497.64 504.85 497.66   Z   M 695.99 469.51   Q 719.74 462.36 743.58 452.25   Q 770.12 441.02 793.25 425.34   Q 806.91 416.10 817.19 404.82   C 820.82 400.85 824.12 396.96 825.67 391.64   C 828.87 380.67 818.31 375.27 809.65 372.49   Q 795.02 367.79 778.51 366.59   C 754.85 364.89 732.31 365.36 713.60 366.88   Q 699.79 368.01 682.44 370.05   A 0.49 0.48 74.7 0 0 682.06 370.73   Q 702.80 417.73 695.40 469.00   A 0.46 0.46 0.0 0 0 695.99 469.51   Z   M 314.07 469.51   A 0.46 0.46 0.0 0 0 314.66 469.00   Q 307.16 417.66 327.85 370.56   A 0.49 0.48 -74.8 0 0 327.47 369.88   Q 310.09 367.86 296.25 366.75   C 277.51 365.26 254.94 364.83 231.25 366.58   Q 214.71 367.81 200.07 372.54   C 191.40 375.34 180.83 380.76 184.06 391.74   C 185.62 397.07 188.93 400.96 192.57 404.93   Q 202.89 416.21 216.58 425.44   Q 239.78 441.10 266.37 452.31   Q 290.27 462.39 314.07 469.51   Z   M 504.86 704.11   Q 545.07 704.12 586.00 700.55   Q 620.93 697.50 648.81 692.54   C 661.32 690.32 670.30 688.73 679.23 682.47   C 686.27 677.54 690.86 670.61 696.37 662.91   Q 706.33 648.99 719.60 625.88   Q 759.82 555.79 790.22 481.11   A 0.33 0.33 0.0 0 0 789.75 480.70   C 764.94 494.67 737.46 505.42 710.50 513.51   C 699.91 516.69 687.92 520.31 676.44 523.14   C 620.20 537.03 562.70 543.83 504.89 543.83   C 447.07 543.82 389.57 536.99 333.34 523.09   C 321.86 520.26 309.87 516.63 299.28 513.45   C 272.32 505.35 244.85 494.60 220.04 480.62   A 0.33 0.33 0.0 0 0 219.57 481.03   Q 249.95 555.72 290.15 625.82   Q 303.41 648.93 313.37 662.85   C 318.87 670.56 323.46 677.49 330.50 682.42   C 339.43 688.68 348.41 690.27 360.92 692.50   Q 388.80 697.47 423.73 700.52   Q 464.66 704.11 504.86 704.11   Z"/>
<path xmlns="http://www.w3.org/2000/svg" fill="#000000" d="   M 504.94 304.35   C 519.67 304.35 533.93 306.44 548.13 310.87   C 612.84 331.09 660.12 394.83 648.17 464.25   Q 646.61 473.33 644.79 480.98   A 2.31 2.29 0.2 0 1 643.06 482.69   C 597.82 492.94 550.69 497.68 504.85 497.66   C 459.01 497.64 411.88 492.85 366.66 482.56   A 2.31 2.29 -0.1 0 1 364.93 480.85   Q 363.11 473.20 361.56 464.12   C 349.68 394.69 397.01 330.99 461.75 310.83   C 475.95 306.41 490.21 304.34 504.94 304.35   Z"/>
<path xmlns="http://www.w3.org/2000/svg" fill="#000000" d="   M 695.99 469.51   A 0.46 0.46 0.0 0 1 695.40 469.00   Q 702.80 417.73 682.06 370.73   A 0.49 0.48 74.7 0 1 682.44 370.05   Q 699.79 368.01 713.60 366.88   C 732.31 365.36 754.85 364.89 778.51 366.59   Q 795.02 367.79 809.65 372.49   C 818.31 375.27 828.87 380.67 825.67 391.64   C 824.12 396.96 820.82 400.85 817.19 404.82   Q 806.91 416.10 793.25 425.34   Q 770.12 441.02 743.58 452.25   Q 719.74 462.36 695.99 469.51   Z"/>
<path xmlns="http://www.w3.org/2000/svg" fill="#000000" d="   M 314.07 469.51   Q 290.27 462.39 266.37 452.31   Q 239.78 441.10 216.58 425.44   Q 202.89 416.21 192.57 404.93   C 188.93 400.96 185.62 397.07 184.06 391.74   C 180.83 380.76 191.40 375.34 200.07 372.54   Q 214.71 367.81 231.25 366.58   C 254.94 364.83 277.51 365.26 296.25 366.75   Q 310.09 367.86 327.47 369.88   A 0.49 0.48 -74.8 0 1 327.85 370.56   Q 307.16 417.66 314.66 469.00   A 0.46 0.46 0.0 0 1 314.07 469.51   Z"/>
<path xmlns="http://www.w3.org/2000/svg" fill="#000000" d="   M 11.91 391.29   Q 12.00 391.79 11.80 392.25   L 11.91 391.29   Z"/>
<path xmlns="http://www.w3.org/2000/svg" fill="#000000" d="   M 11.70 392.79   Q 11.73 393.19 11.54 393.48   L 11.70 392.79   Z"/>
<path xmlns="http://www.w3.org/2000/svg" fill="#000000" d="   M 504.89 543.83   C 562.70 543.83 620.20 537.03 676.44 523.14   C 687.92 520.31 699.91 516.69 710.50 513.51   C 737.46 505.42 764.94 494.67 789.75 480.70   A 0.33 0.33 0.0 0 1 790.22 481.11   Q 759.82 555.79 719.60 625.88   Q 706.33 648.99 696.37 662.91   C 690.86 670.61 686.27 677.54 679.23 682.47   C 670.30 688.73 661.32 690.32 648.81 692.54   Q 620.93 697.50 586.00 700.55   Q 545.07 704.12 504.86 704.11   Q 464.66 704.11 423.73 700.52   Q 388.80 697.47 360.92 692.50   C 348.41 690.27 339.43 688.68 330.50 682.42   C 323.46 677.49 318.87 670.56 313.37 662.85   Q 303.41 648.93 290.15 625.82   Q 249.95 555.72 219.57 481.03   A 0.33 0.33 0.0 0 1 220.04 480.62   C 244.85 494.60 272.32 505.35 299.28 513.45   C 309.87 516.63 321.86 520.26 333.34 523.09   C 389.57 536.99 447.07 543.82 504.89 543.83   Z"/>
<path xmlns="http://www.w3.org/2000/svg" fill="#000000" d="   M 1.65 540.29   Q 1.55 539.79 1.70 539.44   Q 1.59 539.81 1.65 540.29   Z"/>
</g></g></g></svg>