<svg xmlns="http://www.w3.org/2000/svg" direction="ltr" width="800" height="331" viewBox="2795 6590 800 331" stroke-linecap="round" stroke-linejoin="round" data-color-mode="light" class="tl-container tl-theme__force-sRGB tl-theme__light" style="background-color: transparent;"><defs/><g transform="matrix(1, 0, 0, 1, 2795, 6590)" opacity="1"><g transform="scale(0.5, 0.5)"><g>
<g xmlns="http://www.w3.org/2000/svg" stroke-width="2.00" fill="none" stroke-linecap="butt">
<path stroke="#514849" vector-effect="non-scaling-stroke" d="   M 594.37 214.04   Q 594.47 213.65 594.41 213.36   Q 594.31 212.93 593.94 212.91   Q 593.42 212.87 593.11 213.16   A 0.30 0.30 0.0 0 0 593.24 213.68   L 593.70 213.79"/>
<path stroke="#514849" vector-effect="non-scaling-stroke" d="   M 545.58 235.56   Q 545.77 234.87 545.26 234.43"/>
<path stroke="#514849" vector-effect="non-scaling-stroke" d="   M 543.70 230.89   Q 539.28 220.88 532.16 212.54"/>
<path stroke="#514849" vector-effect="non-scaling-stroke" d="   M 523.96 192.73   Q 528.61 188.41 532.76 183.66   Q 538.37 177.24 541.13 174.22   Q 545.36 169.60 549.84 163.23   C 551.58 160.75 554.03 158.10 555.51 156.26   Q 556.35 155.22 570.62 135.87   C 573.96 131.34 576.78 126.18 579.83 122.03   C 584.19 116.12 586.70 110.90 590.65 105.21   Q 592.72 102.22 598.25 92.48   Q 610.68 70.64 619.67 51.90   Q 624.82 41.17 628.06 33.29   Q 628.21 32.91 629.29 30.39   Q 635.39 16.08 640.93 1.35"/>
<path stroke="#514849" vector-effect="non-scaling-stroke" d="   M 273.21 170.51   L 286.36 165.04"/>
<path stroke="#514849" vector-effect="non-scaling-stroke" d="   M 286.45 165.05   Q 288.47 164.71 290.09 163.30"/>
<path stroke="#514849" vector-effect="non-scaling-stroke" d="   M 292.74 161.99   Q 297.92 160.36 302.37 157.26"/>
<path stroke="#514849" vector-effect="non-scaling-stroke" d="   M 308.19 154.00   Q 309.39 154.07 309.92 152.92"/>
<path stroke="#514849" vector-effect="non-scaling-stroke" d="   M 320.71 146.22   Q 321.37 146.20 321.74 145.70   Q 321.99 145.38 321.47 144.98"/>
<path stroke="#514849" vector-effect="non-scaling-stroke" d="   M 262.95 112.43   Q 268.62 108.07 273.38 103.04   Q 274.61 101.74 282.95 92.75   Q 288.44 86.83 292.98 80.04"/>
<path stroke="#514849" vector-effect="non-scaling-stroke" d="   M 13.61 224.03   Q 13.57 224.46 13.90 224.49   A 0.18 0.18 0.0 0 0 14.09 224.29   Q 13.31 215.24 11.46 208.57   Q 10.32 204.46 9.10 197.81   Q 8.14 192.61 6.37 187.13   L 6.37 187.12   Q 6.37 187.22 6.37 187.32   Q 6.38 187.61 6.20 187.83"/>
<path stroke="#514849" vector-effect="non-scaling-stroke" d="   M 42.79 181.42   Q 45.55 181.97 44.75 180.88"/>
<path stroke="#514849" vector-effect="non-scaling-stroke" d="   M 12.86 45.31   L 13.71 12.32"/>
<path stroke="#514849" vector-effect="non-scaling-stroke" d="   M 13.39 223.01   Q 13.41 222.63 13.31 222.29"/>
<path stroke="#514849" vector-effect="non-scaling-stroke" d="   M 717.20 167.55   Q 718.07 126.14 717.68 84.75   Q 717.66 82.56 717.39 80.47   A 0.04 0.03 -50.3 0 0 717.32 80.48   L 717.12 83.96"/>
<path stroke="#514849" vector-effect="non-scaling-stroke" d="   M 337.46 330.73   Q 339.44 329.87 343.49 327.25   Q 364.93 313.35 381.09 300.78"/>
<path stroke="#514849" vector-effect="non-scaling-stroke" d="   M 211.34 479.46   Q 212.31 476.83 212.19 473.61   Q 212.05 470.03 212.05 469.94   Q 212.25 445.35 212.06 420.75   Q 212.04 417.10 211.41 413.53"/>
<path stroke="#514849" vector-effect="non-scaling-stroke" d="   M 211.34 412.06   Q 212.02 410.61 211.32 409.17"/>
<path stroke="#514849" vector-effect="non-scaling-stroke" d="   M 37.86 475.14   Q 35.49 469.08 31.11 462.89   C 27.14 457.30 24.30 453.09 19.74 448.19   Q 17.65 445.93 14.13 441.81   Q 10.90 438.02 2.58 431.17   Q 1.60 430.37 2.57 428.88"/>
<path stroke="#514849" vector-effect="non-scaling-stroke" d="   M 3.80 428.66   Q 12.03 427.84 19.78 424.96"/>
<path stroke="#514849" vector-effect="non-scaling-stroke" d="   M 20.20 424.85   Q 21.26 425.27 22.07 424.48"/>
<path stroke="#514849" vector-effect="non-scaling-stroke" d="   M 22.19 424.45   Q 23.86 424.52 25.31 423.80"/>
<path stroke="#514849" vector-effect="non-scaling-stroke" d="   M 25.31 423.80   Q 25.72 423.75 26.04 423.52"/>
<path stroke="#514849" vector-effect="non-scaling-stroke" d="   M 26.20 423.50   Q 27.79 423.45 29.22 422.81"/>
<path stroke="#514849" vector-effect="non-scaling-stroke" d="   M 29.69 422.60   Q 30.28 423.07 30.53 422.48"/>
<path stroke="#514849" vector-effect="non-scaling-stroke" d="   M 30.53 422.48   L 36.19 421.00"/>
<path stroke="#514849" vector-effect="non-scaling-stroke" d="   M 38.73 420.27   Q 39.38 420.40 39.53 419.91"/>
<path stroke="#7d7b79" vector-effect="non-scaling-stroke" d="   M 211.99 386.84   Q 211.40 386.82 210.96 387.00   A 0.31 0.31 0.0 0 0 210.90 387.54   Q 212.76 388.83 212.60 386.71"/>
<path stroke="#514849" vector-effect="non-scaling-stroke" d="   M 211.59 374.03   Q 211.56 374.63 211.68 375.01   A 0.20 0.20 0.0 0 0 212.06 374.98   Q 212.49 372.23 211.39 369.68"/>
<path stroke="#514849" vector-effect="non-scaling-stroke" d="   M 211.44 339.03   L 211.57 342.80   A 0.15 0.14 -2.0 0 0 211.72 342.93   L 211.74 342.94   A 0.15 0.14 12.1 0 0 211.95 342.81   L 211.95 327.90   A 0.23 0.23 0.0 0 0 211.50 327.82   Q 211.26 328.47 211.44 329.55"/>
<path stroke="#514849" vector-effect="non-scaling-stroke" d="   M 52.86 295.54   Q 52.77 295.85 53.19 296.16   A 0.46 0.46 0.0 0 0 53.91 295.70   Q 53.12 291.78 52.01 287.75   Q 50.25 281.36 41.89 262.31   Q 39.38 256.58 36.29 252.76"/>
<path stroke="#514849" vector-effect="non-scaling-stroke" d="   M 211.35 332.21   L 211.41 330.04"/>
<path stroke="#514849" vector-effect="non-scaling-stroke" d="   M 40.40 388.78   Q 41.79 388.50 40.82 387.38   Q 40.16 386.62 39.85 385.77   Q 39.26 384.17 39.13 383.96   Q 33.02 374.37 28.02 368.96   Q 21.01 361.40 7.70 348.01   Q 7.45 347.75 7.36 347.01"/>
<path stroke="#514849" vector-effect="non-scaling-stroke" d="   M 11.54 345.74   Q 15.79 345.33 24.02 343.57   Q 47.51 338.55 65.34 332.99"/>
<path stroke="#514849" vector-effect="non-scaling-stroke" d="   M 692.16 391.97   Q 703.81 384.21 712.32 375.80   C 722.35 365.90 732.74 354.10 741.73 342.22   Q 748.98 332.62 755.17 319.90"/>
<path stroke="#7d7b79" vector-effect="non-scaling-stroke" d="   M 743.15 530.79   Q 739.86 528.49 732.00 528.39   Q 719.02 528.23 705.94 528.71   A 2.21 2.21 0.0 0 0 703.98 530.06   L 690.43 562.23"/>
<path stroke="#cfc4c2" stroke-opacity="0.996" vector-effect="non-scaling-stroke" d="   M 690.43 562.23   Q 690.02 562.14 689.75 562.18"/>
<path stroke="#514849" vector-effect="non-scaling-stroke" d="   M 660.99 628.20   Q 666.71 617.51 670.06 609.56   Q 672.47 603.84 674.40 599.62   Q 676.93 594.11 678.70 589.68   Q 680.88 584.20 683.18 578.99   Q 686.87 570.64 690.43 562.23"/>
<path stroke="#514849" vector-effect="non-scaling-stroke" d="   M 887.99 530.70   C 883.69 530.05 879.25 528.69 875.26 528.48   Q 867.88 528.10 864.53 527.92   A 6.86 6.79 39.6 0 0 862.52 528.10   Q 860.57 528.57 856.72 528.88   Q 853.90 529.12 850.01 530.17   Q 836.45 533.82 825.86 541.75   Q 811.21 552.73 805.39 570.89   Q 805.15 571.64 804.88 572.06   Q 804.30 573.00 804.05 571.98"/>
<path stroke="#514849" vector-effect="non-scaling-stroke" d="   M 921.72 555.92   Q 922.61 558.65 924.57 560.48"/>
<path stroke="#514849" vector-effect="non-scaling-stroke" d="   M 1275.22 528.45   L 1271.36 528.55"/>
<path stroke="#514849" vector-effect="non-scaling-stroke" d="   M 1269.50 528.55   Q 1269.90 528.68 1270.29 528.54"/>
<path stroke="#514849" vector-effect="non-scaling-stroke" d="   M 1270.46 528.54   Q 1271.20 528.78 1271.26 528.51"/>
<path stroke="#514849" vector-effect="non-scaling-stroke" d="   M 1275.49 528.57   L 1278.71 528.72"/>
<path stroke="#cfc4c2" stroke-opacity="0.996" vector-effect="non-scaling-stroke" d="   M 1288.71 529.73   Q 1287.07 530.25 1287.58 530.48"/>
<path stroke="#514849" vector-effect="non-scaling-stroke" d="   M 1287.58 530.48   Q 1277.34 529.21 1267.12 529.77   Q 1264.73 529.90 1262.38 529.58   Q 1261.47 529.45 1261.55 529.08"/>
<path stroke="#514849" vector-effect="non-scaling-stroke" d="   M 1262.54 528.96   Q 1262.94 529.02 1263.29 528.86"/>
<path stroke="#514849" vector-effect="non-scaling-stroke" d="   M 1269.25 528.57   L 1266.21 528.66"/>
<path stroke="#7d7b79" vector-effect="non-scaling-stroke" d="   M 1287.58 530.48   Q 1290.17 531.79 1292.90 535.10   Q 1298.03 541.30 1302.95 547.68"/>
<path stroke="#514849" vector-effect="non-scaling-stroke" d="   M 1373.89 563.84   Q 1372.29 570.35 1372.46 572.49   Q 1372.79 576.76 1372.26 581.01   Q 1372.00 583.10 1373.22 590.02"/>
<path stroke="#514849" vector-effect="non-scaling-stroke" d="   M 1373.71 602.67   Q 1372.90 604.12 1373.77 605.31"/>
<path stroke="#514849" vector-effect="non-scaling-stroke" d="   M 1373.63 644.00   Q 1372.13 646.50 1372.85 649.63"/>
<path stroke="#514849" vector-effect="non-scaling-stroke" d="   M 1374.08 545.25   L 1374.04 548.19   A 0.17 0.05 87.5 0 1 1374.00 548.34   Q 1373.98 548.36 1373.96 548.48   A 0.14 0.06 66.2 0 1 1373.81 548.34   Q 1372.56 539.46 1372.81 533.03   C 1372.90 530.54 1372.07 530.23 1369.88 530.16   Q 1358.56 529.81 1347.25 529.92   Q 1345.10 529.94 1338.78 530.43"/>
<path stroke="#514849" vector-effect="non-scaling-stroke" d="   M 1352.29 528.87   L 1351.53 528.91"/>
<path stroke="#7d7b79" vector-effect="non-scaling-stroke" d="   M 284.85 528.62   L 292.17 528.71"/>
<path stroke="#cfc4c2" stroke-opacity="0.996" vector-effect="non-scaling-stroke" d="   M 308.21 529.79   L 308.20 530.28"/>
<path stroke="#7d7b79" vector-effect="non-scaling-stroke" d="   M 308.20 530.28   Q 305.90 530.48 303.55 529.98   A 3.00 2.32 44.2 0 0 302.94 529.91   Q 290.65 529.57 280.30 529.88   Q 277.92 529.95 277.87 532.56   Q 277.32 564.71 277.94 602.75   Q 277.99 606.15 277.75 608.75   Q 277.32 613.28 276.63 614.61   Q 273.31 621.11 267.15 622.54"/>
<path stroke="#514849" vector-effect="non-scaling-stroke" d="   M 308.20 530.28   Q 308.72 530.36 308.99 530.00"/>
<path stroke="#7d7b79" vector-effect="non-scaling-stroke" d="   M 250.01 651.02   Q 243.80 649.07 242.13 648.35   Q 231.97 644.01 223.90 633.09   Q 222.56 631.27 224.33 629.60   Q 233.51 620.95 243.15 612.36"/>
<path stroke="#7d7b79" vector-effect="non-scaling-stroke" d="   M 349.21 528.67   L 347.52 528.66"/>
<path stroke="#7d7b79" vector-effect="non-scaling-stroke" d="   M 372.50 531.82   Q 371.36 530.07 368.25 529.99   C 355.78 529.68 346.88 529.26 340.13 530.38   A 2.02 2.01 -4.5 0 0 338.45 532.34   Q 338.00 572.17 339.12 611.65"/>
<path stroke="#cfc4c2" stroke-opacity="0.996" vector-effect="non-scaling-stroke" d="   M 337.11 591.30   Q 337.23 590.53 337.01 590.03"/>
<path stroke="#514849" vector-effect="non-scaling-stroke" d="   M 404.48 620.81   Q 410.71 619.28 413.75 613.47   Q 415.73 609.69 416.40 605.45"/>
<path stroke="#7d7b79" vector-effect="non-scaling-stroke" d="   M 442.49 529.78   L 419.47 530.38   A 1.91 1.91 0.0 0 0 417.61 532.29   L 417.61 595.93   A 0.58 0.48 -39.3 0 1 417.57 596.13   Q 416.94 597.79 417.15 599.64   A 4.56 4.48 -44.5 0 1 417.13 600.76   L 416.40 605.45"/>
<path stroke="#cfc4c2" stroke-opacity="0.996" vector-effect="non-scaling-stroke" d="   M 416.40 605.45   Q 416.05 605.99 416.00 604.74"/>
<path stroke="#7d7b79" vector-effect="non-scaling-stroke" d="   M 416.00 604.74   Q 415.89 603.97 416.11 604.03"/>
<path stroke="#514849" vector-effect="non-scaling-stroke" d="   M 416.00 604.74   Q 415.93 604.74 415.86 604.73"/>
<path stroke="#514849" vector-effect="non-scaling-stroke" d="   M 1220.99 528.86   L 1218.51 528.81"/>
<path stroke="#514849" vector-effect="non-scaling-stroke" d="   M 1206.29 528.88   L 1205.47 528.84"/>
<path stroke="#514849" vector-effect="non-scaling-stroke" d="   M 1152.06 529.22   Q 1154.93 530.33 1157.99 530.36   C 1174.57 530.50 1191.57 529.88 1207.67 529.93   Q 1218.32 529.97 1229.00 529.91"/>
<path stroke="#514849" vector-effect="non-scaling-stroke" d="   M 1230.45 530.21   Q 1230.80 530.93 1231.42 531.38   Q 1231.87 531.70 1232.04 531.34   Q 1232.16 531.07 1232.03 530.55"/>
<path stroke="#514849" vector-effect="non-scaling-stroke" d="   M 1224.52 557.50   L 1214.60 557.66"/>
<path stroke="#514849" vector-effect="non-scaling-stroke" d="   M 1167.49 576.58   Q 1190.75 577.37 1213.93 576.64   Q 1214.32 576.63 1218.13 576.75   Q 1220.24 576.82 1222.30 576.42"/>
<path stroke="#514849" vector-effect="non-scaling-stroke" d="   M 1208.56 575.60   Q 1210.76 576.15 1213.14 575.86"/>
<path stroke="#514849" vector-effect="non-scaling-stroke" d="   M 1213.20 575.76   Q 1213.45 575.99 1214.01 575.85"/>
<path stroke="#514849" vector-effect="non-scaling-stroke" d="   M 1205.68 575.64   L 1199.75 575.84"/>
<path stroke="#514849" vector-effect="non-scaling-stroke" d="   M 616.19 532.84   Q 612.65 532.11 609.07 531.40   C 602.90 530.18 594.33 530.34 590.50 530.27   Q 566.61 529.83 534.72 530.16   A 2.00 1.99 89.7 0 0 532.75 532.16   L 533.09 649.98"/>
<path stroke="#514849" vector-effect="non-scaling-stroke" d="   M 1082.83 532.40   L 1074.12 530.57   A 1.68 0.08 3.9 0 0 1073.93 530.55   Q 1046.61 529.56 1027.01 529.98   Q 1017.42 530.19 1011.16 530.78   A 1.29 1.29 0.0 0 0 1010.00 532.01   C 1009.52 543.36 1010.06 554.22 1009.92 564.01   Q 1009.68 581.51 1010.04 612.00   Q 1010.22 627.54 1009.52 650.31"/>
<path stroke="#514849" vector-effect="non-scaling-stroke" d="   M 1008.59 566.71   L 1008.61 565.54"/>
<path stroke="#514849" vector-effect="non-scaling-stroke" d="   M 1092.44 608.42   Q 1082.01 613.91 1072.75 614.55   Q 1069.62 614.76 1067.53 615.00   C 1062.79 615.54 1058.73 615.60 1054.25 615.64"/>
<path stroke="#514849" vector-effect="non-scaling-stroke" d="   M 1043.86 616.68   Q 1043.72 616.22 1043.52 616.26   A 1.03 1.02 -10.9 0 0 1042.70 617.46   Q 1042.76 617.79 1043.47 617.53"/>
<path stroke="#7d7b79" vector-effect="non-scaling-stroke" d="   M 1427.47 0.50   Q 1432.47 6.46 1437.31 12.45   Q 1441.49 17.61 1456.28 32.20   Q 1469.70 45.44 1490.48 61.24   Q 1493.10 63.24 1498.99 66.97"/>
<path stroke="#514849" vector-effect="non-scaling-stroke" d="   M 1498.99 66.97   Q 1499.23 67.37 1499.74 67.49"/>
<path stroke="#514849" vector-effect="non-scaling-stroke" d="   M 1499.74 67.49   Q 1501.68 69.47 1504.17 70.71"/>
<path stroke="#514849" vector-effect="non-scaling-stroke" d="   M 1507.98 73.16   Q 1508.37 73.94 1509.26 73.99"/>
<path stroke="#514849" vector-effect="non-scaling-stroke" d="   M 1509.26 73.99   Q 1509.47 74.44 1510.02 74.43"/>
<path stroke="#514849" vector-effect="non-scaling-stroke" d="   M 1512.73 76.18   Q 1513.21 77.15 1514.02 77.02"/>
<path stroke="#514849" vector-effect="non-scaling-stroke" d="   M 1514.02 77.02   Q 1514.18 77.47 1514.78 77.47"/>
<path stroke="#514849" vector-effect="non-scaling-stroke" d="   M 1523.99 82.99   Q 1524.10 83.60 1524.84 83.39"/>
<path stroke="#514849" vector-effect="non-scaling-stroke" d="   M 1556.25 99.89   Q 1556.73 100.77 1558.04 100.71"/>
<path stroke="#514849" vector-effect="non-scaling-stroke" d="   M 1560.44 101.67   Q 1561.73 102.94 1563.26 102.83"/>
<path stroke="#514849" vector-effect="non-scaling-stroke" d="   M 1573.97 107.45   Q 1574.35 108.07 1575.20 107.91"/>
<path stroke="#514849" vector-effect="non-scaling-stroke" d="   M 1477.00 205.45   Q 1475.75 208.34 1475.83 211.26"/>
<path stroke="#514849" vector-effect="non-scaling-stroke" d="   M 1474.07 218.40   L 1471.53 226.25"/>
<path stroke="#514849" vector-effect="non-scaling-stroke" d="   M 1471.53 226.25   Q 1470.43 227.81 1470.14 229.84"/>
<path stroke="#514849" vector-effect="non-scaling-stroke" d="   M 1469.81 230.43   Q 1468.27 231.55 1468.41 233.03"/>
<path stroke="#7d7b79" vector-effect="non-scaling-stroke" d="   M 1200.14 277.32   Q 1198.22 277.30 1198.47 277.98"/>
<path stroke="#7d7b79" vector-effect="non-scaling-stroke" d="   M 1198.47 277.98   Q 1198.20 277.56 1197.54 277.78   A 0.34 0.33 -34.1 0 0 1197.43 278.35   Q 1197.70 278.58 1198.21 278.40   Q 1198.58 278.27 1198.47 277.98"/>
<path stroke="#7d7b79" vector-effect="non-scaling-stroke" d="   M 1198.47 277.98   Q 1198.74 278.45 1199.98 277.91"/>
<path stroke="#7d7b79" vector-effect="non-scaling-stroke" d="   M 1535.22 279.51   Q 1535.03 282.68 1535.03 285.75   Q 1534.97 348.25 1535.20 410.75   Q 1535.20 413.15 1537.17 412.87"/>
<path stroke="#514849" vector-effect="non-scaling-stroke" d="   M 1259.44 1.47   Q 1258.69 1.98 1260.08 1.63"/>
<path stroke="#514849" vector-effect="non-scaling-stroke" d="   M 1263.53 3.03   Q 1264.26 3.83 1265.00 3.76"/>
<path stroke="#514849" vector-effect="non-scaling-stroke" d="   M 1265.00 3.76   Q 1265.79 4.55 1266.85 4.40"/>
<path stroke="#7d7b79" vector-effect="non-scaling-stroke" d="   M 1266.85 4.40   L 1305.86 19.48"/>
<path stroke="#514849" vector-effect="non-scaling-stroke" d="   M 1305.86 19.48   Q 1306.22 19.68 1306.56 19.58"/>
<path stroke="#514849" vector-effect="non-scaling-stroke" d="   M 1426.48 352.66   Q 1424.44 378.10 1426.51 403.61"/>
<path stroke="#514849" vector-effect="non-scaling-stroke" d="   M 1426.3096 410.5516   A 0.90 0.43 -109.5 0 0 1426.2047 411.5435   A 0.90 0.43 -109.5 0 0 1426.9104 412.2484   A 0.90 0.43 -109.5 0 0 1427.0153 411.2565   A 0.90 0.43 -109.5 0 0 1426.3096 410.5516"/>
<path stroke="#cfc4c2" stroke-opacity="0.996" vector-effect="non-scaling-stroke" d="   M 1306.03 19.18   Q 1305.94 19.33 1305.86 19.48"/>
<path stroke="#7d7b79" vector-effect="non-scaling-stroke" d="   M 170.47 72.50   Q 172.22 73.19 173.27 72.20   A 1.25 1.24 -21.4 0 0 173.66 71.32   C 173.77 66.63 173.02 61.25 173.70 56.00   Q 173.92 54.32 172.29 54.62"/>
<path stroke="#7d7b79" vector-effect="non-scaling-stroke" d="   M 170.57 122.56   Q 171.63 123.09 172.61 122.85   A 1.04 1.04 0.0 0 0 173.30 122.28   Q 174.18 120.46 173.16 118.75   A 0.97 0.96 -59.5 0 1 173.03 118.23   L 173.60 105.47"/>
<path stroke="#7d7b79" vector-effect="non-scaling-stroke" d="   M 171.97 109.26   L 171.92 107.80"/>
<path stroke="#514849" vector-effect="non-scaling-stroke" d="   M 167.52 171.40   Q 169.69 171.69 171.55 170.90"/>
<path stroke="#7d7b79" vector-effect="non-scaling-stroke" d="   M 171.55 170.90   Q 173.43 171.20 173.39 169.00   Q 173.29 162.61 173.37 156.21"/>
<path stroke="#7d7b79" vector-effect="non-scaling-stroke" d="   M 173.29 155.62   Q 173.11 155.41 172.93 155.19"/>
<path stroke="#cfc4c2" stroke-opacity="0.996" vector-effect="non-scaling-stroke" d="   M 171.55 170.90   Q 171.51 170.66 171.55 170.54"/>
<path stroke="#7d7b79" vector-effect="non-scaling-stroke" d="   M 171.87 167.21   L 171.88 165.79"/>
<path stroke="#cfc4c2" stroke-opacity="0.996" vector-effect="non-scaling-stroke" d="   M 171.88 164.71   L 171.93 162.29"/>
<path stroke="#514849" vector-effect="non-scaling-stroke" d="   M 781.52 131.94   Q 781.78 133.87 783.32 133.87   Q 816.08 133.88 874.34 133.85   C 882.57 133.85 898.20 133.54 910.00 133.80   Q 915.77 133.92 921.49 133.27"/>
<path stroke="#514849" vector-effect="non-scaling-stroke" d="   M 53.1958 296.5138   A 0.69 0.46 -129.0 0 0 53.2725 297.3395   A 0.69 0.46 -129.0 0 0 54.0642 297.5862   A 0.69 0.46 -129.0 0 0 53.9875 296.7605   A 0.69 0.46 -129.0 0 0 53.1958 296.5138"/>
<path stroke="#514849" vector-effect="non-scaling-stroke" d="   M 838.98 576.94   Q 837.55 579.34 837.65 582.05"/>
<path stroke="#514849" vector-effect="non-scaling-stroke" d="   M 887.32 614.35   Q 893.29 608.95 895.61 600.72   Q 896.45 597.74 897.16 594.73   Q 898.77 587.94 895.76 582.09"/>
<path stroke="#514849" vector-effect="non-scaling-stroke" d="   M 894.43 577.33   Q 893.41 572.59 889.95 569.75"/>
<path stroke="#514849" vector-effect="non-scaling-stroke" d="   M 886.90 565.95   Q 882.74 561.64 877.22 559.44"/>
<path stroke="#514849" vector-effect="non-scaling-stroke" d="   M 566.70 621.78   Q 566.14 621.48 565.92 621.82   A 0.71 0.71 0.0 0 0 566.23 622.86   Q 567.16 623.27 567.52 622.49"/>
<path stroke="#514849" vector-effect="non-scaling-stroke" d="   M 570.28 623.14   Q 578.74 623.61 587.24 623.63   C 591.25 623.63 595.70 622.60 599.27 622.90   A 1.42 1.40 -60.2 0 0 600.20 622.64   Q 600.51 622.41 603.16 621.35   Q 605.11 620.58 606.21 619.33   Q 609.16 615.99 608.58 611.15   Q 608.56 611.03 608.63 610.84   Q 608.68 610.67 608.65 610.52   A 0.15 0.12 -58.9 0 0 608.40 610.62   Q 608.44 612.16 608.11 614.54"/>
<path stroke="#514849" vector-effect="non-scaling-stroke" d="   M 606.39 606.44   Q 605.59 604.26 603.06 603.35   A 0.23 0.21 39.3 0 0 602.89 603.36   Q 602.69 603.45 602.73 603.66"/>
<path stroke="#514849" vector-effect="non-scaling-stroke" d="   M 601.54 603.10   Q 601.65 602.94 601.68 602.89   A 0.34 0.34 0.0 0 0 601.37 602.40   Q 600.89 602.42 600.96 602.77"/>
<path stroke="#514849" vector-effect="non-scaling-stroke" d="   M 599.79 602.27   Q 599.54 601.64 598.79 601.91"/>
<path stroke="#514849" vector-effect="non-scaling-stroke" d="   M 598.42 601.68   Q 595.30 600.36 592.10 601.02"/>
</g>
<path xmlns="http://www.w3.org/2000/svg" fill="#000000" d="   M 1425.98 0.00   L 1427.47 0.50   Q 1432.47 6.46 1437.31 12.45   Q 1441.49 17.61 1456.28 32.20   Q 1469.70 45.44 1490.48 61.24   Q 1493.10 63.24 1498.99 66.97   Q 1499.23 67.37 1499.74 67.49   Q 1501.68 69.47 1504.17 70.71   L 1507.98 73.16   Q 1508.37 73.94 1509.26 73.99   Q 1509.47 74.44 1510.02 74.43   L 1512.73 76.18   Q 1513.21 77.15 1514.02 77.02   Q 1514.18 77.47 1514.78 77.47   L 1523.99 82.99   Q 1524.10 83.60 1524.84 83.39   Q 1540.07 92.55 1556.25 99.89   Q 1556.73 100.77 1558.04 100.71   Q 1559.43 101.02 1560.44 101.67   Q 1561.73 102.94 1563.26 102.83   L 1573.97 107.45   Q 1574.35 108.07 1575.20 107.91   L 1594.07 115.86   A 0.38 0.37 -54.2 0 1 1594.17 116.49   Q 1570.09 137.54 1555.91 166.35   A 1.77 1.76 18.4 0 1 1554.00 167.30   C 1551.10 166.75 1548.92 165.47 1545.50 164.11   Q 1532.40 158.93 1527.88 156.36   Q 1512.83 147.82 1495.67 138.17   C 1492.30 136.27 1491.03 134.92 1487.94 132.32   Q 1486.14 130.81 1484.18 130.66   A 2.20 2.11 -6.2 0 0 1481.88 133.39   Q 1482.49 135.33 1481.94 138.00   Q 1481.01 142.50 1480.90 145.75   Q 1480.34 161.63 1479.62 176.99   Q 1478.94 191.34 1477.00 205.45   Q 1475.75 208.34 1475.83 211.26   L 1474.07 218.40   L 1471.53 226.25   Q 1470.43 227.81 1470.14 229.84   Q 1470.13 230.12 1469.81 230.43   Q 1468.27 231.55 1468.41 233.03   Q 1462.29 242.99 1453.68 247.93   C 1439.97 255.81 1424.38 258.76 1408.74 259.94   C 1390.41 261.31 1367.92 260.45 1354.25 260.46   C 1352.14 260.46 1351.31 260.28 1350.79 258.04   Q 1349.17 251.02 1348.47 246.16   Q 1347.71 240.96 1345.96 236.42   C 1343.51 230.11 1342.09 227.15 1341.54 223.89   A 3.20 3.14 22.1 0 0 1340.94 222.51   Q 1339.52 220.67 1337.93 215.84   C 1337.46 214.41 1335.78 213.26 1335.28 211.59   Q 1334.59 209.32 1331.74 207.65   A 0.37 0.37 0.0 0 1 1331.87 206.96   Q 1336.99 206.24 1339.03 206.21   Q 1340.86 206.18 1347.70 207.16   Q 1351.31 207.67 1356.41 207.93   Q 1375.49 208.89 1386.50 208.96   C 1394.97 209.01 1404.31 208.34 1410.23 201.54   A 2.61 2.50 76.5 0 0 1410.69 200.75   L 1413.44 193.06   A 1.91 1.90 -33.4 0 0 1413.53 192.63   L 1415.92 154.67   A 0.80 0.72 -32.6 0 1 1416.00 154.38   L 1417.26 152.11   A 1.10 1.09 22.5 0 0 1416.59 150.52   Q 1412.54 149.38 1406.00 149.33   Q 1405.03 149.32 1338.23 149.37   Q 1334.89 149.38 1330.17 149.80   A 2.24 2.23 11.4 0 0 1328.37 150.99   Q 1326.35 154.79 1325.56 157.97   Q 1324.58 161.91 1323.29 165.18   Q 1317.16 180.66 1309.10 194.11   Q 1301.29 207.14 1289.67 220.26   Q 1275.15 236.66 1256.76 248.87   Q 1242.68 258.21 1224.91 266.71   C 1217.42 270.29 1208.38 273.68 1200.14 277.32   Q 1198.22 277.30 1198.47 277.98   Q 1198.20 277.56 1197.54 277.78   A 0.34 0.33 -34.1 0 0 1197.43 278.35   Q 1197.70 278.58 1198.21 278.40   Q 1198.58 278.27 1198.47 277.98   Q 1198.74 278.45 1199.98 277.91   Q 1202.46 278.26 1205.00 278.26   Q 1366.12 278.64 1527.25 278.48   Q 1531.35 278.47 1535.22 279.51   Q 1535.03 282.68 1535.03 285.75   Q 1534.97 348.25 1535.20 410.75   Q 1535.20 413.15 1537.17 412.87   Q 1556.42 412.86 1575.59 412.37   C 1579.33 412.28 1584.78 412.50 1589.48 413.22   A 1.46 1.46 0.0 0 1 1590.71 414.79   Q 1590.08 421.74 1590.20 430.75   Q 1590.38 444.75 1590.34 459.00   Q 1590.33 462.41 1590.80 466.86   A 1.13 1.13 0.0 0 1 1589.80 468.09   Q 1580.21 469.09 1569.25 468.85   Q 1554.10 468.50 1520.00 468.54   Q 1226.32 468.86 1101.69 468.79   Q 1100.54 468.79 1098.22 467.81   A 0.68 0.67 -68.2 0 1 1097.86 466.95   L 1098.41 465.52   A 0.51 0.44 59.2 0 0 1098.44 465.35   L 1097.76 414.09   A 0.41 0.41 0.0 0 1 1098.02 413.71   Q 1101.29 412.41 1104.00 412.44   Q 1133.26 412.87 1149.00 412.51   Q 1149.91 412.49 1152.85 411.95   A 0.45 0.45 0.0 0 0 1153.22 411.51   L 1153.22 292.00   A 0.39 0.38 4.4 0 0 1152.89 291.62   Q 1150.42 291.25 1148.36 291.57   C 1146.12 291.93 1145.13 290.74 1144.26 288.91   Q 1138.39 276.60 1135.66 272.57   Q 1128.42 261.85 1125.70 257.81   Q 1122.43 252.95 1112.65 243.61   A 0.39 0.38 52.1 0 1 1112.72 243.00   Q 1114.85 241.77 1117.93 241.13   Q 1141.15 236.31 1164.65 228.85   Q 1190.00 220.80 1212.47 207.21   Q 1223.99 200.24 1236.72 187.84   C 1240.10 184.55 1243.67 179.49 1246.26 176.03   Q 1253.40 166.49 1257.34 155.68   A 4.96 4.87 -16.8 0 1 1258.07 154.35   Q 1259.24 152.82 1259.79 151.19   A 0.81 0.80 12.6 0 0 1259.11 150.13   Q 1253.88 149.60 1249.25 149.54   Q 1224.34 149.20 1208.75 149.87   Q 1205.82 149.99 1202.89 148.76   A 1.36 1.35 13.6 0 1 1202.07 147.43   L 1202.91 134.08   A 0.62 0.62 0.0 0 0 1202.42 133.44   Q 1199.08 132.74 1195.74 134.36   C 1193.67 135.35 1192.72 137.36 1190.95 138.79   C 1185.99 142.79 1182.21 146.30 1177.73 149.04   C 1168.35 154.77 1159.67 161.00 1149.80 166.42   C 1144.43 169.37 1139.35 172.94 1133.30 174.42   A 2.84 2.84 0.0 0 1 1130.35 173.37   C 1128.36 170.73 1126.78 167.21 1124.43 164.20   Q 1116.67 154.23 1115.26 152.45   C 1110.45 146.38 1104.57 140.60 1100.14 136.12   Q 1095.64 131.56 1090.77 128.17   A 0.30 0.30 0.0 0 1 1090.81 127.66   Q 1118.04 113.93 1123.37 110.60   Q 1129.44 106.81 1136.28 102.75   Q 1144.50 97.86 1163.02 84.51   C 1193.99 62.19 1221.37 34.90 1245.31 4.84   Q 1245.39 4.74 1246.82 2.38   Q 1248.07 0.31 1250.73 0.17   Q 1254.95 -0.07 1259.44 1.47   Q 1258.69 1.98 1260.08 1.63   L 1263.53 3.03   Q 1264.26 3.83 1265.00 3.76   Q 1265.79 4.55 1266.85 4.40   L 1305.86 19.48   Q 1306.22 19.68 1306.56 19.58   L 1310.27 21.49   A 0.51 0.51 0.0 0 1 1310.39 22.31   C 1309.65 23.03 1308.75 24.08 1308.28 24.72   Q 1297.12 39.84 1289.58 49.08   Q 1272.63 69.81 1252.57 88.60   Q 1249.58 91.40 1248.80 92.26   Q 1246.16 95.15 1245.02 95.91   A 0.29 0.29 0.0 0 0 1245.13 96.44   Q 1249.34 97.09 1250.77 97.05   Q 1263.62 96.76 1276.50 96.77   Q 1408.49 96.92 1433.25 96.85   Q 1436.07 96.84 1437.80 96.05   A 0.26 0.26 0.0 0 0 1437.81 95.58   Q 1433.62 93.34 1428.97 89.05   C 1406.69 68.49 1387.20 46.15 1370.66 21.16   Q 1370.28 20.59 1369.08 19.24   A 0.43 0.42 -34.1 0 1 1369.21 18.58   Q 1374.48 15.88 1374.95 15.70   Q 1393.18 8.62 1409.55 1.83   C 1411.74 0.93 1414.07 0.52 1416.41 0.00   L 1425.98 0.00   Z   M 1262.3578 332.8506   A 2.13 2.13 0.0 0 0 1260.2315 330.7169   L 1217.9915 330.6432   A 2.13 2.13 0.0 0 0 1215.8578 332.7695   L 1215.7222 410.4494   A 2.13 2.13 0.0 0 0 1217.8485 412.5831   L 1260.0885 412.6568   A 2.13 2.13 0.0 0 0 1262.2222 410.5305   L 1262.3578 332.8506   Z   M 1367.62 332.96   A 2.24 2.24 0.0 0 0 1365.38 330.72   L 1323.36 330.72   A 2.24 2.24 0.0 0 0 1321.12 332.96   L 1321.12 410.38   A 2.24 2.24 0.0 0 0 1323.36 412.62   L 1365.38 412.62   A 2.24 2.24 0.0 0 0 1367.62 410.38   L 1367.62 332.96   Z   M 1426.48 352.66   Q 1424.44 378.10 1426.51 403.61   C 1426.88 407.31 1424.56 412.49 1431.01 412.50   Q 1465.32 412.58 1467.75 412.57   Q 1469.64 412.57 1472.09 411.95   A 1.14 1.13 80.0 0 0 1472.94 410.73   C 1472.32 405.14 1472.07 400.65 1472.09 394.73   C 1472.16 374.12 1471.64 353.64 1472.50 333.32   A 1.83 1.83 0.0 0 0 1470.85 331.41   Q 1465.41 330.86 1459.52 330.82   C 1444.04 330.72 1435.15 330.52 1428.63 331.11   A 2.10 2.10 0.0 0 0 1426.72 333.18   L 1426.48 352.66   Z   M 1426.3096 410.5516   A 0.90 0.43 -109.5 0 0 1426.2047 411.5435   A 0.90 0.43 -109.5 0 0 1426.9104 412.2484   A 0.90 0.43 -109.5 0 0 1427.0153 411.2565   A 0.90 0.43 -109.5 0 0 1426.3096 410.5516   Z"/>
<path xmlns="http://www.w3.org/2000/svg" fill="#faf6f2" fill-opacity="0.996" d="   M 1498.99 66.97   Q 1493.10 63.24 1490.48 61.24   Q 1469.70 45.44 1456.28 32.20   Q 1441.49 17.61 1437.31 12.45   Q 1432.47 6.46 1427.47 0.50   Q 1429.79 0.92 1430.43 1.84   Q 1435.38 8.98 1441.26 14.97   Q 1445.05 18.82 1447.65 22.09   C 1454.78 31.05 1463.38 38.00 1476.04 49.24   C 1483.07 55.48 1491.16 61.27 1498.99 66.97   Z"/>
<path xmlns="http://www.w3.org/2000/svg" fill="#000000" d="   M 594.37 214.04   Q 594.47 213.65 594.41 213.36   Q 594.31 212.93 593.94 212.91   Q 593.42 212.87 593.11 213.16   A 0.30 0.30 0.0 0 0 593.24 213.68   L 593.70 213.79   Q 589.46 214.77 586.80 218.55   Q 578.13 230.86 568.64 241.39   Q 562.31 248.40 559.46 252.45   Q 558.83 253.33 556.30 255.16   A 0.69 0.68 -42.0 0 1 555.44 255.12   C 552.56 252.56 551.90 249.19 550.04 246.00   C 548.36 243.10 547.54 238.95 545.58 235.56   Q 545.77 234.87 545.26 234.43   Q 544.13 232.76 543.70 230.89   Q 539.28 220.88 532.16 212.54   L 521.55 196.50   A 0.81 0.80 48.8 0 1 521.61 195.55   L 523.96 192.73   Q 528.61 188.41 532.76 183.66   Q 538.37 177.24 541.13 174.22   Q 545.36 169.60 549.84 163.23   C 551.58 160.75 554.03 158.10 555.51 156.26   Q 556.35 155.22 570.62 135.87   C 573.96 131.34 576.78 126.18 579.83 122.03   C 584.19 116.12 586.70 110.90 590.65 105.21   Q 592.72 102.22 598.25 92.48   Q 610.68 70.64 619.67 51.90   Q 624.82 41.17 628.06 33.29   Q 628.21 32.91 629.29 30.39   Q 635.39 16.08 640.93 1.35   Q 647.05 1.42 653.46 3.72   Q 661.09 6.46 661.19 6.49   Q 683.92 13.57 697.94 18.28   Q 698.52 18.48 700.79 19.87   A 0.73 0.73 0.0 0 1 701.11 20.69   L 699.87 25.30   A 1.43 1.26 -27.4 0 1 699.75 25.61   C 697.94 28.96 697.20 32.06 695.79 35.04   C 693.32 40.28 692.12 42.51 690.15 47.27   C 686.55 55.97 681.98 64.49 678.45 72.09   Q 672.53 84.80 662.64 103.39   Q 658.47 111.23 657.30 115.55   C 656.22 119.55 655.97 126.35 655.95 131.51   Q 655.78 179.40 655.91 210.83   Q 655.94 216.50 655.49 225.66   Q 655.05 234.54 655.18 240.50   Q 655.35 247.93 655.58 261.50   Q 655.91 280.36 655.88 317.80   C 655.86 343.31 656.09 363.73 655.81 389.59   C 655.77 393.25 656.15 395.37 656.81 399.11   Q 657.21 401.33 657.21 402.90   C 657.21 407.80 657.48 414.54 656.52 420.07   C 655.40 426.57 656.69 433.24 656.32 439.92   Q 655.66 452.00 655.93 465.20   C 655.99 468.12 656.47 469.73 656.90 472.33   A 0.99 0.99 0.0 0 1 656.30 473.41   Q 654.16 474.28 651.89 474.36   Q 643.12 474.67 640.00 474.61   Q 619.69 474.23 598.25 474.54   Q 596.20 474.57 594.24 473.43   A 1.00 0.98 15.6 0 1 593.75 472.58   Q 594.07 336.47 593.67 230.78   Q 593.65 225.38 594.09 223.23   Q 594.88 219.35 595.39 215.45   A 0.88 0.85 -56.5 0 0 595.29 214.91   Q 595.00 214.34 594.37 214.04   Z"/>
<path xmlns="http://www.w3.org/2000/svg" fill="#a39192" fill-opacity="0.996" d="   M 640.93 1.35   Q 635.39 16.08 629.29 30.39   Q 628.21 32.91 628.06 33.29   Q 624.82 41.17 619.67 51.90   Q 610.68 70.64 598.25 92.48   Q 592.72 102.22 590.65 105.21   C 586.70 110.90 584.19 116.12 579.83 122.03   C 576.78 126.18 573.96 131.34 570.62 135.87   Q 556.35 155.22 555.51 156.26   C 554.03 158.10 551.58 160.75 549.84 163.23   Q 545.36 169.60 541.13 174.22   Q 538.37 177.24 532.76 183.66   Q 528.61 188.41 523.96 192.73   Q 540.05 174.19 549.92 161.68   Q 563.45 144.56 575.90 125.93   Q 599.49 90.66 617.05 54.98   Q 622.18 44.54 624.78 38.18   Q 628.74 28.48 632.27 21.24   C 633.72 18.28 634.47 15.44 635.97 12.23   Q 638.51 6.82 639.25 2.74   Q 639.43 1.75 640.93 1.35   Z"/>
<path xmlns="http://www.w3.org/2000/svg" fill="#a39192" fill-opacity="0.996" d="   M 1259.44 1.47   L 1260.08 1.63   Q 1258.69 1.98 1259.44 1.47   Z"/>
<path xmlns="http://www.w3.org/2000/svg" fill="#a39192" fill-opacity="0.996" d="   M 1265.00 3.76   Q 1264.26 3.83 1263.53 3.03   Q 1264.48 3.23 1265.00 3.76   Z"/>
<path xmlns="http://www.w3.org/2000/svg" fill="#a39192" fill-opacity="0.996" d="   M 1266.85 4.40   Q 1265.79 4.55 1265.00 3.76   Q 1266.02 3.89 1266.85 4.40   Z"/>
<path xmlns="http://www.w3.org/2000/svg" fill="#faf6f2" fill-opacity="0.996" d="   M 1306.03 19.18   Q 1305.94 19.33 1305.86 19.48   L 1266.85 4.40   L 1306.03 19.18   Z"/>
<path xmlns="http://www.w3.org/2000/svg" fill="#000000" d="   M 273.21 170.51   L 286.36 165.04   Q 286.11 164.60 286.45 165.05   Q 288.47 164.71 290.09 163.30   Q 291.27 162.42 292.74 161.99   Q 297.92 160.36 302.37 157.26   L 308.19 154.00   Q 309.39 154.07 309.92 152.92   L 320.71 146.22   Q 321.37 146.20 321.74 145.70   Q 321.99 145.38 321.47 144.98   Q 321.04 144.01 319.87 143.38   Q 293.80 129.31 267.76 115.20   Q 265.59 114.03 262.95 112.43   Q 268.62 108.07 273.38 103.04   Q 274.61 101.74 282.95 92.75   Q 288.44 86.83 292.98 80.04   Q 294.29 77.95 298.08 79.42   Q 310.45 84.22 328.79 93.54   C 338.71 98.58 349.23 103.25 357.77 108.04   Q 362.77 110.84 366.93 106.72   Q 370.34 103.34 372.42 100.41   Q 381.66 87.38 389.03 75.68   C 389.58 74.80 390.23 74.46 390.68 73.74   A 0.71 0.71 0.0 0 0 390.20 72.66   Q 387.09 72.14 384.51 72.21   C 363.02 72.78 329.42 72.22 304.91 72.38   Q 282.83 72.52 271.27 72.24   Q 269.34 72.19 267.71 72.00   A 0.71 0.71 0.0 0 1 267.09 71.30   L 267.09 26.65   A 0.79 0.79 0.0 0 1 267.74 25.87   Q 272.53 24.96 280.25 24.97   Q 329.56 25.02 413.50 25.16   Q 419.46 25.17 423.51 24.40   C 428.79 23.39 432.46 23.81 436.62 25.93   Q 451.14 33.29 465.19 39.31   A 1.65 1.64 -73.0 0 1 466.16 41.15   Q 465.83 42.87 464.77 45.56   Q 460.78 55.72 453.11 71.39   Q 436.29 105.75 412.23 133.99   Q 410.92 135.53 410.10 135.75   A 0.24 0.23 -40.1 0 0 410.06 136.19   Q 410.50 136.40 410.68 136.31   Q 410.74 136.29 411.03 136.47   Q 419.50 141.68 424.33 144.71   Q 454.87 163.87 473.97 177.34   Q 476.82 179.35 478.91 181.15   A 0.80 0.80 0.0 0 1 478.92 182.36   Q 471.91 188.60 463.46 197.72   Q 452.53 209.51 442.72 219.24   Q 440.16 221.78 437.44 219.59   C 432.35 215.50 427.72 212.75 422.89 209.45   Q 394.39 190.00 390.33 187.07   C 384.62 182.94 378.10 179.36 372.03 174.97   Q 370.28 173.70 367.30 175.33   C 362.54 177.94 358.41 181.24 353.55 184.52   Q 349.02 187.58 342.86 191.33   Q 323.51 203.13 307.64 209.62   Q 300.37 212.60 292.32 215.82   Q 288.56 217.33 284.89 216.86   A 1.05 1.05 0.0 0 1 284.00 216.06   Q 283.76 215.01 282.98 214.66   A 1.95 1.90 -1.6 0 1 282.06 213.81   Q 276.69 203.83 274.83 201.41   Q 269.56 194.54 265.74 188.93   A 5.81 5.51 3.7 0 0 264.64 187.74   C 261.57 185.25 258.80 180.78 254.26 179.90   A 1.21 1.21 0.0 0 0 252.86 181.37   C 254.28 187.38 253.93 191.66 254.06 201.06   A 0.88 0.87 75.6 0 1 253.61 201.83   Q 252.23 202.59 250.12 202.89   Q 236.42 204.79 231.25 205.96   A 1.70 1.70 0.0 0 0 229.96 207.91   L 230.33 210.01   A 1.03 0.47 -69.4 0 1 230.34 210.16   Q 229.98 220.84 230.21 221.93   C 230.63 224.00 228.70 227.44 230.48 230.06   A 0.50 0.50 0.0 0 1 230.21 230.82   Q 227.10 231.72 226.22 231.72   Q 196.69 231.87 175.50 231.55   Q 174.64 231.54 172.00 230.90   A 0.63 0.63 0.0 0 1 171.52 230.20   Q 171.95 227.01 171.98 217.76   Q 171.98 215.92 173.80 215.34   A 0.77 0.76 -47.1 0 0 173.75 213.86   C 170.79 213.17 166.35 213.84 161.51 214.35   Q 72.92 223.64 29.02 227.46   Q 20.76 228.18 18.70 228.26   A 6.36 6.01 46.6 0 1 17.30 228.18   L 14.20 227.63   A 0.78 0.78 0.0 0 1 13.56 227.00   Q 13.30 225.62 13.61 224.03   Q 13.57 224.46 13.90 224.49   A 0.18 0.18 0.0 0 0 14.09 224.29   Q 13.31 215.24 11.46 208.57   Q 10.32 204.46 9.10 197.81   Q 8.14 192.61 6.37 187.13   L 6.37 187.12   Q 6.37 187.22 6.37 187.32   Q 6.38 187.61 6.20 187.83   Q 5.85 186.65 6.21 185.72   A 1.04 0.99 -86.1 0 1 6.89 185.10   Q 11.98 183.67 15.99 183.48   Q 31.68 182.74 42.79 181.42   Q 45.55 181.97 44.75 180.88   C 47.30 180.28 45.72 178.22 45.69 177.07   Q 45.09 150.65 45.48 134.72   A 0.82 0.81 22.8 0 0 45.23 134.11   Q 44.70 133.60 45.26 133.41   A 0.17 0.17 0.0 0 0 45.27 133.08   Q 44.95 132.96 44.92 132.88   Q 44.92 132.87 44.93 132.61   Q 44.93 132.59 45.34 132.31   A 0.11 0.11 0.0 0 0 45.30 132.11   Q 45.06 132.03 45.03 131.97   A 0.50 0.49 41.6 0 1 45.00 131.54   Q 45.06 131.41 45.33 131.40   A 0.06 0.06 0.0 0 0 45.37 131.31   Q 44.31 129.89 45.21 128.43   A 0.41 0.41 0.0 0 0 45.10 127.89   Q 44.83 127.71 44.84 126.68   Q 45.06 109.50 44.83 100.63   Q 44.78 98.35 45.25 96.62   A 0.90 0.65 62.7 0 0 45.29 96.36   L 45.45 55.31   A 0.70 0.70 0.0 0 0 44.93 54.63   Q 41.93 53.84 40.01 53.80   Q 27.75 53.59 14.02 53.97   A 1.36 1.36 0.0 0 1 12.62 52.56   L 12.86 45.31   L 13.71 12.32   Q 15.43 12.06 16.50 12.06   Q 105.59 12.07 251.51 11.91   Q 253.02 11.91 255.62 13.18   A 0.62 0.61 -66.1 0 1 255.92 13.96   L 254.92 16.44   A 0.85 0.82 -34.8 0 0 254.86 16.75   C 254.64 20.61 255.30 24.17 255.12 27.84   Q 254.52 40.39 254.62 48.50   Q 254.64 49.96 255.16 51.47   A 0.98 0.97 -13.2 0 1 254.36 52.76   Q 245.55 53.89 233.28 54.10   Q 231.31 54.14 229.94 55.43   A 1.02 1.01 69.1 0 0 229.61 56.18   L 229.61 162.39   A 1.23 1.22 -82.2 0 0 230.50 163.57   Q 232.17 164.06 235.00 163.81   Q 247.39 162.72 253.33 162.05   A 0.88 0.88 0.0 0 1 254.31 162.97   L 253.67 174.13   A 0.76 0.70 -42.6 0 1 253.66 174.25   L 253.62 175.14   A 1.43 1.43 0.0 0 0 255.49 176.84   L 273.21 170.51   Z   M 170.47 72.50   Q 172.22 73.19 173.27 72.20   A 1.25 1.24 -21.4 0 0 173.66 71.32   C 173.77 66.63 173.02 61.25 173.70 56.00   Q 173.92 54.32 172.29 54.62   Q 167.55 53.90 160.75 53.88   Q 117.74 53.77 109.00 53.93   Q 105.51 53.99 102.85 54.55   A 0.61 0.60 -5.9 0 0 102.36 55.14   L 102.36 70.70   A 1.46 1.46 0.0 0 0 103.53 72.13   Q 104.70 72.37 107.51 72.44   Q 139.07 73.22 170.47 72.50   Z   M 170.57 122.56   Q 171.63 123.09 172.61 122.85   A 1.04 1.04 0.0 0 0 173.30 122.28   Q 174.18 120.46 173.16 118.75   A 0.97 0.96 -59.5 0 1 173.03 118.23   L 173.60 105.47   Q 173.52 105.23 173.17 105.00   Q 172.92 104.83 172.56 104.78   Q 167.97 104.20 165.75 104.20   Q 117.16 104.04 107.75 104.00   Q 106.04 103.99 103.24 104.40   A 1.08 1.08 0.0 0 0 102.31 105.47   L 102.31 120.77   A 1.64 1.63 8.7 0 0 103.46 122.33   Q 104.69 122.72 106.75 122.71   Q 136.96 122.58 161.00 122.76   Q 165.76 122.80 170.57 122.56   Z   M 167.52 171.40   Q 169.69 171.69 171.55 170.90   Q 173.43 171.20 173.39 169.00   Q 173.29 162.61 173.37 156.21   Q 173.54 156.21 173.64 156.17   A 0.18 0.17 68.7 0 0 173.74 155.93   Q 173.61 155.65 173.29 155.62   Q 173.11 155.41 172.93 155.19   Q 168.24 154.43 161.44 154.38   Q 120.30 154.11 107.50 154.30   C 105.19 154.33 101.32 154.06 102.27 157.60   Q 102.34 157.87 102.36 159.55   Q 102.53 169.54 101.89 175.37   A 1.23 1.22 -80.5 0 0 102.83 176.70   Q 104.91 177.18 106.75 177.02   Q 137.17 174.47 167.52 171.40   Z"/>
<path xmlns="http://www.w3.org/2000/svg" fill="#a39192" fill-opacity="0.996" d="   M 13.71 12.32   L 12.86 45.31   L 12.68 13.31   A 0.86 0.86 0.0 0 1 12.92 12.69   Q 13.32 12.27 13.71 12.32   Z"/>
<path xmlns="http://www.w3.org/2000/svg" fill="#000000" d="   M 717.20 167.55   Q 718.07 126.14 717.68 84.75   Q 717.66 82.56 717.39 80.47   A 0.04 0.03 -50.3 0 0 717.32 80.48   L 717.12 83.96   L 717.12 18.86   A 0.70 0.69 -5.0 0 1 717.70 18.18   Q 724.13 17.05 731.00 17.07   Q 868.97 17.44 995.73 17.33   C 996.99 17.33 999.17 17.69 1000.01 17.91   A 1.04 1.03 10.6 0 1 1000.77 19.01   Q 1000.51 21.48 1000.52 22.25   Q 1001.09 79.17 1001.00 153.01   Q 1000.99 157.87 1000.49 176.22   C 1000.40 179.37 1000.76 182.96 1000.94 186.25   A 0.75 0.74 79.9 0 1 1000.41 187.02   Q 998.39 187.65 996.87 187.66   Q 981.13 187.73 900.61 187.57   C 898.34 187.57 895.62 187.87 893.14 188.09   A 1.23 1.23 0.0 0 0 892.02 189.33   Q 892.22 209.30 891.88 227.12   Q 891.84 228.95 891.91 229.56   Q 892.03 230.63 893.74 230.75   Q 895.97 230.91 896.23 230.91   Q 961.32 230.95 1024.50 230.87   Q 1029.78 230.86 1033.97 231.96   A 0.57 0.56 11.9 0 1 1034.39 232.59   Q 1034.07 234.57 1034.07 234.75   Q 1033.48 257.68 1034.08 283.99   A 1.05 1.04 -7.1 0 1 1033.26 285.03   Q 1028.65 286.02 1023.50 285.99   Q 1016.09 285.94 903.75 285.91   Q 897.72 285.91 893.08 286.24   A 1.08 1.07 -2.0 0 0 892.08 287.31   Q 891.90 309.98 891.88 315.54   Q 891.86 320.73 891.22 326.94   C 890.49 333.95 891.90 340.87 891.88 347.70   Q 891.71 406.28 892.11 472.94   A 1.14 1.14 0.0 0 1 891.07 474.08   Q 884.01 474.65 878.50 474.60   Q 856.82 474.38 832.93 474.41   C 830.81 474.41 828.40 474.09 826.22 473.70   A 0.71 0.71 0.0 0 1 825.64 472.90   Q 825.93 470.78 825.90 467.50   Q 825.57 427.53 826.30 338.01   Q 826.34 332.41 826.69 330.05   Q 827.21 326.59 826.51 323.18   Q 826.08 321.07 826.04 316.31   Q 825.84 293.57 826.01 288.00   Q 826.02 287.73 826.25 287.09   A 0.90 0.90 0.0 0 0 825.56 285.90   C 822.00 285.27 816.54 285.92 812.20 285.93   Q 722.16 286.09 691.03 286.03   Q 688.87 286.03 685.91 285.02   A 1.83 1.82 -78.8 0 1 684.69 283.19   Q 685.63 268.69 685.26 251.10   C 685.15 245.56 685.30 237.64 685.51 233.71   A 2.07 2.05 79.2 0 1 686.69 231.96   Q 688.84 230.95 691.50 230.95   Q 728.45 230.89 824.85 230.95   A 1.30 1.29 -0.0 0 0 826.15 229.66   L 826.15 188.80   A 0.73 0.71 15.4 0 0 825.79 188.18   Q 824.85 187.63 822.51 187.64   Q 781.90 187.79 718.15 187.56   A 1.17 1.16 -89.8 0 1 716.99 186.38   L 717.20 167.55   Z   M 781.52 131.94   Q 781.78 133.87 783.32 133.87   Q 816.08 133.88 874.34 133.85   C 882.57 133.85 898.20 133.54 910.00 133.80   Q 915.77 133.92 921.49 133.27   C 925.91 133.11 931.42 133.87 935.49 132.47   A 1.50 1.50 0.0 0 0 936.48 130.77   C 935.63 126.24 936.41 121.22 936.46 117.12   Q 936.70 98.15 936.65 74.61   C 936.65 74.04 936.96 73.79 937.09 73.45   A 0.66 0.65 -68.4 0 0 936.73 72.60   Q 933.57 71.32 931.29 71.33   Q 872.84 71.71 801.75 71.41   Q 791.23 71.36 783.55 71.56   A 1.47 1.46 89.8 0 0 782.12 73.01   Q 781.76 91.10 782.10 109.75   Q 782.26 118.55 781.52 131.94   Z"/>
<path xmlns="http://www.w3.org/2000/svg" fill="#a39192" fill-opacity="0.996" d="   M 1306.56 19.58   Q 1306.22 19.68 1305.86 19.48   Q 1305.94 19.33 1306.03 19.18   Q 1305.91 19.40 1306.56 19.58   Z"/>
<path xmlns="http://www.w3.org/2000/svg" fill="#faf6f2" fill-opacity="0.996" d="   M 170.47 72.50   Q 172.35 71.69 172.29 70.76   Q 171.77 62.74 172.29 54.62   Q 173.92 54.32 173.70 56.00   C 173.02 61.25 173.77 66.63 173.66 71.32   A 1.25 1.24 -21.4 0 1 173.27 72.20   Q 172.22 73.19 170.47 72.50   Z"/>
<path xmlns="http://www.w3.org/2000/svg" fill="#a39192" fill-opacity="0.996" d="   M 1499.74 67.49   Q 1499.23 67.37 1498.99 66.97   Q 1499.62 67.08 1499.74 67.49   Z"/>
<path xmlns="http://www.w3.org/2000/svg" fill="#a39192" fill-opacity="0.996" d="   M 1504.17 70.71   Q 1501.68 69.47 1499.74 67.49   L 1504.17 70.71   Z"/>
<path xmlns="http://www.w3.org/2000/svg" fill="#a39192" fill-opacity="0.996" d="   M 1509.26 73.99   Q 1508.37 73.94 1507.98 73.16   Q 1508.88 73.34 1509.26 73.99   Z"/>
<path xmlns="http://www.w3.org/2000/svg" fill="#a39192" fill-opacity="0.996" d="   M 1510.02 74.43   Q 1509.47 74.44 1509.26 73.99   Q 1509.75 74.07 1510.02 74.43   Z"/>
<path xmlns="http://www.w3.org/2000/svg" fill="#a39192" fill-opacity="0.996" d="   M 1514.02 77.02   Q 1513.21 77.15 1512.73 76.18   Q 1513.53 76.45 1514.02 77.02   Z"/>
<path xmlns="http://www.w3.org/2000/svg" fill="#a39192" fill-opacity="0.996" d="   M 1514.78 77.47   Q 1514.18 77.47 1514.02 77.02   Q 1514.49 77.13 1514.78 77.47   Z"/>
<path xmlns="http://www.w3.org/2000/svg" fill="#a39192" fill-opacity="0.996" d="   M 292.98 80.04   Q 288.44 86.83 282.95 92.75   Q 274.61 101.74 273.38 103.04   Q 268.62 108.07 262.95 112.43   L 292.98 80.04   Z"/>
<path xmlns="http://www.w3.org/2000/svg" fill="#a39192" fill-opacity="0.996" d="   M 717.20 167.55   L 717.12 83.96   L 717.32 80.48   A 0.04 0.03 -50.3 0 1 717.39 80.47   Q 717.66 82.56 717.68 84.75   Q 718.07 126.14 717.20 167.55   Z"/>
<path xmlns="http://www.w3.org/2000/svg" fill="#a39192" fill-opacity="0.996" d="   M 1524.84 83.39   Q 1524.10 83.60 1523.99 82.99   L 1524.84 83.39   Z"/>
<path xmlns="http://www.w3.org/2000/svg" fill="#a39192" fill-opacity="0.996" d="   M 1558.04 100.71   Q 1556.73 100.77 1556.25 99.89   Q 1557.27 100.14 1558.04 100.71   Z"/>
<path xmlns="http://www.w3.org/2000/svg" fill="#a39192" fill-opacity="0.996" d="   M 1563.26 102.83   Q 1561.73 102.94 1560.44 101.67   L 1563.26 102.83   Z"/>
<path xmlns="http://www.w3.org/2000/svg" fill="#faf6f2" fill-opacity="0.996" d="   M 173.60 105.47   L 173.03 118.23   A 0.97 0.96 -59.5 0 0 173.16 118.75   Q 174.18 120.46 173.30 122.28   A 1.04 1.04 0.0 0 1 172.61 122.85   Q 171.63 123.09 170.57 122.56   Q 171.58 122.26 172.27 121.24   A 1.27 1.25 -29.5 0 0 172.49 120.47   L 171.97 109.26   L 171.92 107.80   Q 172.03 106.53 172.60 105.51   Q 172.79 105.16 173.05 105.21   Q 173.28 105.25 173.60 105.47   Z"/>
<path xmlns="http://www.w3.org/2000/svg" fill="#a39192" fill-opacity="0.996" d="   M 1575.20 107.91   Q 1574.35 108.07 1573.97 107.45   Q 1574.67 107.55 1575.20 107.91   Z"/>
<path xmlns="http://www.w3.org/2000/svg" fill="#000000" d="   M 171.92 107.80   L 171.97 109.26   Q 171.76 108.57 171.92 107.80   Z"/>
<path xmlns="http://www.w3.org/2000/svg" fill="#a39192" fill-opacity="0.996" d="   M 781.52 131.94   Q 783.01 132.92 784.00 132.93   Q 838.50 133.01 893.00 132.96   Q 901.22 132.95 921.49 133.27   Q 915.77 133.92 910.00 133.80   C 898.20 133.54 882.57 133.85 874.34 133.85   Q 816.08 133.88 783.32 133.87   Q 781.78 133.87 781.52 131.94   Z"/>
<path xmlns="http://www.w3.org/2000/svg" fill="#a39192" fill-opacity="0.996" d="   M 321.47 144.98   Q 321.99 145.38 321.74 145.70   Q 321.37 146.20 320.71 146.22   L 321.47 144.98   Z"/>
<path xmlns="http://www.w3.org/2000/svg" fill="#a39192" fill-opacity="0.996" d="   M 309.92 152.92   Q 309.39 154.07 308.19 154.00   L 309.92 152.92   Z"/>
<path xmlns="http://www.w3.org/2000/svg" fill="#faf6f2" fill-opacity="0.996" d="   M 172.93 155.19   Q 173.11 155.41 173.29 155.62   L 173.37 156.21   Q 173.29 162.61 173.39 169.00   Q 173.43 171.20 171.55 170.90   Q 171.51 170.66 171.55 170.54   Q 172.26 169.13 171.87 167.21   L 171.88 165.79   L 171.88 164.71   L 171.93 162.29   Q 171.26 158.58 172.93 155.19   Z"/>
<path xmlns="http://www.w3.org/2000/svg" fill="#a39192" fill-opacity="0.996" d="   M 302.37 157.26   Q 297.92 160.36 292.74 161.99   L 302.37 157.26   Z"/>
<path xmlns="http://www.w3.org/2000/svg" fill="#a39192" fill-opacity="0.996" d="   M 171.88 164.71   L 171.93 162.29   L 171.88 164.71   Z"/>
<path xmlns="http://www.w3.org/2000/svg" fill="#a39192" fill-opacity="0.996" d="   M 290.09 163.30   Q 288.47 164.71 286.45 165.05   Q 288.03 163.66 290.09 163.30   Z"/>
<path xmlns="http://www.w3.org/2000/svg" fill="#a39192" fill-opacity="0.996" d="   M 286.36 165.04   L 273.21 170.51   L 286.36 165.04   Z"/>
<path xmlns="http://www.w3.org/2000/svg" fill="#000000" d="   M 171.88 165.79   L 171.87 167.21   L 171.88 165.79   Z"/>
<path xmlns="http://www.w3.org/2000/svg" fill="#a39192" fill-opacity="0.996" d="   M 171.55 170.54   Q 171.51 170.66 171.55 170.90   Q 169.69 171.69 167.52 171.40   L 171.55 170.54   Z"/>
<path xmlns="http://www.w3.org/2000/svg" fill="#a39192" fill-opacity="0.996" d="   M 44.75 180.88   Q 45.55 181.97 42.79 181.42   L 44.75 180.88   Z"/>
<path xmlns="http://www.w3.org/2000/svg" fill="#a39192" fill-opacity="0.996" d="   M 13.61 224.03   L 13.39 223.01   Q 13.41 222.63 13.31 222.29   Q 12.85 218.64 12.26 214.99   C 11.49 210.24 9.60 205.74 9.17 200.78   A 5.81 5.35 34.9 0 0 8.83 199.25   Q 6.77 193.63 6.20 187.83   Q 6.38 187.61 6.37 187.32   Q 6.37 187.22 6.37 187.12   L 6.37 187.13   Q 8.14 192.61 9.10 197.81   Q 10.32 204.46 11.46 208.57   Q 13.31 215.24 14.09 224.29   A 0.18 0.18 0.0 0 1 13.90 224.49   Q 13.57 224.46 13.61 224.03   Z"/>
<path xmlns="http://www.w3.org/2000/svg" fill="#a39192" fill-opacity="0.996" d="   M 1477.00 205.45   L 1475.83 211.26   Q 1475.75 208.34 1477.00 205.45   Z"/>
<path xmlns="http://www.w3.org/2000/svg" fill="#a39192" fill-opacity="0.996" d="   M 543.70 230.89   L 532.16 212.54   Q 539.28 220.88 543.70 230.89   Z"/>
<path xmlns="http://www.w3.org/2000/svg" fill="#a39192" fill-opacity="0.996" d="   M 594.37 214.04   Q 594.03 214.00 593.70 213.79   L 593.24 213.68   A 0.30 0.30 0.0 0 1 593.11 213.16   Q 593.42 212.87 593.94 212.91   Q 594.31 212.93 594.41 213.36   Q 594.47 213.65 594.37 214.04   Z"/>
<path xmlns="http://www.w3.org/2000/svg" fill="#000000" d="   M 337.46 330.73   Q 339.44 329.87 343.49 327.25   Q 364.93 313.35 381.09 300.78   Q 387.84 295.17 394.94 289.92   C 399.65 286.42 404.21 279.48 410.56 284.49   C 422.54 293.94 435.34 302.56 448.42 311.06   C 451.14 312.83 453.02 315.07 455.59 316.09   A 0.38 0.37 40.1 0 1 455.65 316.76   Q 442.53 324.68 440.10 326.34   Q 423.90 337.47 406.48 347.22   C 394.03 354.19 385.22 359.18 374.40 364.18   Q 371.63 365.46 369.25 367.23   A 0.75 0.75 0.0 0 0 369.28 368.45   C 400.61 389.22 436.33 402.83 472.62 412.12   Q 490.70 416.74 491.08 416.84   A 0.29 0.29 0.0 0 1 491.17 417.36   Q 471.58 431.41 460.01 452.48   Q 455.29 461.06 452.32 469.23   A 1.17 1.16 17.8 0 1 450.91 469.95   C 445.73 468.51 441.15 467.76 435.63 465.78   Q 406.33 455.27 398.63 451.61   Q 376.16 440.95 363.00 433.22   Q 349.72 425.42 333.32 413.40   Q 324.74 407.12 307.82 391.34   Q 297.69 381.89 297.58 381.79   Q 288.70 373.81 283.24 365.35   C 282.18 363.70 280.29 361.87 278.81 361.36   A 1.91 1.90 -87.2 0 0 276.34 363.60   Q 277.81 369.90 277.14 378.95   C 276.79 383.53 276.10 387.52 276.29 392.70   Q 276.99 412.24 276.74 440.50   Q 276.55 463.18 277.41 474.17   Q 277.60 476.59 278.02 478.21   A 0.81 0.81 0.0 0 1 277.33 479.22   Q 271.94 479.82 264.75 479.74   Q 240.03 479.44 215.50 479.52   Q 213.81 479.53 211.34 479.46   Q 212.31 476.83 212.19 473.61   Q 212.05 470.03 212.05 469.94   Q 212.25 445.35 212.06 420.75   Q 212.04 417.10 211.41 413.53   Q 211.13 412.79 211.34 412.06   Q 212.02 410.61 211.32 409.17   L 211.83 400.97   A 1.70 1.61 -30.2 0 1 212.04 400.25   L 213.57 397.47   A 0.54 0.53 -72.7 0 0 213.16 396.68   C 211.00 396.47 209.85 396.51 207.89 397.84   C 203.40 400.90 200.95 402.08 197.39 405.13   Q 195.86 406.44 188.75 410.98   Q 171.73 421.85 158.42 429.11   Q 130.68 444.26 103.24 454.96   C 88.43 460.74 74.45 466.09 58.81 470.91   Q 52.06 472.99 42.66 476.18   Q 39.93 477.10 37.86 475.14   Q 35.49 469.08 31.11 462.89   C 27.14 457.30 24.30 453.09 19.74 448.19   Q 17.65 445.93 14.13 441.81   Q 10.90 438.02 2.58 431.17   Q 1.60 430.37 2.57 428.88   Q 3.20 428.63 3.80 428.66   Q 12.03 427.84 19.78 424.96   Q 19.95 424.86 20.20 424.85   Q 21.26 425.27 22.07 424.48   Q 22.13 424.47 22.19 424.45   Q 23.86 424.52 25.31 423.80   Q 25.72 423.75 26.04 423.52   Q 26.12 423.51 26.20 423.50   Q 27.79 423.45 29.22 422.81   L 29.69 422.60   Q 30.28 423.07 30.53 422.48   L 36.19 421.00   Q 37.38 420.41 38.73 420.27   Q 39.38 420.40 39.53 419.91   Q 62.46 413.38 75.67 408.64   Q 109.24 396.62 138.03 381.26   Q 148.71 375.56 155.85 370.82   Q 158.68 368.93 162.82 366.59   C 166.84 364.31 171.56 366.96 174.90 369.17   C 179.45 372.18 186.55 375.28 189.96 377.10   Q 190.00 377.12 197.68 381.39   C 201.25 383.37 207.69 386.83 211.99 386.84   Q 211.40 386.82 210.96 387.00   A 0.31 0.31 0.0 0 0 210.90 387.54   Q 212.76 388.83 212.60 386.71   Q 212.92 386.93 213.05 386.87   A 1.58 1.41 56.6 0 0 213.40 384.47   Q 212.73 383.71 212.05 382.93   A 1.44 1.44 0.0 0 1 211.71 382.03   L 211.59 374.03   Q 211.56 374.63 211.68 375.01   A 0.20 0.20 0.0 0 0 212.06 374.98   Q 212.49 372.23 211.39 369.68   L 211.44 339.03   L 211.57 342.80   A 0.15 0.14 -2.0 0 0 211.72 342.93   L 211.74 342.94   A 0.15 0.14 12.1 0 0 211.95 342.81   L 211.95 327.90   A 0.23 0.23 0.0 0 0 211.50 327.82   Q 211.26 328.47 211.44 329.55   Q 211.14 311.26 211.42 293.00   Q 211.44 291.42 211.79 290.22   A 0.44 0.44 0.0 0 0 211.39 289.65   Q 205.47 289.32 199.75 289.79   Q 168.59 292.36 116.25 295.71   Q 85.04 297.71 58.75 298.50   Q 56.32 298.57 53.22 297.84   A 0.71 0.70 4.6 0 1 52.68 297.21   Q 52.62 296.40 52.86 295.54   Q 52.77 295.85 53.19 296.16   A 0.46 0.46 0.0 0 0 53.91 295.70   Q 53.12 291.78 52.01 287.75   Q 50.25 281.36 41.89 262.31   Q 39.38 256.58 36.29 252.76   L 41.24 251.57   A 4.33 3.85 -48.3 0 1 42.18 251.46   Q 52.74 251.52 56.79 251.33   Q 128.30 247.93 148.00 246.39   Q 209.13 241.61 237.00 238.46   Q 252.20 236.74 282.05 232.98   C 308.08 229.71 330.69 225.78 355.25 221.62   C 363.93 220.15 372.87 217.04 381.95 217.08   C 385.76 217.10 386.18 219.88 388.33 222.02   C 396.91 230.52 405.02 237.78 413.03 245.26   Q 418.71 250.56 426.65 256.48   A 0.36 0.36 0.0 0 1 426.54 257.11   C 417.29 259.84 407.42 261.72 395.49 263.92   Q 343.93 273.44 320.73 276.66   Q 293.11 280.49 283.99 281.93   Q 283.01 282.08 280.89 283.44   A 0.44 0.44 0.0 0 0 280.86 284.16   Q 280.93 284.21 281.66 284.30   Q 282.15 284.37 282.33 284.74   Q 283.52 287.26 284.87 289.12   C 293.04 300.40 302.51 313.02 310.83 321.18   Q 316.44 326.67 322.12 332.59   Q 322.83 333.34 326.49 334.97   Q 328.55 335.88 331.37 334.60   A 0.14 0.11 7.0 0 0 331.42 334.57   L 337.46 330.73   Z   M 53.1958 296.5138   A 0.69 0.46 -129.0 0 0 53.2725 297.3395   A 0.69 0.46 -129.0 0 0 54.0642 297.5862   A 0.69 0.46 -129.0 0 0 53.9875 296.7605   A 0.69 0.46 -129.0 0 0 53.1958 296.5138   Z"/>
<path xmlns="http://www.w3.org/2000/svg" fill="#a39192" fill-opacity="0.996" d="   M 1474.07 218.40   Q 1473.70 222.69 1471.53 226.25   L 1474.07 218.40   Z"/>
<path xmlns="http://www.w3.org/2000/svg" fill="#000000" d="   M 13.39 223.01   L 13.31 222.29   Q 13.41 222.63 13.39 223.01   Z"/>
<path xmlns="http://www.w3.org/2000/svg" fill="#a39192" fill-opacity="0.996" d="   M 1471.53 226.25   L 1470.14 229.84   Q 1470.43 227.81 1471.53 226.25   Z"/>
<path xmlns="http://www.w3.org/2000/svg" fill="#a39192" fill-opacity="0.996" d="   M 1469.81 230.43   L 1468.41 233.03   Q 1468.27 231.55 1469.81 230.43   Z"/>
<path xmlns="http://www.w3.org/2000/svg" fill="#a39192" fill-opacity="0.996" d="   M 545.58 235.56   Q 545.30 235.02 545.26 234.43   Q 545.77 234.87 545.58 235.56   Z"/>
<path xmlns="http://www.w3.org/2000/svg" fill="#a39192" fill-opacity="0.996" d="   M 36.29 252.76   Q 39.38 256.58 41.89 262.31   Q 50.25 281.36 52.01 287.75   Q 53.12 291.78 53.91 295.70   A 0.46 0.46 0.0 0 1 53.19 296.16   Q 52.77 295.85 52.86 295.54   Q 52.98 293.11 52.61 291.97   Q 46.67 274.13 38.66 257.12   A 3.51 3.37 -80.7 0 0 38.00 256.16   Q 36.00 254.04 36.29 252.76   Z"/>
<path xmlns="http://www.w3.org/2000/svg" fill="#faf6f2" fill-opacity="0.996" d="   M 1200.14 277.32   Q 1200.15 277.46 1199.98 277.91   Q 1198.74 278.45 1198.47 277.98   Q 1198.22 277.30 1200.14 277.32   Z"/>
<path xmlns="http://www.w3.org/2000/svg" fill="#faf6f2" fill-opacity="0.996" d="   M 1198.47 277.98   Q 1198.58 278.27 1198.21 278.40   Q 1197.70 278.58 1197.43 278.35   A 0.34 0.33 -34.1 0 1 1197.54 277.78   Q 1198.20 277.56 1198.47 277.98   Z"/>
<path xmlns="http://www.w3.org/2000/svg" fill="#faf6f2" fill-opacity="0.996" d="   M 1537.17 412.87   Q 1535.20 413.15 1535.20 410.75   Q 1534.97 348.25 1535.03 285.75   Q 1535.03 282.68 1535.22 279.51   Q 1535.79 279.46 1536.24 279.67   A 0.76 0.75 15.8 0 1 1536.68 280.45   Q 1536.37 282.97 1536.38 284.26   Q 1536.69 349.32 1536.51 390.50   Q 1536.48 397.86 1536.05 408.49   Q 1535.96 410.66 1537.17 412.87   Z"/>
<ellipse xmlns="http://www.w3.org/2000/svg" fill="#a39192" fill-opacity="0.996" cx="0.00" cy="0.00" transform="translate(53.63,297.05) rotate(-129.0)" rx="0.69" ry="0.46"/>
<path xmlns="http://www.w3.org/2000/svg" fill="#000000" d="   M 40.40 388.78   Q 41.79 388.50 40.82 387.38   Q 40.16 386.62 39.85 385.77   Q 39.26 384.17 39.13 383.96   Q 33.02 374.37 28.02 368.96   Q 21.01 361.40 7.70 348.01   Q 7.45 347.75 7.36 347.01   L 11.54 345.74   Q 15.79 345.33 24.02 343.57   Q 47.51 338.55 65.34 332.99   Q 77.24 328.86 89.10 324.69   Q 109.57 317.49 118.34 313.04   Q 133.79 305.20 135.66 304.19   C 140.06 301.81 142.74 299.99 146.27 298.64   A 1.47 1.45 -38.2 0 1 147.62 298.79   Q 163.30 309.26 173.50 316.90   C 178.13 320.37 184.17 323.38 188.52 327.04   C 189.17 327.59 189.91 327.67 190.47 327.98   A 0.40 0.39 45.2 0 1 190.47 328.67   C 183.10 332.75 173.52 339.30 166.12 343.28   Q 145.80 354.22 130.04 360.77   Q 88.95 377.83 45.31 388.83   Q 43.36 389.32 40.40 388.78   Z"/>
<path xmlns="http://www.w3.org/2000/svg" fill="#a39192" fill-opacity="0.996" d="   M 381.09 300.78   Q 364.93 313.35 343.49 327.25   Q 339.44 329.87 337.46 330.73   L 381.09 300.78   Z"/>
<path xmlns="http://www.w3.org/2000/svg" fill="#000000" d="   M 692.16 391.97   Q 703.81 384.21 712.32 375.80   C 722.35 365.90 732.74 354.10 741.73 342.22   Q 748.98 332.62 755.17 319.90   Q 757.26 314.07 760.71 308.78   A 1.90 1.88 -86.1 0 1 761.48 308.10   Q 765.62 306.14 770.14 307.86   Q 781.38 312.15 789.71 314.71   C 800.35 317.97 807.70 320.79 817.93 324.20   A 0.67 0.67 0.0 0 1 818.28 325.21   Q 816.97 327.16 816.40 329.14   C 815.27 333.04 812.25 336.26 810.75 339.91   Q 809.10 343.93 807.41 346.97   C 803.64 353.75 799.93 361.07 795.86 367.13   Q 780.73 389.71 774.19 398.21   Q 768.25 405.93 758.04 417.29   Q 743.46 433.48 725.84 446.08   C 723.03 448.09 720.73 450.38 718.18 452.46   Q 714.98 455.08 712.52 451.76   Q 703.56 439.66 694.64 430.13   Q 687.28 422.25 682.27 418.51   Q 674.88 413.00 669.08 408.31   A 0.49 0.49 0.0 0 1 669.11 407.52   L 692.16 391.97   Z"/>
<path xmlns="http://www.w3.org/2000/svg" fill="#000000" d="   M 1050.31 406.63   A 0.27 0.27 0.0 0 1 1050.32 407.09   C 1041.20 413.29 1032.52 420.28 1025.09 428.26   Q 1016.01 438.02 1012.28 442.79   Q 1011.41 443.90 1007.40 450.79   A 2.06 1.96 88.6 0 1 1006.83 451.42   C 1003.70 453.63 1001.26 451.81 998.06 450.33   A 4.75 4.69 -9.2 0 1 996.65 449.33   Q 994.17 446.82 988.95 443.03   Q 986.22 441.05 980.92 436.63   Q 958.24 417.69 937.55 388.23   Q 925.12 370.53 918.93 359.85   Q 913.75 350.93 905.84 336.11   A 4.21 4.10 -65.1 0 1 905.39 334.83   Q 904.48 329.97 901.49 325.86   A 0.62 0.62 0.0 0 1 901.72 324.94   C 904.98 323.33 908.00 321.64 911.71 320.47   Q 926.19 315.95 940.69 310.50   C 944.60 309.03 948.73 308.37 953.24 307.16   A 2.87 2.69 36.6 0 1 954.02 307.07   L 956.76 307.15   A 1.46 1.45 76.6 0 1 958.01 307.93   Q 958.35 308.58 958.38 310.07   A 2.71 2.65 -61.1 0 0 958.72 311.30   Q 992.01 371.17 1050.31 406.63   Z"/>
<path xmlns="http://www.w3.org/2000/svg" fill="#a39192" fill-opacity="0.996" d="   M 692.16 391.97   Q 730.42 361.79 755.17 319.90   Q 748.98 332.62 741.73 342.22   C 732.74 354.10 722.35 365.90 712.32 375.80   Q 703.81 384.21 692.16 391.97   Z"/>
<path xmlns="http://www.w3.org/2000/svg" fill="#a39192" fill-opacity="0.996" d="   M 211.44 339.03   L 211.35 332.21   L 211.41 330.04   L 211.44 329.55   Q 211.26 328.47 211.50 327.82   A 0.23 0.23 0.0 0 1 211.95 327.90   L 211.95 342.81   A 0.15 0.14 12.1 0 1 211.74 342.94   L 211.72 342.93   A 0.15 0.14 -2.0 0 1 211.57 342.80   L 211.44 339.03   Z"/>
<path xmlns="http://www.w3.org/2000/svg" fill="#000000" d="   M 211.41 330.04   L 211.35 332.21   L 211.41 330.04   Z"/>
<path xmlns="http://www.w3.org/2000/svg" fill="#a39192" fill-opacity="0.996" d="   M 65.34 332.99   Q 47.51 338.55 24.02 343.57   Q 15.79 345.33 11.54 345.74   Q 38.66 340.22 65.34 332.99   Z"/>
<path xmlns="http://www.w3.org/2000/svg" fill="#a39192" fill-opacity="0.996" d="   M 7.36 347.01   Q 7.45 347.75 7.70 348.01   Q 21.01 361.40 28.02 368.96   Q 33.02 374.37 39.13 383.96   Q 39.26 384.17 39.85 385.77   Q 40.16 386.62 40.82 387.38   Q 41.79 388.50 40.40 388.78   L 38.38 384.07   A 2.42 2.19 -75.8 0 0 38.19 383.71   Q 31.01 372.45 21.43 363.04   C 15.99 357.69 11.98 352.72 5.80 347.96   A 0.47 0.47 0.0 0 1 5.83 347.20   Q 6.34 346.88 7.36 347.01   Z"/>
<path xmlns="http://www.w3.org/2000/svg" fill="#a39192" fill-opacity="0.996" d="   M 1426.48 352.66   L 1426.51 403.61   Q 1424.44 378.10 1426.48 352.66   Z"/>
<path xmlns="http://www.w3.org/2000/svg" fill="#a39192" fill-opacity="0.996" d="   M 211.59 374.03   L 211.39 369.68   Q 212.49 372.23 212.06 374.98   A 0.20 0.20 0.0 0 1 211.68 375.01   Q 211.56 374.63 211.59 374.03   Z"/>
<path xmlns="http://www.w3.org/2000/svg" fill="#faf6f2" fill-opacity="0.996" d="   M 212.60 386.71   Q 212.76 388.83 210.90 387.54   A 0.31 0.31 0.0 0 1 210.96 387.00   Q 211.40 386.82 211.99 386.84   Q 212.22 386.65 212.60 386.71   Z"/>
<path xmlns="http://www.w3.org/2000/svg" fill="#a39192" fill-opacity="0.996" d="   M 211.34 412.06   L 211.32 409.17   Q 212.02 410.61 211.34 412.06   Z"/>
<ellipse xmlns="http://www.w3.org/2000/svg" fill="#a39192" fill-opacity="0.996" cx="0.00" cy="0.00" transform="translate(1426.61,411.40) rotate(-109.5)" rx="0.90" ry="0.43"/>
<path xmlns="http://www.w3.org/2000/svg" fill="#a39192" fill-opacity="0.996" d="   M 211.34 479.46   L 211.41 413.53   Q 212.04 417.10 212.06 420.75   Q 212.25 445.35 212.05 469.94   Q 212.05 470.03 212.19 473.61   Q 212.31 476.83 211.34 479.46   Z"/>
<path xmlns="http://www.w3.org/2000/svg" fill="#a39192" fill-opacity="0.996" d="   M 39.53 419.91   Q 39.38 420.40 38.73 420.27   L 39.53 419.91   Z"/>
<path xmlns="http://www.w3.org/2000/svg" fill="#a39192" fill-opacity="0.996" d="   M 36.19 421.00   L 30.53 422.48   L 36.19 421.00   Z"/>
<path xmlns="http://www.w3.org/2000/svg" fill="#a39192" fill-opacity="0.996" d="   M 30.53 422.48   Q 30.28 423.07 29.69 422.60   Q 30.14 422.44 30.53 422.48   Z"/>
<path xmlns="http://www.w3.org/2000/svg" fill="#a39192" fill-opacity="0.996" d="   M 29.22 422.81   Q 27.79 423.45 26.20 423.50   Q 27.54 422.91 29.22 422.81   Z"/>
<path xmlns="http://www.w3.org/2000/svg" fill="#a39192" fill-opacity="0.996" d="   M 26.04 423.52   Q 25.72 423.75 25.31 423.80   Q 25.57 423.53 26.04 423.52   Z"/>
<path xmlns="http://www.w3.org/2000/svg" fill="#a39192" fill-opacity="0.996" d="   M 25.31 423.80   Q 23.86 424.52 22.19 424.45   Q 23.65 423.85 25.31 423.80   Z"/>
<path xmlns="http://www.w3.org/2000/svg" fill="#a39192" fill-opacity="0.996" d="   M 22.07 424.48   Q 21.26 425.27 20.20 424.85   Q 21.11 424.51 22.07 424.48   Z"/>
<path xmlns="http://www.w3.org/2000/svg" fill="#a39192" fill-opacity="0.996" d="   M 19.78 424.96   Q 12.03 427.84 3.80 428.66   L 19.78 424.96   Z"/>
<path xmlns="http://www.w3.org/2000/svg" fill="#a39192" fill-opacity="0.996" d="   M 2.57 428.88   Q 1.60 430.37 2.58 431.17   Q 10.90 438.02 14.13 441.81   Q 17.65 445.93 19.74 448.19   C 24.30 453.09 27.14 457.30 31.11 462.89   Q 35.49 469.08 37.86 475.14   Q 36.63 474.00 35.87 472.35   Q 34.68 469.73 34.37 469.27   C 30.53 463.52 26.28 456.70 21.77 451.76   Q 17.89 447.52 14.79 443.73   C 11.34 439.50 7.42 435.97 3.83 433.09   Q 2.35 431.91 1.36 430.33   Q 0.86 429.52 1.29 429.13   Q 1.66 428.80 2.57 428.88   Z"/>
<path xmlns="http://www.w3.org/2000/svg" fill="#faf6f2" fill-opacity="0.996" d="   M 743.15 530.79   Q 739.86 528.49 732.00 528.39   Q 719.02 528.23 705.94 528.71   A 2.21 2.21 0.0 0 0 703.98 530.06   L 690.43 562.23   Q 690.02 562.14 689.75 562.18   C 691.82 556.55 693.88 550.82 696.52 545.50   Q 700.02 538.47 700.92 535.52   C 701.49 533.65 703.24 531.67 703.52 529.01   A 1.68 1.67 -88.4 0 1 705.10 527.51   Q 719.29 526.82 728.51 526.88   Q 736.66 526.94 741.71 528.55   Q 743.42 529.09 743.15 530.79   Z"/>
<path xmlns="http://www.w3.org/2000/svg" fill="#a39192" fill-opacity="0.996" d="   M 887.99 530.70   C 883.69 530.05 879.25 528.69 875.26 528.48   Q 867.88 528.10 864.53 527.92   A 6.86 6.79 39.6 0 0 862.52 528.10   Q 860.57 528.57 856.72 528.88   Q 853.90 529.12 850.01 530.17   Q 836.45 533.82 825.86 541.75   Q 811.21 552.73 805.39 570.89   Q 805.15 571.64 804.88 572.06   Q 804.30 573.00 804.05 571.98   Q 810.05 552.10 825.86 540.61   Q 848.99 523.80 877.94 528.10   Q 880.18 528.43 887.99 530.70   Z"/>
<path xmlns="http://www.w3.org/2000/svg" fill="#000000" d="   M 887.99 530.70   Q 891.86 531.79 895.58 533.65   Q 903.00 537.37 909.56 542.48   Q 916.55 547.90 921.49 555.26   Q 921.73 555.63 921.72 555.92   Q 922.61 558.65 924.57 560.48   Q 927.28 566.49 929.52 572.88   Q 931.79 579.35 931.88 583.83   Q 932.02 590.70 931.54 597.53   C 931.26 601.48 929.56 605.49 928.72 609.66   Q 928.36 611.48 927.14 614.39   C 922.18 626.26 914.76 634.30 904.68 641.85   C 896.74 647.79 886.90 650.76 877.49 651.94   C 860.75 654.05 843.45 652.05 829.93 641.91   Q 821.62 635.68 814.51 627.30   Q 810.72 622.81 808.04 616.49   Q 804.03 607.05 803.42 605.55   A 6.96 6.61 31.0 0 1 803.00 604.03   Q 800.39 587.48 804.05 571.98   Q 804.30 573.00 804.88 572.06   Q 805.15 571.64 805.39 570.89   Q 811.21 552.73 825.86 541.75   Q 836.45 533.82 850.01 530.17   Q 853.90 529.12 856.72 528.88   Q 860.57 528.57 862.52 528.10   A 6.86 6.79 39.6 0 1 864.53 527.92   Q 867.88 528.10 875.26 528.48   C 879.25 528.69 883.69 530.05 887.99 530.70   Z   M 838.98 576.94   Q 837.55 579.34 837.65 582.05   C 836.30 587.15 836.18 592.31 837.92 597.39   Q 838.98 600.47 839.47 603.24   A 3.87 3.55 28.4 0 0 839.83 604.28   Q 842.64 609.53 846.39 613.89   C 851.01 619.27 856.16 620.80 862.85 622.34   C 865.51 622.95 868.80 622.29 872.51 621.77   Q 875.77 621.31 877.53 620.52   Q 881.62 618.68 887.32 614.35   Q 893.29 608.95 895.61 600.72   Q 896.45 597.74 897.16 594.73   Q 898.77 587.94 895.76 582.09   L 894.43 577.33   Q 893.41 572.59 889.95 569.75   L 886.90 565.95   Q 882.74 561.64 877.22 559.44   C 871.52 557.56 864.66 556.28 858.80 558.28   Q 846.44 562.51 840.16 573.91   Q 839.64 574.87 838.98 576.94   Z"/>
<path xmlns="http://www.w3.org/2000/svg" fill="#000000" d="   M 743.15 530.79   C 744.12 534.24 746.08 537.45 746.83 540.31   C 747.41 542.53 748.77 543.95 749.63 546.24   Q 751.04 550.00 752.42 552.35   C 753.02 553.36 753.36 555.67 754.00 557.14   Q 756.79 563.51 760.26 571.34   Q 763.44 578.54 765.89 584.38   Q 768.78 591.26 771.81 597.31   C 772.65 598.99 772.86 599.85 773.29 601.48   A 10.94 10.41 25.2 0 0 774.13 603.64   Q 775.38 606.08 776.53 609.79   A 12.12 12.06 -68.8 0 0 777.60 612.23   Q 782.61 620.93 785.32 627.87   Q 788.63 636.37 790.67 639.86   Q 793.30 644.38 793.98 646.65   A 2.09 2.03 -74.7 0 0 794.41 647.43   L 795.86 649.12   A 0.42 0.41 64.8 0 1 795.62 649.80   Q 788.77 650.93 783.74 650.93   Q 765.65 650.93 759.25 650.90   C 756.78 650.88 754.87 649.62 754.45 647.15   Q 754.05 644.84 747.73 632.07   Q 746.14 628.86 739.66 612.06   Q 738.53 609.14 735.86 604.27   C 732.19 597.57 730.04 590.48 727.04 582.99   Q 726.45 581.53 726.34 576.23   A 1.26 1.25 18.2 0 0 725.84 575.25   Q 723.04 573.16 719.41 574.37   A 0.81 0.81 0.0 0 0 718.85 575.23   L 719.04 576.85   A 4.23 4.19 -40.7 0 1 718.92 578.37   L 716.56 587.15   A 5.92 5.91 66.8 0 1 716.05 588.43   C 715.39 589.47 714.18 591.57 713.92 593.01   C 713.33 596.39 711.39 598.94 710.06 602.55   C 709.27 604.68 707.70 606.81 707.12 609.17   C 706.46 611.86 704.94 614.21 703.86 617.13   C 701.85 622.61 700.27 627.66 697.81 632.30   Q 694.01 639.52 691.42 647.85   Q 690.69 650.20 688.27 650.34   Q 683.99 650.58 677.75 650.81   Q 676.61 650.85 652.70 650.14   A 0.88 0.87 -69.7 0 1 652.05 648.71   L 652.59 648.04   A 1.00 0.90 -20.0 0 0 652.74 647.76   Q 655.82 637.50 660.99 628.20   Q 666.71 617.51 670.06 609.56   Q 672.47 603.84 674.40 599.62   Q 676.93 594.11 678.70 589.68   Q 680.88 584.20 683.18 578.99   Q 686.87 570.64 690.43 562.23   L 703.98 530.06   A 2.21 2.21 0.0 0 1 705.94 528.71   Q 719.02 528.23 732.00 528.39   Q 739.86 528.49 743.15 530.79   Z"/>
<path xmlns="http://www.w3.org/2000/svg" fill="#000000" d="   M 1275.22 528.45   L 1271.36 528.55   Q 1273.22 528.14 1275.22 528.45   Z"/>
<path xmlns="http://www.w3.org/2000/svg" fill="#faf6f2" fill-opacity="0.996" d="   M 284.85 528.62   L 292.17 528.71   Q 301.36 528.81 306.13 529.13   Q 306.93 529.18 308.21 529.79   L 308.20 530.28   Q 305.90 530.48 303.55 529.98   A 3.00 2.32 44.2 0 0 302.94 529.91   Q 290.65 529.57 280.30 529.88   Q 277.92 529.95 277.87 532.56   Q 277.32 564.71 277.94 602.75   Q 277.99 606.15 277.75 608.75   Q 277.32 613.28 276.63 614.61   Q 273.31 621.11 267.15 622.54   Q 274.88 619.41 276.75 611.27   A 2.87 2.61 -42.3 0 0 276.80 610.75   L 276.70 530.52   A 1.16 1.15 -8.7 0 1 277.53 529.40   Q 281.08 528.32 284.85 528.62   Z"/>
<path xmlns="http://www.w3.org/2000/svg" fill="#000000" d="   M 292.17 528.71   L 284.85 528.62   L 292.17 528.71   Z"/>
<path xmlns="http://www.w3.org/2000/svg" fill="#000000" d="   M 349.21 528.67   L 347.52 528.66   L 349.21 528.67   Z"/>
<path xmlns="http://www.w3.org/2000/svg" fill="#000000" d="   M 1220.99 528.86   L 1218.51 528.81   Q 1219.83 528.29 1220.99 528.86   Z"/>
<path xmlns="http://www.w3.org/2000/svg" fill="#000000" d="   M 1269.25 528.57   L 1266.21 528.66   L 1269.25 528.57   Z"/>
<path xmlns="http://www.w3.org/2000/svg" fill="#a39192" fill-opacity="0.996" d="   M 1269.50 528.55   Q 1269.90 528.68 1270.29 528.54   Q 1270.37 528.54 1270.46 528.54   Q 1271.20 528.78 1271.26 528.51   Q 1271.31 528.53 1271.36 528.55   L 1275.22 528.45   Q 1275.36 528.51 1275.49 528.57   L 1278.71 528.72   L 1288.71 529.73   Q 1287.07 530.25 1287.58 530.48   Q 1277.34 529.21 1267.12 529.77   Q 1264.73 529.90 1262.38 529.58   Q 1261.47 529.45 1261.55 529.08   L 1262.54 528.96   Q 1262.94 529.02 1263.29 528.86   L 1266.21 528.66   L 1269.25 528.57   Q 1269.38 528.56 1269.50 528.55   Z"/>
<path xmlns="http://www.w3.org/2000/svg" fill="#000000" d="   M 1270.29 528.54   Q 1269.90 528.68 1269.50 528.55   L 1270.29 528.54   Z"/>
<path xmlns="http://www.w3.org/2000/svg" fill="#000000" d="   M 1271.26 528.51   Q 1271.20 528.78 1270.46 528.54   L 1271.26 528.51   Z"/>
<path xmlns="http://www.w3.org/2000/svg" fill="#000000" d="   M 1278.71 528.72   L 1275.49 528.57   L 1278.71 528.72   Z"/>
<path xmlns="http://www.w3.org/2000/svg" fill="#faf6f2" fill-opacity="0.996" d="   M 347.52 528.66   L 349.21 528.67   Q 358.26 528.86 367.32 529.11   Q 374.34 529.31 372.50 531.82   Q 371.36 530.07 368.25 529.99   C 355.78 529.68 346.88 529.26 340.13 530.38   A 2.02 2.01 -4.5 0 0 338.45 532.34   Q 338.00 572.17 339.12 611.65   Q 337.63 606.45 337.36 602.43   Q 337.21 600.18 337.11 591.30   Q 337.23 590.53 337.01 590.03   L 336.99 530.78   A 0.68 0.67 82.0 0 1 337.47 530.13   Q 342.43 528.66 347.52 528.66   Z"/>
<path xmlns="http://www.w3.org/2000/svg" fill="#a39192" fill-opacity="0.996" d="   M 616.19 532.84   Q 612.65 532.11 609.07 531.40   C 602.90 530.18 594.33 530.34 590.50 530.27   Q 566.61 529.83 534.72 530.16   A 2.00 1.99 89.7 0 0 532.75 532.16   L 533.09 649.98   L 532.27 649.54   A 0.84 0.84 0.0 0 1 531.82 648.78   Q 532.04 634.62 531.87 620.03   C 531.69 605.74 532.29 593.75 532.00 579.92   C 531.69 564.90 532.01 552.89 532.09 539.25   Q 532.12 534.11 531.72 530.38   A 0.70 0.70 0.0 0 1 532.38 529.61   C 534.45 529.48 536.34 529.03 538.24 529.00   Q 566.28 528.49 599.02 529.40   Q 608.34 529.66 616.19 532.84   Z"/>
<path xmlns="http://www.w3.org/2000/svg" fill="#000000" d="   M 1152.06 529.22   Q 1154.93 530.33 1157.99 530.36   C 1174.57 530.50 1191.57 529.88 1207.67 529.93   Q 1218.32 529.97 1229.00 529.91   Q 1229.74 529.70 1230.45 530.21   Q 1230.80 530.93 1231.42 531.38   Q 1231.87 531.70 1232.04 531.34   Q 1232.16 531.07 1232.03 530.55   Q 1232.24 530.69 1232.37 530.95   A 0.82 0.81 39.8 0 1 1232.43 531.55   Q 1230.32 539.58 1231.52 546.51   Q 1232.40 551.57 1232.12 554.74   A 1.10 1.10 0.0 0 1 1231.61 555.57   Q 1228.25 557.69 1224.52 557.50   L 1214.60 557.66   Q 1197.17 556.76 1179.75 556.87   Q 1172.69 556.92 1168.00 557.39   A 1.67 1.67 0.0 0 0 1166.55 559.47   C 1167.49 563.03 1166.99 566.73 1166.59 573.50   Q 1166.51 574.68 1167.49 576.58   Q 1190.75 577.37 1213.93 576.64   Q 1214.32 576.63 1218.13 576.75   Q 1220.24 576.82 1222.30 576.42   L 1224.93 577.54   A 1.05 1.05 0.0 0 1 1225.54 578.72   C 1225.18 580.36 1224.89 581.22 1224.92 583.30   Q 1225.07 591.19 1224.59 600.98   A 0.98 0.97 77.2 0 1 1224.09 601.78   Q 1222.40 602.71 1220.01 602.71   Q 1201.08 602.66 1182.26 602.20   Q 1174.45 602.01 1168.31 602.57   A 1.68 1.67 87.6 0 0 1166.78 604.24   L 1166.78 619.90   A 1.74 1.73 -79.8 0 0 1167.91 621.53   Q 1169.07 621.97 1170.94 622.10   Q 1175.52 622.44 1180.75 622.31   Q 1200.88 621.77 1221.00 621.77   Q 1226.80 621.77 1232.33 622.93   A 1.43 1.42 -80.3 0 1 1233.45 624.52   Q 1231.96 635.29 1233.69 646.01   Q 1233.95 647.61 1234.67 648.91   A 0.59 0.58 69.6 0 1 1234.28 649.77   Q 1228.27 651.01 1222.00 650.88   Q 1201.17 650.44 1181.25 650.25   Q 1156.46 650.02 1140.75 650.37   Q 1136.51 650.47 1133.69 649.64   A 0.81 0.81 0.0 0 1 1133.13 648.71   Q 1133.46 647.08 1133.48 645.25   Q 1133.70 611.33 1133.35 590.75   C 1133.26 585.42 1133.62 579.13 1133.51 573.75   Q 1133.22 558.53 1133.64 544.75   Q 1133.85 537.98 1133.18 531.13   A 0.63 0.61 -12.3 0 1 1133.61 530.48   C 1139.99 528.39 1144.57 528.79 1152.06 529.22   Z"/>
<path xmlns="http://www.w3.org/2000/svg" fill="#000000" d="   M 1206.29 528.88   L 1205.47 528.84   L 1206.29 528.88   Z"/>
<path xmlns="http://www.w3.org/2000/svg" fill="#a39192" fill-opacity="0.996" d="   M 1218.51 528.81   L 1220.99 528.86   Q 1225.10 528.70 1229.00 529.91   Q 1218.32 529.97 1207.67 529.93   C 1191.57 529.88 1174.57 530.50 1157.99 530.36   Q 1154.93 530.33 1152.06 529.22   L 1205.47 528.84   L 1206.29 528.88   L 1218.51 528.81   Z"/>
<path xmlns="http://www.w3.org/2000/svg" fill="#000000" d="   M 1263.29 528.86   Q 1262.94 529.02 1262.54 528.96   Q 1262.89 528.83 1263.29 528.86   Z"/>
<path xmlns="http://www.w3.org/2000/svg" fill="#000000" d="   M 1352.29 528.87   L 1351.53 528.91   L 1352.29 528.87   Z"/>
<path xmlns="http://www.w3.org/2000/svg" fill="#a39192" fill-opacity="0.996" d="   M 1374.08 545.25   L 1374.04 548.19   A 0.17 0.05 87.5 0 1 1374.00 548.34   Q 1373.98 548.36 1373.96 548.48   A 0.14 0.06 66.2 0 1 1373.81 548.34   Q 1372.56 539.46 1372.81 533.03   C 1372.90 530.54 1372.07 530.23 1369.88 530.16   Q 1358.56 529.81 1347.25 529.92   Q 1345.10 529.94 1338.78 530.43   C 1342.89 528.76 1346.74 528.92 1351.53 528.91   L 1352.29 528.87   Q 1360.01 528.84 1367.75 528.78   Q 1369.09 528.77 1374.08 530.51   A 0.64 0.63 17.7 0 1 1374.48 531.28   L 1373.83 533.70   A 5.49 5.33 -39.7 0 0 1373.65 535.36   L 1374.08 545.25   Z"/>
<path xmlns="http://www.w3.org/2000/svg" fill="#faf6f2" fill-opacity="0.996" d="   M 442.49 529.78   L 419.47 530.38   A 1.91 1.91 0.0 0 0 417.61 532.29   L 417.61 595.93   A 0.58 0.48 -39.3 0 1 417.57 596.13   Q 416.94 597.79 417.15 599.64   A 4.56 4.48 -44.5 0 1 417.13 600.76   L 416.40 605.45   Q 416.05 605.99 416.00 604.74   Q 415.89 603.97 416.11 604.03   L 416.16 531.19   A 0.70 0.70 0.0 0 1 416.62 530.53   Q 420.34 529.25 424.25 529.09   Q 433.38 528.73 442.49 529.78   Z"/>
<path xmlns="http://www.w3.org/2000/svg" fill="#a39192" fill-opacity="0.996" d="   M 1082.83 532.40   L 1074.12 530.57   A 1.68 0.08 3.9 0 0 1073.93 530.55   Q 1046.61 529.56 1027.01 529.98   Q 1017.42 530.19 1011.16 530.78   A 1.29 1.29 0.0 0 0 1010.00 532.01   C 1009.52 543.36 1010.06 554.22 1009.92 564.01   Q 1009.68 581.51 1010.04 612.00   Q 1010.22 627.54 1009.52 650.31   Q 1008.49 650.19 1008.20 649.80   A 0.26 0.25 -64.0 0 1 1008.14 649.61   Q 1008.59 624.84 1009.03 600.10   C 1009.20 590.68 1008.49 577.85 1008.59 566.71   L 1008.61 565.54   Q 1008.89 552.90 1009.11 540.25   Q 1009.19 535.73 1008.44 530.75   A 0.94 0.94 0.0 0 1 1009.26 529.68   Q 1015.91 528.95 1023.75 529.07   Q 1028.75 529.15 1062.00 529.45   C 1067.26 529.50 1075.56 529.97 1082.83 532.40   Z"/>
<path xmlns="http://www.w3.org/2000/svg" fill="#000000" d="   M 1261.55 529.08   Q 1261.47 529.45 1262.38 529.58   Q 1264.73 529.90 1267.12 529.77   Q 1277.34 529.21 1287.58 530.48   Q 1290.17 531.79 1292.90 535.10   Q 1298.03 541.30 1302.95 547.68   Q 1304.65 549.72 1305.88 552.20   A 4.39 4.19 -79.6 0 0 1306.47 553.10   Q 1309.79 557.06 1314.33 561.65   C 1317.07 564.42 1319.96 569.40 1322.97 572.68   C 1324.88 574.75 1325.76 577.27 1327.61 579.53   Q 1332.88 585.94 1335.69 589.81   C 1336.63 591.10 1338.17 592.13 1339.48 592.90   A 1.76 1.76 0.0 0 0 1342.13 591.37   C 1342.09 585.34 1340.00 579.73 1338.60 574.08   A 5.11 5.00 -50.5 0 1 1338.46 572.41   Q 1339.84 555.22 1339.68 551.48   Q 1339.21 540.79 1338.78 530.43   Q 1345.10 529.94 1347.25 529.92   Q 1358.56 529.81 1369.88 530.16   C 1372.07 530.23 1372.90 530.54 1372.81 533.03   Q 1372.56 539.46 1373.81 548.34   A 0.14 0.06 66.2 0 0 1373.96 548.48   Q 1373.98 548.36 1374.00 548.34   A 0.17 0.05 87.5 0 0 1374.04 548.19   L 1374.08 545.25   L 1373.89 563.84   Q 1372.29 570.35 1372.46 572.49   Q 1372.79 576.76 1372.26 581.01   Q 1372.00 583.10 1373.22 590.02   L 1373.71 602.67   Q 1372.90 604.12 1373.77 605.31   Q 1374.48 622.26 1374.05 639.25   Q 1373.98 641.86 1373.63 644.00   Q 1372.13 646.50 1372.85 649.63   Q 1369.70 650.65 1367.49 650.70   Q 1352.60 651.00 1343.83 650.20   C 1342.37 650.07 1340.89 648.66 1339.97 647.30   Q 1334.68 639.45 1332.71 637.03   Q 1317.94 618.86 1312.56 612.22   C 1308.40 607.08 1304.79 601.58 1300.90 595.40   C 1297.58 590.11 1295.02 585.29 1288.69 586.58   A 0.73 0.72 73.5 0 0 1288.16 587.56   C 1289.38 590.61 1290.28 593.38 1290.63 596.87   C 1291.27 603.03 1291.87 606.18 1291.80 611.74   C 1291.72 617.96 1291.10 625.10 1291.25 631.76   Q 1291.41 638.82 1291.08 649.25   A 0.53 0.52 -10.4 0 1 1290.75 649.72   Q 1288.95 650.42 1286.75 650.49   Q 1273.84 650.91 1259.90 650.44   A 1.38 1.37 -87.9 0 1 1258.57 649.00   C 1258.84 642.74 1257.56 635.38 1257.64 628.29   C 1257.82 611.65 1258.20 604.68 1257.91 589.91   Q 1257.90 589.00 1257.42 534.44   Q 1257.41 533.21 1257.96 531.14   A 1.85 1.84 -16.0 0 1 1258.40 530.35   Q 1259.57 529.10 1261.55 529.08   Z"/>
<path xmlns="http://www.w3.org/2000/svg" fill="#000000" d="   M 339.12 611.65   Q 338.00 572.17 338.45 532.34   A 2.02 2.01 -4.5 0 1 340.13 530.38   C 346.88 529.26 355.78 529.68 368.25 529.99   Q 371.36 530.07 372.50 531.82   Q 371.75 574.03 372.19 590.25   Q 372.27 593.21 373.06 606.44   A 4.74 4.70 34.8 0 0 373.29 607.69   Q 377.24 619.78 389.72 621.83   Q 391.64 622.15 397.66 622.46   A 5.35 5.12 37.5 0 0 399.30 622.28   L 404.48 620.81   Q 410.71 619.28 413.75 613.47   Q 415.73 609.69 416.40 605.45   L 417.13 600.76   A 4.56 4.48 -44.5 0 0 417.15 599.64   Q 416.94 597.79 417.57 596.13   A 0.58 0.48 -39.3 0 0 417.61 595.93   L 417.61 532.29   A 1.91 1.91 0.0 0 1 419.47 530.38   L 442.49 529.78   Q 446.98 529.32 451.42 530.65   A 0.66 0.66 0.0 0 1 451.85 531.50   C 451.51 532.47 451.03 534.14 450.97 534.81   C 449.84 546.82 449.59 560.07 450.44 573.00   C 450.98 581.15 450.56 591.56 450.93 601.01   Q 450.99 602.66 449.59 611.97   Q 448.64 618.29 446.76 622.54   Q 442.35 632.50 437.84 637.31   Q 427.82 647.98 411.97 650.98   C 396.85 653.85 379.73 653.15 365.37 647.08   Q 359.61 644.65 354.54 639.63   Q 343.14 628.33 339.12 611.65   Z"/>
<path xmlns="http://www.w3.org/2000/svg" fill="#000000" d="   M 308.20 530.28   Q 308.72 530.36 308.99 530.00   Q 310.21 530.13 310.29 531.51   C 310.46 534.60 310.86 537.96 310.71 541.18   Q 310.22 551.19 310.44 565.50   Q 310.63 578.26 310.33 607.00   Q 310.25 615.21 309.27 619.05   C 308.13 623.58 306.85 629.22 304.66 633.11   Q 301.53 638.65 296.21 643.24   C 284.53 653.32 264.23 654.04 250.01 651.02   Q 243.80 649.07 242.13 648.35   Q 231.97 644.01 223.90 633.09   Q 222.56 631.27 224.33 629.60   Q 233.51 620.95 243.15 612.36   Q 245.99 612.89 247.34 614.65   Q 250.98 619.39 254.98 620.99   Q 259.86 622.95 267.15 622.54   Q 273.31 621.11 276.63 614.61   Q 277.32 613.28 277.75 608.75   Q 277.99 606.15 277.94 602.75   Q 277.32 564.71 277.87 532.56   Q 277.92 529.95 280.30 529.88   Q 290.65 529.57 302.94 529.91   A 3.00 2.32 44.2 0 1 303.55 529.98   Q 305.90 530.48 308.20 530.28   Z"/>
<path xmlns="http://www.w3.org/2000/svg" fill="#a39192" fill-opacity="0.996" d="   M 308.99 530.00   Q 308.72 530.36 308.20 530.28   L 308.21 529.79   Q 308.62 529.81 308.99 530.00   Z"/>
<path xmlns="http://www.w3.org/2000/svg" fill="#000000" d="   M 616.19 532.84   Q 628.36 537.31 633.90 546.63   Q 637.04 551.91 637.43 560.03   C 637.98 571.88 631.48 581.73 620.94 586.88   A 0.28 0.28 0.0 0 0 620.92 587.37   Q 626.93 590.90 627.87 591.40   C 633.79 594.58 637.79 599.88 640.53 605.75   C 641.27 607.35 641.81 612.96 641.73 615.05   Q 641.42 623.00 640.76 628.04   Q 640.56 629.59 638.13 633.58   C 634.85 638.98 627.60 643.68 622.40 645.63   C 612.00 649.55 602.97 650.47 591.00 650.58   Q 562.39 650.83 533.09 649.98   L 532.75 532.16   A 2.00 1.99 89.7 0 1 534.72 530.16   Q 566.61 529.83 590.50 530.27   C 594.33 530.34 602.90 530.18 609.07 531.40   Q 612.65 532.11 616.19 532.84   Z   M 603.21 566.59   Q 601.83 564.64 601.20 562.13   A 2.50 2.45 -68.4 0 0 600.93 561.49   Q 598.40 557.34 593.45 556.52   Q 586.52 555.38 573.49 555.29   Q 569.30 555.27 565.18 556.76   A 0.55 0.54 -10.0 0 0 564.82 557.27   L 564.99 573.37   A 3.59 3.55 -70.9 0 0 566.29 576.09   Q 567.76 577.20 570.35 577.53   Q 575.84 578.25 588.23 577.47   C 591.99 577.24 597.90 576.10 600.39 573.36   Q 601.31 572.35 603.31 567.51   A 0.97 0.96 -51.5 0 0 603.21 566.59   Z   M 566.70 621.78   Q 566.14 621.48 565.92 621.82   A 0.71 0.71 0.0 0 0 566.23 622.86   Q 567.16 623.27 567.52 622.49   L 570.28 623.14   Q 578.74 623.61 587.24 623.63   C 591.25 623.63 595.70 622.60 599.27 622.90   A 1.42 1.40 -60.2 0 0 600.20 622.64   Q 600.51 622.41 603.16 621.35   Q 605.11 620.58 606.21 619.33   Q 609.16 615.99 608.58 611.15   Q 608.56 611.03 608.63 610.84   Q 608.68 610.67 608.65 610.52   A 0.15 0.12 -58.9 0 0 608.40 610.62   Q 608.44 612.16 608.11 614.54   Q 608.69 608.96 606.39 606.44   Q 605.59 604.26 603.06 603.35   A 0.23 0.21 39.3 0 0 602.89 603.36   Q 602.69 603.45 602.73 603.66   Q 602.18 603.59 601.54 603.10   Q 601.65 602.94 601.68 602.89   A 0.34 0.34 0.0 0 0 601.37 602.40   Q 600.89 602.42 600.96 602.77   Q 600.27 602.64 599.79 602.27   Q 599.54 601.64 598.79 601.91   Q 598.13 601.83 598.42 601.68   Q 595.30 600.36 592.10 601.02   Q 578.72 600.25 570.75 600.43   Q 568.63 600.48 565.18 601.96   A 0.77 0.75 -13.2 0 0 564.71 602.70   C 564.77 603.77 565.15 604.79 565.11 605.95   Q 564.89 613.12 565.63 620.00   Q 565.70 620.71 566.70 621.78   Z"/>
<path xmlns="http://www.w3.org/2000/svg" fill="#000000" d="   M 1082.83 532.40   Q 1098.79 537.41 1107.09 551.42   Q 1109.68 555.81 1110.87 560.17   C 1112.58 566.44 1113.60 570.64 1113.07 577.27   A 6.26 6.04 -33.1 0 1 1112.67 579.02   C 1110.88 583.61 1109.85 588.24 1107.42 592.50   C 1103.48 599.42 1099.44 604.95 1092.44 608.42   Q 1082.01 613.91 1072.75 614.55   Q 1069.62 614.76 1067.53 615.00   C 1062.79 615.54 1058.73 615.60 1054.25 615.64   C 1050.54 615.80 1047.77 614.88 1043.86 616.68   Q 1043.72 616.22 1043.52 616.26   A 1.03 1.02 -10.9 0 0 1042.70 617.46   Q 1042.76 617.79 1043.47 617.53   Q 1042.83 621.09 1042.85 623.69   Q 1042.89 628.65 1043.31 646.19   C 1043.34 647.25 1043.87 648.28 1043.85 649.10   A 0.71 0.71 0.0 0 1 1043.30 649.79   Q 1038.27 650.99 1037.01 651.01   C 1031.68 651.09 1024.95 650.42 1018.17 650.50   Q 1013.80 650.55 1009.52 650.31   Q 1010.22 627.54 1010.04 612.00   Q 1009.68 581.51 1009.92 564.01   C 1010.06 554.22 1009.52 543.36 1010.00 532.01   A 1.29 1.29 0.0 0 1 1011.16 530.78   Q 1017.42 530.19 1027.01 529.98   Q 1046.61 529.56 1073.93 530.55   A 1.68 0.08 3.9 0 1 1074.12 530.57   L 1082.83 532.40   Z   M 1042.26 562.85   L 1042.12 583.71   A 6.16 6.16 0.0 0 0 1048.23 589.91   L 1058.92 589.98   A 18.49 13.11 0.4 0 0 1077.51 577.00   L 1077.55 570.04   A 18.49 13.11 0.4 0 0 1059.16 556.80   L 1048.47 556.73   A 6.16 6.16 0.0 0 0 1042.26 562.85   Z"/>
<path xmlns="http://www.w3.org/2000/svg" fill="#faf6f2" fill-opacity="0.996" d="   M 1288.71 529.73   Q 1294.52 535.45 1299.91 542.60   Q 1300.95 543.98 1302.95 547.68   Q 1298.03 541.30 1292.90 535.10   Q 1290.17 531.79 1287.58 530.48   Q 1287.07 530.25 1288.71 529.73   Z"/>
<path xmlns="http://www.w3.org/2000/svg" fill="#a39192" fill-opacity="0.996" d="   M 1232.03 530.55   Q 1232.16 531.07 1232.04 531.34   Q 1231.87 531.70 1231.42 531.38   Q 1230.80 530.93 1230.45 530.21   Q 1231.30 530.20 1232.03 530.55   Z"/>
<path xmlns="http://www.w3.org/2000/svg" fill="#a39192" fill-opacity="0.996" d="   M 924.57 560.48   Q 922.61 558.65 921.72 555.92   Q 923.48 557.85 924.57 560.48   Z"/>
<path xmlns="http://www.w3.org/2000/svg" fill="#a39192" fill-opacity="0.996" d="   M 1224.52 557.50   L 1214.60 557.66   L 1224.52 557.50   Z"/>
<path xmlns="http://www.w3.org/2000/svg" fill="#a39192" fill-opacity="0.996" d="   M 886.90 565.95   L 877.22 559.44   Q 882.74 561.64 886.90 565.95   Z"/>
<path xmlns="http://www.w3.org/2000/svg" fill="#a39192" fill-opacity="0.996" d="   M 689.75 562.18   Q 690.02 562.14 690.43 562.23   Q 686.87 570.64 683.18 578.99   Q 680.88 584.20 678.70 589.68   Q 676.93 594.11 674.40 599.62   Q 672.47 603.84 670.06 609.56   Q 666.71 617.51 660.99 628.20   Q 667.50 611.87 674.86 596.00   C 676.90 591.60 678.53 586.40 680.71 581.66   Q 685.20 571.92 689.75 562.18   Z"/>
<path xmlns="http://www.w3.org/2000/svg" fill="#a39192" fill-opacity="0.996" d="   M 1373.89 563.84   L 1373.22 590.02   Q 1372.00 583.10 1372.26 581.01   Q 1372.79 576.76 1372.46 572.49   Q 1372.29 570.35 1373.89 563.84   Z"/>
<path xmlns="http://www.w3.org/2000/svg" fill="#000000" d="   M 1008.61 565.54   L 1008.59 566.71   L 1008.61 565.54   Z"/>
<path xmlns="http://www.w3.org/2000/svg" fill="#a39192" fill-opacity="0.996" d="   M 894.43 577.33   L 889.95 569.75   Q 893.41 572.59 894.43 577.33   Z"/>
<path xmlns="http://www.w3.org/2000/svg" fill="#000000" d="   M 1205.68 575.64   L 1199.75 575.84   L 1205.68 575.64   Z"/>
<path xmlns="http://www.w3.org/2000/svg" fill="#a39192" fill-opacity="0.996" d="   M 1208.56 575.60   Q 1210.76 576.15 1213.14 575.86   Q 1213.17 575.81 1213.20 575.76   Q 1213.45 575.99 1214.01 575.85   Q 1218.37 575.27 1222.30 576.42   Q 1220.24 576.82 1218.13 576.75   Q 1214.32 576.63 1213.93 576.64   Q 1190.75 577.37 1167.49 576.58   L 1199.75 575.84   L 1205.68 575.64   L 1208.56 575.60   Z"/>
<path xmlns="http://www.w3.org/2000/svg" fill="#000000" d="   M 1213.14 575.86   Q 1210.76 576.15 1208.56 575.60   Q 1210.77 575.19 1213.14 575.86   Z"/>
<path xmlns="http://www.w3.org/2000/svg" fill="#000000" d="   M 1214.01 575.85   Q 1213.45 575.99 1213.20 575.76   Q 1213.96 575.66 1214.01 575.85   Z"/>
<path xmlns="http://www.w3.org/2000/svg" fill="#a39192" fill-opacity="0.996" d="   M 838.98 576.94   L 837.65 582.05   Q 837.55 579.34 838.98 576.94   Z"/>
<path xmlns="http://www.w3.org/2000/svg" fill="#a39192" fill-opacity="0.996" d="   M 887.32 614.35   Q 893.23 606.84 895.08 600.81   Q 897.44 593.12 895.76 582.09   Q 898.77 587.94 897.16 594.73   Q 896.45 597.74 895.61 600.72   Q 893.29 608.95 887.32 614.35   Z"/>
<path xmlns="http://www.w3.org/2000/svg" fill="#a39192" fill-opacity="0.996" d="   M 337.11 591.30   Q 337.18 590.60 337.01 590.03   Q 337.23 590.53 337.11 591.30   Z"/>
<path xmlns="http://www.w3.org/2000/svg" fill="#a39192" fill-opacity="0.996" d="   M 598.42 601.68   L 592.10 601.02   Q 595.30 600.36 598.42 601.68   Z"/>
<path xmlns="http://www.w3.org/2000/svg" fill="#a39192" fill-opacity="0.996" d="   M 599.79 602.27   Q 599.23 602.17 598.79 601.91   Q 599.54 601.64 599.79 602.27   Z"/>
<path xmlns="http://www.w3.org/2000/svg" fill="#a39192" fill-opacity="0.996" d="   M 601.54 603.10   L 600.96 602.77   Q 600.89 602.42 601.37 602.40   A 0.34 0.34 0.0 0 1 601.68 602.89   Q 601.65 602.94 601.54 603.10   Z"/>
<path xmlns="http://www.w3.org/2000/svg" fill="#a39192" fill-opacity="0.996" d="   M 1373.71 602.67   L 1373.77 605.31   Q 1372.90 604.12 1373.71 602.67   Z"/>
<path xmlns="http://www.w3.org/2000/svg" fill="#a39192" fill-opacity="0.996" d="   M 606.39 606.44   L 602.73 603.66   Q 602.69 603.45 602.89 603.36   A 0.23 0.21 39.3 0 1 603.06 603.35   Q 605.59 604.26 606.39 606.44   Z"/>
<path xmlns="http://www.w3.org/2000/svg" fill="#000000" d="   M 416.11 604.03   Q 415.89 603.97 416.00 604.74   Q 415.93 604.74 415.86 604.73   Q 415.78 604.03 416.11 604.03   Z"/>
<path xmlns="http://www.w3.org/2000/svg" fill="#a39192" fill-opacity="0.996" d="   M 416.00 604.74   Q 416.05 605.99 416.40 605.45   Q 415.73 609.69 413.75 613.47   Q 410.71 619.28 404.48 620.81   C 411.70 617.95 414.82 611.97 415.86 604.73   Q 415.93 604.74 416.00 604.74   Z"/>
<path xmlns="http://www.w3.org/2000/svg" fill="#a39192" fill-opacity="0.996" d="   M 1092.44 608.42   Q 1090.08 610.27 1088.25 610.99   Q 1071.99 617.39 1054.25 615.64   C 1058.73 615.60 1062.79 615.54 1067.53 615.00   Q 1069.62 614.76 1072.75 614.55   Q 1082.01 613.91 1092.44 608.42   Z"/>
<path xmlns="http://www.w3.org/2000/svg" fill="#a39192" fill-opacity="0.996" d="   M 570.28 623.14   Q 580.36 622.89 590.41 622.76   Q 597.66 622.67 600.70 621.50   Q 605.98 619.47 608.11 614.54   Q 608.44 612.16 608.40 610.62   A 0.15 0.12 -58.9 0 1 608.65 610.52   Q 608.68 610.67 608.63 610.84   Q 608.56 611.03 608.58 611.15   Q 609.16 615.99 606.21 619.33   Q 605.11 620.58 603.16 621.35   Q 600.51 622.41 600.20 622.64   A 1.42 1.40 -60.2 0 1 599.27 622.90   C 595.70 622.60 591.25 623.63 587.24 623.63   Q 578.74 623.61 570.28 623.14   Z"/>
<path xmlns="http://www.w3.org/2000/svg" fill="#faf6f2" fill-opacity="0.996" d="   M 243.15 612.36   Q 233.51 620.95 224.33 629.60   Q 222.56 631.27 223.90 633.09   Q 231.97 644.01 242.13 648.35   Q 243.80 649.07 250.01 651.02   C 238.28 648.58 228.23 641.11 221.71 631.31   A 0.45 0.45 0.0 0 1 221.78 630.73   Q 230.88 622.37 239.08 613.83   Q 240.70 612.14 243.15 612.36   Z"/>
<path xmlns="http://www.w3.org/2000/svg" fill="#a39192" fill-opacity="0.996" d="   M 1043.86 616.68   L 1043.47 617.53   Q 1042.76 617.79 1042.70 617.46   A 1.03 1.02 -10.9 0 1 1043.52 616.26   Q 1043.72 616.22 1043.86 616.68   Z"/>
<path xmlns="http://www.w3.org/2000/svg" fill="#a39192" fill-opacity="0.996" d="   M 566.70 621.78   L 567.52 622.49   Q 567.16 623.27 566.23 622.86   A 0.71 0.71 0.0 0 1 565.92 621.82   Q 566.14 621.48 566.70 621.78   Z"/>
<path xmlns="http://www.w3.org/2000/svg" fill="#a39192" fill-opacity="0.996" d="   M 1373.63 644.00   Q 1374.12 647.02 1372.85 649.63   Q 1372.13 646.50 1373.63 644.00   Z"/>
</g></g></g></svg>