<svg width="24" height="24" viewBox="0 0 24 24" fill="none" xmlns="http://www.w3.org/2000/svg">
  <path d="M9.2 5.2C5.78 5.2 3 7.53 3 10.4C3 11.96 3.84 13.37 5.2 14.32L4.56 16.37L6.94 15.26C7.65 15.45 8.41 15.56 9.2 15.56C12.62 15.56 15.4 13.23 15.4 10.4C15.4 7.53 12.62 5.2 9.2 5.2Z" fill="#1A232F"/>
  <path d="M15.64 9.56C13.02 9.56 10.9 11.37 10.9 13.58C10.9 15.78 13.02 17.56 15.64 17.56C16.22 17.56 16.78 17.47 17.3 17.3L19.18 18.18L18.67 16.56C19.72 15.84 20.38 14.76 20.38 13.58C20.38 11.37 18.25 9.56 15.64 9.56Z" fill="#1A232F"/>
  <circle cx="7.2" cy="10.1" r="0.9" fill="#ECEE9F"/>
  <circle cx="11" cy="10.1" r="0.9" fill="#ECEE9F"/>
  <circle cx="14.3" cy="13.3" r="0.8" fill="#ECEE9F"/>
  <circle cx="17.1" cy="13.3" r="0.8" fill="#ECEE9F"/>
</svg>
